<?xml version="1.0" encoding="utf-8" ?>
<svg xmlns="http://www.w3.org/2000/svg" xmlns:cc="http://creativecommons.org/ns" xmlns:dc="http://purl.org/dc/elements/1.1/" xmlns:ev="http://www.w3.org/2001/xml-events" xmlns:inkscape="http://www.inkscape.org/namespaces/inkscape" xmlns:rdf="http://www.w3.org/1999/02/22-rdf-syntax-ns" xmlns:sodipodi="http://sodipodi.sourceforge.net/DTD/sodipodi-0.dtd" xmlns:xlink="http://www.w3.org/1999/xlink" baseProfile="tiny" height="10.0cm" version="1.2" viewBox="0 0 377.9527559055118 377.9527559055118" width="10.0cm">
  <metadata>
    <rdf:RDF>
      <cc:Work>
        <dc:format>image/svg+xml</dc:format>
        <dc:source>Generated with vsketch</dc:source>
        <dc:date>2023-04-30T18:39:19.111295</dc:date>
      </cc:Work>
    </rdf:RDF>
  </metadata>
  <defs/>
  <g fill="none" id="layer1" inkscape:groupmode="layer" inkscape:label="1" stroke="#0000ff" style="display:inline">
    <polyline points="247.2933,56.1024 236.5661,57.0348 226.1414,57.9673 216.0195,58.8997 206.2001,59.8322 196.6834,60.7646 187.4693,61.6971 178.5579,62.6295 169.9491,63.562 161.6429,64.4944 153.6394,65.4269 145.9385,66.3593 138.5403,67.2918 131.4447,68.2242 124.6517,69.1567 118.1614,70.0891 111.9737,71.0215 106.0886,71.954 100.5062,72.8864 95.2264,73.8189"/>
    <line x1="95.2264" x2="71.6043" y1="73.8189" y2="57.5787"/>
    <polyline points="71.6043,57.5787 74.3158,57.8241 77.7879,57.9386 82.0208,57.9223 87.0143,57.775 92.7685,57.4969 99.2834,57.088 106.5589,56.5481 114.5951,55.8774 123.3921,55.0759 132.9497,54.1434 143.268,53.0801 154.3469,51.8859 166.1866,50.5608 178.7869,49.1049 192.1479,47.5181 206.2696,45.8004 221.152,43.9519 236.7951,41.9725 253.1988,39.8622"/>
    <line x1="253.1988" x2="266.4862" y1="39.8622" y2="23.622"/>
    <line x1="266.4862" x2="287.1555" y1="23.622" y2="42.815"/>
    <polyline points="287.1555,42.815 285.7527,43.4652 284.3418,44.1727 282.9227,44.9375 281.4954,45.7595 280.0599,46.6388 278.6162,47.5754 277.1644,48.5692 275.7044,49.6202 274.2362,50.7285 272.7598,51.8941 271.2752,53.1169 269.7825,54.397 268.2816,55.7343 266.7725,57.1289 265.2552,58.5807 263.7298,60.0898 262.1961,61.6562 260.6543,63.2798 259.1043,64.9606"/>
    <polyline points="259.1043,64.9606 257.4398,66.7887 255.5545,68.854 253.4483,71.1565 251.1213,73.6962 248.5734,76.4731 245.8047,79.4872 242.8151,82.7385 239.6047,86.227 236.1734,89.9527 232.5213,93.9156 228.6484,98.1157 224.5546,102.5531 220.24,107.2276 215.7045,112.1393 210.9482,117.2882 205.9711,122.6743 200.7731,128.2977 195.3542,134.1582 189.7146,140.2559"/>
    <polyline points="189.7146,140.2559 191.5222,146.4763 193.2153,152.7049 194.794,158.9417 196.2581,165.1867 197.6077,171.4398 198.8428,177.7011 199.9633,183.9706 200.9694,190.2483 201.8609,196.5341 202.638,202.8282 203.3005,209.1304 203.8485,215.4408 204.282,221.7593 204.601,228.0861 204.8055,234.421 204.8955,240.7641 204.871,247.1154 204.7319,253.4749 204.4783,259.8425"/>
    <polyline points="204.4783,259.8425 204.1225,266.1529 203.6768,272.3406 203.141,278.4056 202.5153,284.3479 201.7996,290.1676 200.9939,295.8645 200.0983,301.4388 199.1127,306.8903 198.0371,312.2192 196.8715,317.4253 195.616,322.5088 194.2705,327.4696 192.835,332.3077 191.3095,337.0231 189.6941,341.6159 187.9887,346.0859 186.1933,350.4332 184.308,354.6579 182.3327,358.7598"/>
    <polyline points="182.3327,358.7598 179.9525,355.4758 177.4741,352.1509 174.8976,348.7851 172.223,345.3784 169.4502,341.9308 166.5792,338.4423 163.6101,334.9129 160.5428,331.3426 157.3774,327.7314 154.1138,324.0793 150.7521,320.3863 147.2922,316.6524 143.7342,312.8776 140.078,309.0619 136.3237,305.2054 132.4712,301.3079 128.5205,297.3695 124.4717,293.3902 120.3248,289.3701"/>
    <line x1="120.3248" x2="124.7539" y1="289.3701" y2="284.9409"/>
    <line x1="124.7539" x2="177.9035" y1="284.9409" y2="326.2795"/>
    <polyline points="177.9035,326.2795 179.4085,320.7257 180.8154,315.2537 182.1241,309.8635 183.3347,304.5551 184.447,299.3285 185.4613,294.1836 186.3774,289.1206 187.1953,284.1394 187.9151,279.2399 188.5367,274.4223 189.0602,269.6864 189.4855,265.0323 189.8127,260.4601 190.0417,255.9696 190.1726,251.5609 190.2053,247.234 190.1399,242.9889 189.9763,238.8256 189.7146,234.7441"/>
    <polyline points="189.7146,234.7441 189.5469,230.7158 189.3547,226.7119 189.1379,222.7327 188.8966,218.7779 188.6308,214.8478 188.3404,210.9421 188.0255,207.061 187.6861,203.2044 187.3221,199.3724 186.9336,195.5649 186.5205,191.7819 186.0829,188.0235 185.6208,184.2896 185.1341,180.5802 184.6229,176.8954 184.0872,173.2352 183.5269,169.5994 182.942,165.9882 182.3327,162.4016"/>
    <polyline points="182.3327,162.4016 181.8296,158.7086 181.253,155.0892 180.6027,151.5434 179.8789,148.0713 179.0814,144.6728 178.2103,141.3479 177.2656,138.0965 176.2472,134.9189 175.1553,131.8148 173.9897,128.7843 172.7505,125.8275 171.4377,122.9442 170.0513,120.1346 168.5913,117.3986 167.0577,114.7362 165.4504,112.1475 163.7696,109.6323 162.0151,107.1908 160.187,104.8228"/>
    <line x1="160.187" x2="166.0925" y1="104.8228" y2="101.8701"/>
    <polyline points="166.0925,101.8701 166.8859,102.6798 167.712,103.555 168.5709,104.4957 169.4624,105.5017 170.3867,106.5732 171.3437,107.7102 172.3334,108.9125 173.3558,110.1803 174.4109,111.5136 175.4988,112.9122 176.6194,114.3763 177.7727,115.9059 178.9587,117.5009 180.1774,119.1613 181.4289,120.8871 182.713,122.6784 184.0299,124.5351 185.3795,126.4573 186.7618,128.4449"/>
    <line x1="186.7618" x2="247.2933" y1="128.4449" y2="56.1024"/>
  </g>
  <g fill="none" id="layer2" inkscape:groupmode="layer" inkscape:label="2" stroke="#008800" style="display:inline">
    <line x1="266.4862" x2="136.565" y1="138.7795" y2="152.0669"/>
    <polyline points="201.5256,104.8228 195.0762,111.2723 189.0929,117.2555 183.5759,122.7725 178.5252,127.8232 173.9406,132.4078 169.8223,136.5261 166.1702,140.1782 162.9844,143.3641 160.2647,146.0837 158.0113,148.3371 156.2241,150.1243 154.9031,151.4453 154.0484,152.3 153.6599,152.6886 153.7376,152.6109 154.2815,152.0669 155.2916,151.0568 156.768,149.5804 158.7106,147.6378"/>
    <line x1="132.1358" x2="117.372" y1="166.8307" y2="144.685"/>
    <polyline points="191.1909,100.3937 184.4675,104.1358 178.2839,107.5916 172.6401,110.7611 167.5362,113.6443 162.9721,116.2412 158.9478,118.5519 155.4634,120.5763 152.5188,122.3144 150.1141,123.7663 148.2492,124.9318 146.9241,125.8111 146.1389,126.4041 145.8935,126.7109 146.188,126.7313 147.0223,126.4655 148.3964,125.9134 150.3104,125.075 152.7642,123.9503 155.7579,122.5394"/>
    <line x1="123.2776" x2="123.2776" y1="118.1102" y2="63.4843"/>
    <polyline points="194.1437,60.5315 186.9622,58.2167 180.3369,56.2455 174.2678,54.6178 168.7549,53.3336 163.7982,52.393 159.3977,51.7959 155.5534,51.5424 152.2653,51.6323 149.5334,52.0658 147.3577,52.8429 145.7381,53.9635 144.6748,55.4276 144.1677,57.2352 144.2168,59.3864 144.822,61.8811 145.9835,64.7193 147.7012,67.9011 149.9751,71.4264 152.8051,75.2953"/>
    <line x1="118.8484" x2="123.2776" y1="22.1457" y2="17.7165"/>
    <line x1="194.1437" x2="136.565" y1="36.9094" y2="42.815"/>
    <line x1="201.5256" x2="244.3406" y1="48.7205" y2="32.4803"/>
    <line x1="256.1516" x2="253.1988" y1="44.2913" y2="19.1929"/>
    <line x1="259.1043" x2="270.9154" y1="36.9094" y2="36.9094"/>
    <line x1="267.9626" x2="259.1043" y1="45.7677" y2="44.2913"/>
    <line x1="262.0571" x2="251.7224" y1="50.1969" y2="124.0157"/>
    <line x1="259.1043" x2="266.4862" y1="90.0591" y2="138.7795"/>
    <polyline points="276.8209,360.2362 276.1911,359.1443 275.2341,357.4225 273.9499,355.0709 272.3386,352.0896 270.4001,348.4784 268.1344,344.2374 265.5415,339.3665 262.6215,333.8659 259.3743,327.7355 255.7999,320.9752 251.8983,313.5851 247.6696,305.5652 243.1136,296.9156 238.2306,287.6361 233.0203,277.7267 227.4829,267.1876 221.6182,256.0187 215.4264,244.2199 208.9075,231.7913"/>
    <polyline points="231.0531,333.6614 226.8449,331.3835 222.612,328.5902 218.3547,325.2816 214.0728,321.4578 209.7663,317.1186 205.4353,312.2642 201.0798,306.8944 196.6998,301.0093 192.2952,294.609 187.866,287.6933 183.4124,280.2623 178.9341,272.3161 174.4314,263.8545 169.9041,254.8776 165.3523,245.3855 160.7759,235.378 156.175,224.8552 151.5496,213.8172 146.8996,202.2638"/>
    <polyline points="108.5138,277.5591 105.1275,282.3235 102.1175,286.3601 99.4837,289.6686 97.2262,292.2492 95.345,294.1018 93.84,295.2265 92.7112,295.6232 91.9587,295.2919 91.5825,294.2327 91.5825,292.4455 91.9587,289.9304 92.7112,286.6872 93.84,282.7162 95.345,278.0171 97.2262,272.5901 99.4837,266.4351 102.1175,259.5522 105.1275,251.9412 108.5138,243.6024"/>
    <line x1="30.2657" x2="25.8366" y1="360.2362" y2="355.8071"/>
    <polyline points="146.8996,205.2165 140.2661,214.9091 134.3524,223.4729 129.1585,230.908 124.6844,237.2143 120.9301,242.3918 117.8955,246.4406 115.5808,249.3606 113.9858,251.1519 113.1106,251.8145 112.9552,251.3482 113.5196,249.7533 114.8037,247.0295 116.8077,243.177 119.5314,238.1958 122.9749,232.0858 127.1382,224.847 132.0213,216.4795 137.6242,206.9833 143.9469,196.3583"/>
    <polyline points="101.1319,262.7953 103.4753,258.4234 105.8432,254.0106 108.2357,249.557 110.6527,245.0624 113.0942,240.5269 115.5603,235.9506 118.0509,231.3333 120.5661,226.6751 123.1058,221.9761 125.67,217.2361 128.2588,212.4553 130.8721,207.6335 133.51,202.7709 136.1724,197.8674 138.8593,192.9229 141.5707,187.9376 144.3067,182.9114 147.0673,177.8442 149.8524,172.7362"/>
    <line x1="114.4193" x2="120.3248" y1="215.5512" y2="214.0748"/>
    <line x1="194.1437" x2="136.565" y1="134.3504" y2="237.6969"/>
    <polyline points="201.5256,146.1614 194.6345,155.2528 188.2586,163.5671 182.3981,171.1044 177.0529,177.8647 172.223,183.8479 167.9083,189.0541 164.109,193.4832 160.825,197.1353 158.0563,200.0104 155.8029,202.1084 154.0647,203.4293 152.8419,203.9733 152.1344,203.7402 151.9422,202.73 152.2653,200.9428 153.1037,198.3786 154.4574,195.0373 156.3263,190.919 158.7106,186.0236"/>
    <polyline points="129.1831,243.6024 128.8068,244.3549 128.6105,244.7475 128.5942,244.7802 128.7577,244.453 129.1013,243.7659 129.6248,242.719 130.3282,241.3121 131.2116,239.5454 132.2749,237.4188 133.5181,234.9322 134.9414,232.0858 136.5445,228.8795 138.3276,225.3133 140.2907,221.3872 142.4337,217.1012 144.7566,212.4553 147.2595,207.4495 149.9423,202.0838 152.8051,196.3583"/>
    <line x1="117.372" x2="179.3799" y1="265.748" y2="295.2756"/>
    <line x1="223.6713" x2="179.3799" y1="175.689" y2="194.8819"/>
    <polyline points="223.6713,125.4921 207.3411,133.5611 192.2297,140.9839 178.3371,147.7605 165.6631,153.8909 154.2079,159.3752 143.9714,164.2133 134.9536,168.4052 127.1546,171.951 120.5743,174.8506 115.2127,177.104 111.0698,178.7113 108.1457,179.6723 106.4403,179.9872 105.9536,179.656 106.6857,178.6785 108.6365,177.0549 111.806,174.7852 116.1942,171.8692 121.8012,168.3071"/>
    <line x1="56.8406" x2="37.6476" y1="208.1693" y2="190.4528"/>
    <polyline points="152.8051,122.5394 144.7975,129.5491 137.8696,135.9699 132.0213,141.8018 127.2527,147.0448 123.5638,151.6989 120.9546,155.764 119.4251,159.2402 118.9752,162.1276 119.605,164.426 121.3145,166.1355 124.1037,167.256 127.9725,167.7877 132.921,167.7304 138.9492,167.0843 146.0571,165.8492 154.2447,164.0252 163.5119,161.6123 173.8588,158.6104 185.2854,155.0197"/>
    <polyline points="185.2854,181.5945 196.9492,180.3185 207.6969,178.9771 217.5285,177.5702 226.4441,176.0979 234.4435,174.5602 241.5268,172.9571 247.6941,171.2885 252.9453,169.5544 257.2803,167.755 260.6993,165.8901 263.2022,163.9597 264.789,161.964 265.4597,159.9028 265.2143,157.7761 264.0529,155.5841 261.9753,153.3266 258.9816,151.0036 255.0719,148.6152 250.2461,146.1614"/>
    <line x1="313.7303" x2="332.9232" y1="163.878" y2="183.0709"/>
    <polyline points="300.4429,119.5866 301.1668,125.8847 301.1627,131.7248 300.4306,137.1068 298.9706,142.0308 296.7826,146.4968 293.8667,150.5047 290.2228,154.0545 285.8509,157.1463 280.7511,159.7801 274.9233,161.9558 268.3675,163.6735 261.0837,164.9331 253.072,165.7347 244.3324,166.0782 234.8647,165.9637 224.6691,165.3911 213.7456,164.3605 202.0941,162.8719 189.7146,160.9252"/>
    <line x1="192.6673" x2="192.6673" y1="193.4055" y2="234.7441"/>
    <polyline points="229.5768,146.1614 232.8117,154.3408 235.6786,161.784 238.1774,168.4911 240.3081,174.4621 242.0708,179.6969 243.4654,184.1955 244.4919,187.958 245.1503,190.9844 245.4407,193.2746 245.363,194.8287 244.9172,195.6467 244.1033,195.7285 242.9214,195.0741 241.3714,193.6836 239.4534,191.557 237.1672,188.6942 234.513,185.0953 231.4907,180.7602 228.1004,175.689"/>
    <line x1="269.439" x2="288.6319" y1="221.4567" y2="239.1732"/>
    <polyline points="276.8209,147.6378 275.2545,156.8764 273.3528,165.3216 271.1157,172.9734 268.5433,179.8318 265.6356,185.8968 262.3924,191.1685 258.814,195.6467 254.9001,199.3315 250.6509,202.2229 246.0664,204.3209 241.1465,205.6255 235.8913,206.1367 230.3006,205.8545 224.3747,204.7789 218.1134,202.91 211.5167,200.2476 204.5847,196.7918 197.3173,192.5426 189.7146,187.5"/>
    <line x1="192.6673" x2="192.6673" y1="248.0315" y2="302.6575"/>
    <polyline points="229.5768,178.6417 229.0983,192.4649 228.5952,205.0284 228.0677,216.3323 227.5156,226.3766 226.9389,235.1612 226.3377,242.6863 225.712,248.9517 225.0618,253.9575 224.387,257.7036 223.6876,260.1901 222.9637,261.4171 222.2153,261.3843 221.4424,260.092 220.6449,257.54 219.8229,253.7284 218.9763,248.6572 218.1052,242.3264 217.2096,234.7359 216.2894,225.8858"/>
    <polyline points="245.8169,323.3268 247.8413,323.9566 249.5631,323.9811 250.9822,323.4004 252.0987,322.2144 252.9125,320.4231 253.4238,318.0265 253.6323,315.0247 253.5383,311.4176 253.1416,307.2052 252.4422,302.3876 251.4403,296.9646 250.1356,290.9364 248.5284,284.303 246.6185,277.0642 244.406,269.2202 241.8908,260.7709 239.073,251.7163 235.9526,242.0565 232.5295,231.7913"/>
    <polyline points="276.8209,335.1378 277.831,335.2932 278.6858,334.827 279.3851,333.7391 279.929,332.0296 280.3176,329.6985 280.5507,326.7458 280.6284,323.1714 280.5507,318.9753 280.3176,314.1577 279.929,308.7184 279.3851,302.6575 278.6858,295.9749 277.831,288.6707 276.8209,280.7449 275.6553,272.1975 274.3343,263.0284 272.858,253.2377 271.2262,242.8253 269.439,231.7913"/>
    <line x1="352.1161" x2="352.1161" y1="333.6614" y2="341.0433"/>
    <line x1="309.3012" x2="276.8209" y1="199.311" y2="360.2362"/>
    <polyline points="136.565,90.0591 143.0757,89.511 149.243,89.1102 155.0667,88.8567 160.5469,88.7504 165.6836,88.7913 170.4767,88.9794 174.9262,89.3147 179.0323,89.7973 182.7948,90.4271 186.2138,91.2042 189.2892,92.1284 192.0212,93.1999 194.4095,94.4187 196.4544,95.7846 198.1557,97.2978 199.5135,98.9582 200.5277,100.7659 201.1984,102.7207 201.5256,104.8228"/>
    <line x1="216.2894" x2="231.0531" y1="79.7244" y2="94.4882"/>
    <polyline points="248.7697,75.2953 244.5532,77.471 240.2958,79.6467 235.9976,81.8224 231.6584,83.9981 227.2784,86.1738 222.8574,88.3496 218.3956,90.5253 213.8928,92.701 209.3492,94.8767 204.7646,97.0524 200.1392,99.2281 195.4728,101.4039 190.7656,103.5796 186.0175,105.7553 181.2285,107.931 176.3985,110.1067 171.5277,112.2824 166.616,114.4581 161.6634,116.6339"/>
    <line x1="136.565" x2="136.565" y1="106.2992" y2="137.3031"/>
    <line x1="201.5256" x2="236.9587" y1="95.9646" y2="126.9685"/>
    <line x1="251.7224" x2="244.3406" y1="91.5354" y2="47.2441"/>
    <line x1="256.1516" x2="136.565" y1="51.6732" y2="59.0551"/>
    <line x1="201.5256" x2="136.565" y1="57.5787" y2="90.0591"/>
  </g>
  <g fill="none" id="layer3" inkscape:groupmode="layer" inkscape:label="3" stroke="#ff0000" style="display:inline">
    <line x1="266.4862" x2="136.565" y1="138.7795" y2="152.0669"/>
    <polyline points="136.565,152.0669 136.6999,153.7273 136.794,155.2896 136.8471,156.7537 136.8594,158.1197 136.8308,159.3875 136.7613,160.5571 136.6508,161.6286 136.4995,162.602 136.3073,163.4772 136.0742,164.2542 135.8002,164.9331 135.4853,165.5138 135.1295,165.9964 134.7328,166.3808 134.2952,166.6671 133.8167,166.8552 133.2973,166.9452 132.737,166.937 132.1358,166.8307"/>
    <line x1="132.1358" x2="117.372" y1="166.8307" y2="144.685"/>
    <polyline points="117.372,144.685 118.1246,143.8753 118.828,143.0001 119.4823,142.0595 120.0876,141.0534 120.6438,139.9819 121.1509,138.845 121.609,137.6426 122.0179,136.3748 122.3778,135.0416 122.6886,133.6429 122.9504,132.1788 123.163,130.6492 123.3266,129.0542 123.4411,127.3938 123.5066,125.668 123.5229,123.8767 123.4902,122.02 123.4084,120.0978 123.2776,118.1102"/>
    <line x1="123.2776" x2="123.2776" y1="118.1102" y2="63.4843"/>
    <polyline points="123.2776,63.4843 123.2653,60.7196 123.2285,58.0204 123.1671,55.3867 123.0813,52.8183 122.9708,50.3155 122.8359,47.878 122.6764,45.506 122.4923,43.1994 122.2838,40.9582 122.0507,38.7825 121.793,36.6722 121.5108,34.6274 121.2041,32.648 120.8728,30.734 120.517,28.8855 120.1367,27.1024 119.7318,25.3847 119.3024,23.7325 118.8484,22.1457"/>
    <line x1="118.8484" x2="123.2776" y1="22.1457" y2="17.7165"/>
    <line x1="123.2776" x2="136.565" y1="17.7165" y2="42.815"/>
    <line x1="136.565" x2="244.3406" y1="42.815" y2="32.4803"/>
    <line x1="244.3406" x2="253.1988" y1="32.4803" y2="19.1929"/>
    <line x1="253.1988" x2="270.9154" y1="19.1929" y2="36.9094"/>
    <line x1="270.9154" x2="259.1043" y1="36.9094" y2="44.2913"/>
    <line x1="259.1043" x2="251.7224" y1="44.2913" y2="124.0157"/>
    <line x1="251.7224" x2="266.4862" y1="124.0157" y2="138.7795"/>
    <polyline points="276.8209,360.2362 276.2524,359.4265 275.4794,358.5513 274.502,357.6106 273.3201,356.6046 271.9337,355.5331 270.3428,354.3961 268.5474,353.1938 266.5476,351.926 264.3432,350.5927 261.9344,349.1941 259.3211,347.7299 256.5033,346.2004 253.481,344.6054 250.2542,342.945 246.823,341.2192 243.1873,339.4279 239.347,337.5712 235.3023,335.649 231.0531,333.6614"/>
    <polyline points="231.0531,333.6614 226.7385,331.592 222.1867,329.4245 217.3977,327.1588 212.3714,324.795 207.108,322.333 201.6074,319.7728 195.8695,317.1145 189.8945,314.3581 183.6823,311.5035 177.2328,308.5507 170.5462,305.4998 163.6223,302.3508 156.4613,299.1035 149.0631,295.7582 141.4276,292.3147 133.5549,288.773 125.4451,285.1332 117.098,281.3952 108.5138,277.5591"/>
    <polyline points="108.5138,277.5591 104.9108,282.6466 101.2505,287.6524 97.533,292.5764 93.7582,297.4186 89.9261,302.179 86.0368,306.8576 82.0903,311.4544 78.0865,315.9694 74.0254,320.4026 69.9071,324.7541 65.7315,329.0237 61.4987,333.2116 57.2086,337.3176 52.8613,341.3419 48.4567,345.2843 43.9948,349.145 39.4757,352.9239 34.8994,356.6209 30.2657,360.2362"/>
    <line x1="30.2657" x2="25.8366" y1="360.2362" y2="355.8071"/>
    <polyline points="25.8366,355.8071 31.4927,350.2492 36.9606,344.7649 42.2404,339.3543 47.332,334.0172 52.2356,328.7538 56.951,323.564 61.4783,318.4478 65.8174,313.4052 69.9685,308.4362 73.9314,303.5409 77.7061,298.7191 81.2928,293.971 84.6913,289.2965 87.9017,284.6956 90.924,280.1683 93.7582,275.7146 96.4042,271.3345 98.8621,267.0281 101.1319,262.7953"/>
    <polyline points="101.1319,262.7953 103.3771,258.542 105.4506,254.485 107.3523,250.6244 109.0822,246.96 110.6404,243.4919 112.0268,240.2202 113.2415,237.1447 114.2843,234.2656 115.1554,231.5828 115.8548,229.0962 116.3823,226.806 116.7381,224.7121 116.9222,222.8145 116.9345,221.1132 116.775,219.6082 116.4437,218.2995 115.9407,217.1871 115.2659,216.271 114.4193,215.5512"/>
    <line x1="114.4193" x2="120.3248" y1="215.5512" y2="214.0748"/>
    <line x1="120.3248" x2="136.565" y1="214.0748" y2="237.6969"/>
    <polyline points="136.565,237.6969 136.2501,237.566 135.927,237.4842 135.5957,237.4515 135.2563,237.4678 134.9086,237.5333 134.5528,237.6478 134.1889,237.8114 133.8167,238.024 133.4363,238.2858 133.0478,238.5966 132.6511,238.9565 132.2462,239.3654 131.8332,239.8235 131.412,240.3306 130.9825,240.8868 130.5449,241.4921 130.0992,242.1464 129.6452,242.8499 129.1831,243.6024"/>
    <polyline points="129.1831,243.6024 128.7087,244.5471 128.2179,245.5163 127.7108,246.5101 127.1873,247.5285 126.6475,248.5713 126.0913,249.6387 125.5187,250.7307 124.9298,251.8472 124.3245,252.9882 123.7029,254.1538 123.0649,255.3439 122.4105,256.5585 121.7398,257.7977 121.0528,259.0614 120.3493,260.3496 119.6296,261.6624 118.8934,262.9998 118.1409,264.3616 117.372,265.748"/>
    <line x1="117.372" x2="179.3799" y1="265.748" y2="295.2756"/>
    <line x1="179.3799" x2="179.3799" y1="295.2756" y2="194.8819"/>
    <polyline points="179.3799,194.8819 167.4094,195.9493 156.0523,196.9758 145.3087,197.9614 135.1786,198.9061 125.6618,199.81 116.7586,200.6729 108.4688,201.4949 100.7924,202.276 93.7296,203.0163 87.2801,203.7156 81.4441,204.3741 76.2216,204.9916 71.6125,205.5682 67.6169,206.104 64.2347,206.5989 61.466,207.0528 59.3107,207.4659 57.7689,207.838 56.8406,208.1693"/>
    <line x1="56.8406" x2="37.6476" y1="208.1693" y2="190.4528"/>
    <polyline points="37.6476,190.4528 41.4429,190.5754 45.6798,190.6327 50.3584,190.6245 55.4787,190.5509 61.0407,190.4119 67.0443,190.2074 73.4897,189.9375 80.3767,189.6021 87.7054,189.2013 95.4758,188.7351 103.6879,188.2034 112.3417,187.6063 121.4372,186.9438 130.9744,186.2158 140.9532,185.4224 151.3737,184.5636 162.2359,183.6393 173.5398,182.6496 185.2854,181.5945"/>
    <polyline points="185.2854,181.5945 197.1251,180.3676 208.4004,179.1734 219.1113,178.0119 229.2578,176.8832 238.8399,175.7871 247.8577,174.7238 256.3111,173.6932 264.2001,172.6953 271.5247,171.7302 278.285,170.7977 284.4809,169.898 290.1124,169.031 295.1795,168.1967 299.6822,167.3951 303.6206,166.6262 306.9946,165.8901 309.8042,165.1867 312.0495,164.5159 313.7303,163.878"/>
    <line x1="313.7303" x2="332.9232" y1="163.878" y2="183.0709"/>
    <polyline points="332.9232,183.0709 330.3263,182.9523 327.1977,182.9073 323.5374,182.9359 319.3455,183.0381 314.6219,183.214 309.3666,183.4635 303.5797,183.7866 297.2611,184.1833 290.4109,184.6536 283.029,185.1975 275.1155,185.815 266.6703,186.5062 257.6934,187.271 248.1849,188.1094 238.1447,189.0214 227.5728,190.007 216.4693,191.0662 204.8341,192.1991 192.6673,193.4055"/>
    <line x1="192.6673" x2="192.6673" y1="193.4055" y2="234.7441"/>
    <polyline points="192.6673,234.7441 199.7997,233.9711 206.5886,233.2064 213.034,232.4498 219.1358,231.7014 224.8941,230.9611 230.3088,230.2291 235.38,229.5052 240.1077,228.7895 244.4919,228.082 248.5325,227.3827 252.2296,226.6915 255.5831,226.0085 258.5931,225.3337 261.2596,224.6671 263.5825,224.0087 265.562,223.3584 267.1978,222.7163 268.4902,222.0824 269.439,221.4567"/>
    <line x1="269.439" x2="288.6319" y1="221.4567" y2="239.1732"/>
    <polyline points="288.6319,239.1732 285.8632,239.1978 282.8409,239.2714 279.565,239.3941 276.0356,239.5658 272.2527,239.7867 268.2162,240.0566 263.9261,240.3756 259.3824,240.7437 254.5852,241.1608 249.5345,241.627 244.2301,242.1423 238.6722,242.7067 232.8608,243.3202 226.7958,243.9827 220.4772,244.6943 213.9051,245.455 207.0794,246.2648 200.0001,247.1236 192.6673,248.0315"/>
    <line x1="192.6673" x2="192.6673" y1="248.0315" y2="302.6575"/>
    <polyline points="192.6673,302.6575 196.0536,304.0398 199.3744,305.3894 202.6298,306.7063 205.8198,307.9904 208.9443,309.2419 212.0034,310.4606 214.997,311.6466 217.9252,312.7999 220.788,313.9205 223.5854,315.0083 226.3173,316.0635 228.9838,317.0859 231.5848,318.0756 234.1204,319.0326 236.5906,319.9569 238.9953,320.8484 241.3346,321.7073 243.6085,322.5334 245.8169,323.3268"/>
    <polyline points="245.8169,323.3268 247.964,324.2429 250.0538,325.1262 252.0864,325.9769 254.0617,326.7948 255.9798,327.58 257.8406,328.3326 259.6442,329.0523 261.3905,329.7394 263.0795,330.3938 264.7113,331.0154 266.2858,331.6043 267.8031,332.1605 269.2631,332.684 270.6659,333.1747 272.0114,333.6328 273.2996,334.0581 274.5306,334.4507 275.7044,334.8106 276.8209,335.1378"/>
    <polyline points="276.8209,335.1378 278.06,335.5754 279.6019,335.9557 281.4463,336.2788 283.5934,336.5446 286.0431,336.7532 288.7955,336.9045 291.8505,336.9986 295.2081,337.0354 298.8684,337.015 302.8313,336.9373 307.0968,336.8023 311.665,336.6101 316.5358,336.3606 321.7093,336.0539 327.1854,335.6899 332.9641,335.2687 339.0455,334.7902 345.4295,334.2544 352.1161,333.6614"/>
    <line x1="352.1161" x2="352.1161" y1="333.6614" y2="341.0433"/>
    <line x1="352.1161" x2="276.8209" y1="341.0433" y2="360.2362"/>
    <polyline points="136.565,90.0591 143.1166,89.4415 149.4066,88.8321 155.4348,88.231 161.2013,87.638 166.706,87.0531 171.949,86.4765 176.9302,85.908 181.6497,85.3477 186.1075,84.7956 190.3035,84.2517 194.2378,83.7159 197.9103,83.1884 201.3211,82.669 204.4702,82.1578 207.3575,81.6547 209.9831,81.1599 212.3469,80.6732 214.449,80.1947 216.2894,79.7244"/>
    <line x1="216.2894" x2="231.0531" y1="79.7244" y2="94.4882"/>
    <polyline points="231.0531,94.4882 228.583,94.6681 225.8347,94.8972 222.8083,95.1753 219.5039,95.5024 215.9213,95.8787 212.0606,96.304 207.9219,96.7784 203.505,97.3019 198.81,97.8745 193.837,98.4961 188.5858,99.1668 183.0566,99.8866 177.2492,100.6554 171.1637,101.4734 164.8002,102.3404 158.1585,103.2565 151.2388,104.2217 144.0409,105.2359 136.565,106.2992"/>
    <line x1="136.565" x2="136.565" y1="106.2992" y2="137.3031"/>
    <line x1="136.565" x2="236.9587" y1="137.3031" y2="126.9685"/>
    <line x1="236.9587" x2="244.3406" y1="126.9685" y2="47.2441"/>
    <line x1="244.3406" x2="136.565" y1="47.2441" y2="59.0551"/>
    <line x1="136.565" x2="136.565" y1="59.0551" y2="90.0591"/>
  </g>
</svg>
