<?xml version="1.0" encoding="utf-8" ?>
<svg xmlns="http://www.w3.org/2000/svg" xmlns:cc="http://creativecommons.org/ns" xmlns:dc="http://purl.org/dc/elements/1.1/" xmlns:ev="http://www.w3.org/2001/xml-events" xmlns:inkscape="http://www.inkscape.org/namespaces/inkscape" xmlns:rdf="http://www.w3.org/1999/02/22-rdf-syntax-ns" xmlns:sodipodi="http://sodipodi.sourceforge.net/DTD/sodipodi-0.dtd" xmlns:xlink="http://www.w3.org/1999/xlink" baseProfile="tiny" height="10.0cm" version="1.2" viewBox="0 0 377.9527559055118 377.9527559055118" width="10.0cm">
  <metadata>
    <rdf:RDF>
      <cc:Work>
        <dc:format>image/svg+xml</dc:format>
        <dc:source>Generated with vsketch</dc:source>
        <dc:date>2023-04-30T17:26:22.387017</dc:date>
      </cc:Work>
    </rdf:RDF>
  </metadata>
  <defs/>
  <g fill="none" id="layer1" inkscape:groupmode="layer" inkscape:label="1" stroke="#0000ff" style="display:inline">
    <polyline points="180.1181,172.7362 180.1099,172.1228 180.0854,171.5257 180.0445,170.9449 179.9872,170.3806 179.9136,169.8325 179.8237,169.3009 179.7173,168.7856 179.5946,168.2866 179.4556,167.8041 179.3002,167.3378 179.1284,166.888 178.9403,166.4545 178.7358,166.0373 178.515,165.6365 178.2777,165.2521 178.0242,164.884 177.7543,164.5323 177.468,164.1969 177.1654,163.878"/>
    <polyline points="177.1654,163.878 176.8423,163.424 176.4946,162.9946 176.1225,162.5897 175.7258,162.2094 175.3045,161.8536 174.8588,161.5223 174.3885,161.2156 173.8936,160.9334 173.3742,160.6757 172.8303,160.4426 172.2618,160.234 171.6688,160.05 171.0513,159.8905 170.4092,159.7555 169.7426,159.6451 169.0514,159.5592 168.3357,159.4979 167.5955,159.4611 166.8307,159.4488"/>
    <line x1="166.8307" x2="135.8268" y1="159.4488" y2="159.4488"/>
    <line x1="135.8268" x2="135.8268" y1="159.4488" y2="150.5906"/>
    <line x1="135.8268" x2="150.5906" y1="150.5906" y2="150.5906"/>
    <polyline points="150.5906,150.5906 151.9851,150.5865 153.3715,150.5742 154.7498,150.5537 156.1198,150.5251 157.4817,150.4883 158.8354,150.4433 160.1809,150.3902 161.5182,150.3288 162.8474,150.2593 164.1683,150.1816 165.4811,150.0957 166.7857,150.0016 168.0822,149.8994 169.3704,149.789 170.6505,149.6704 171.9224,149.5436 173.1861,149.4086 174.4416,149.2655 175.689,149.1142"/>
    <polyline points="175.689,149.1142 176.9282,148.7952 178.1591,148.4598 179.382,148.1081 180.5966,147.74 181.8031,147.3556 183.0013,146.9548 184.1914,146.5377 185.3734,146.1042 186.5471,145.6543 187.7127,145.1881 188.87,144.7055 190.0192,144.2065 191.1603,143.6912 192.2931,143.1596 193.4178,142.6116 194.5343,142.0472 195.6426,141.4665 196.7427,140.8694 197.8346,140.2559"/>
    <line x1="197.8346" x2="200.7874" y1="140.2559" y2="140.2559"/>
    <line x1="200.7874" x2="200.7874" y1="140.2559" y2="295.2756"/>
    <polyline points="200.7874,295.2756 200.7956,295.889 200.8201,296.4861 200.861,297.0669 200.9183,297.6313 200.9919,298.1793 201.0819,298.7109 201.1882,299.2262 201.3109,299.7252 201.4499,300.2078 201.6053,300.674 201.7771,301.1238 201.9652,301.5574 202.1697,301.9745 202.3906,302.3753 202.6278,302.7597 202.8813,303.1278 203.1512,303.4795 203.4375,303.8149 203.7402,304.1339"/>
    <polyline points="203.7402,304.1339 204.2105,304.4365 204.689,304.7228 205.1756,304.9927 205.6705,305.2463 206.1735,305.4835 206.6847,305.7043 207.2041,305.9088 207.7317,306.0969 208.2674,306.2687 208.8114,306.4241 209.3635,306.5631 209.9238,306.6858 210.4922,306.7922 211.0689,306.8821 211.6537,306.9557 212.2467,307.013 212.8479,307.0539 213.4573,307.0784 214.0748,307.0866"/>
    <line x1="214.0748" x2="245.0787" y1="307.0866" y2="307.0866"/>
    <line x1="245.0787" x2="245.0787" y1="307.0866" y2="315.9449"/>
    <line x1="245.0787" x2="135.8268" y1="315.9449" y2="315.9449"/>
    <line x1="135.8268" x2="135.8268" y1="315.9449" y2="307.0866"/>
    <line x1="135.8268" x2="166.8307" y1="307.0866" y2="307.0866"/>
    <polyline points="166.8307,307.0866 167.5955,307.0784 168.3357,307.0539 169.0514,307.013 169.7426,306.9557 170.4092,306.8821 171.0513,306.7922 171.6688,306.6858 172.2618,306.5631 172.8303,306.4241 173.3742,306.2687 173.8936,306.0969 174.3885,305.9088 174.8588,305.7043 175.3045,305.4835 175.7258,305.2463 176.1225,304.9927 176.4946,304.7228 176.8423,304.4365 177.1654,304.1339"/>
    <polyline points="177.1654,304.1339 177.468,303.8149 177.7543,303.4795 178.0242,303.1278 178.2777,302.7597 178.515,302.3753 178.7358,301.9745 178.9403,301.5574 179.1284,301.1238 179.3002,300.674 179.4556,300.2078 179.5946,299.7252 179.7173,299.2262 179.8237,298.7109 179.9136,298.1793 179.9872,297.6313 180.0445,297.0669 180.0854,296.4861 180.1099,295.889 180.1181,295.2756"/>
    <line x1="180.1181" x2="180.1181" y1="295.2756" y2="172.7362"/>
    <polyline points="211.122,81.2008 211.1057,82.1251 211.0566,83.033 210.9748,83.9245 210.8603,84.7997 210.7131,85.6585 210.5331,86.501 210.3205,87.3271 210.0751,88.1369 209.797,88.9303 209.4862,89.7073 209.1426,90.468 208.7664,91.2123 208.3574,91.9403 207.9157,92.6519 207.4413,93.3472 206.9342,94.0261 206.3944,94.6886 205.8218,95.3348 205.2165,95.9646"/>
    <polyline points="205.2165,95.9646 204.5867,96.5698 203.9406,97.1424 203.278,97.6822 202.5991,98.1894 201.9039,98.6638 201.1923,99.1054 200.4643,99.5144 199.72,99.8907 198.9593,100.2342 198.1823,100.545 197.3889,100.8231 196.5791,101.0685 195.753,101.2812 194.9105,101.4611 194.0517,101.6083 193.1765,101.7228 192.2849,101.8046 191.377,101.8537 190.4528,101.8701"/>
    <polyline points="190.4528,101.8701 189.5285,101.8537 188.6206,101.8046 187.729,101.7228 186.8538,101.6083 185.995,101.4611 185.1525,101.2812 184.3264,101.0685 183.5166,100.8231 182.7232,100.545 181.9462,100.2342 181.1855,99.8907 180.4412,99.5144 179.7132,99.1054 179.0016,98.6638 178.3064,98.1894 177.6275,97.6822 176.965,97.1424 176.3188,96.5698 175.689,95.9646"/>
    <polyline points="175.689,95.9646 175.0837,95.3348 174.5111,94.6886 173.9713,94.0261 173.4642,93.3472 172.9898,92.6519 172.5481,91.9403 172.1391,91.2123 171.7629,90.468 171.4193,89.7073 171.1085,88.9303 170.8304,88.1369 170.585,87.3271 170.3724,86.501 170.1924,85.6585 170.0452,84.7997 169.9307,83.9245 169.8489,83.033 169.7998,82.1251 169.7835,81.2008"/>
    <polyline points="169.7835,81.2008 169.7998,80.2765 169.8489,79.3686 169.9307,78.4771 170.0452,77.6019 170.1924,76.743 170.3724,75.9005 170.585,75.0744 170.8304,74.2647 171.1085,73.4713 171.4193,72.6942 171.7629,71.9336 172.1391,71.1892 172.5481,70.4613 172.9898,69.7497 173.4642,69.0544 173.9713,68.3755 174.5111,67.713 175.0837,67.0668 175.689,66.437"/>
    <polyline points="175.689,66.437 176.3188,65.8317 176.965,65.2592 177.6275,64.7193 178.3064,64.2122 179.0016,63.7378 179.7132,63.2961 180.4412,62.8872 181.1855,62.5109 181.9462,62.1674 182.7232,61.8566 183.5166,61.5785 184.3264,61.3331 185.1525,61.1204 185.995,60.9405 186.8538,60.7932 187.729,60.6787 188.6206,60.5969 189.5285,60.5479 190.4528,60.5315"/>
    <polyline points="190.4528,60.5315 191.377,60.5479 192.2849,60.5969 193.1765,60.6787 194.0517,60.7932 194.9105,60.9405 195.753,61.1204 196.5791,61.3331 197.3889,61.5785 198.1823,61.8566 198.9593,62.1674 199.72,62.5109 200.4643,62.8872 201.1923,63.2961 201.9039,63.7378 202.5991,64.2122 203.278,64.7193 203.9406,65.2592 204.5867,65.8317 205.2165,66.437"/>
    <polyline points="205.2165,66.437 205.8218,67.0668 206.3944,67.713 206.9342,68.3755 207.4413,69.0544 207.9157,69.7497 208.3574,70.4613 208.7664,71.1892 209.1426,71.9336 209.4862,72.6942 209.797,73.4713 210.0751,74.2647 210.3205,75.0744 210.5331,75.9005 210.7131,76.743 210.8603,77.6019 210.9748,78.4771 211.0566,79.3686 211.1057,80.2765 211.122,81.2008"/>
  </g>
  <g fill="none" id="layer2" inkscape:groupmode="layer" inkscape:label="2" stroke="#008800" style="display:inline">
    <polyline points="181.5945,302.6575 183.443,302.3385 185.2589,301.3815 187.042,299.7865 188.7923,297.5535 190.51,294.6826 192.195,291.1736 193.8472,287.0267 195.4667,282.2417 197.0535,276.8188 198.6076,270.7579 200.129,264.059 201.6176,256.7221 203.0735,248.7472 204.4968,240.1343 205.8872,230.8834 207.245,220.9946 208.5701,210.4677 209.8624,199.3028 211.122,187.5"/>
    <polyline points="211.122,293.7992 212.4757,292.5846 213.7394,290.8056 214.9132,288.4622 215.997,285.5544 216.9908,282.0823 217.8946,278.0457 218.7084,273.4448 219.4323,268.2795 220.0662,262.5499 220.6101,256.2559 221.0641,249.3975 221.4281,241.9747 221.7021,233.9875 221.8861,225.436 221.9802,216.32 221.9843,206.6397 221.8984,196.3951 221.7225,185.586 221.4567,174.2126"/>
    <line x1="230.315" x2="230.315" y1="265.748" y2="172.7362"/>
    <polyline points="236.2205,172.7362 235.5825,172.0083 234.9118,171.0676 234.2083,169.9143 233.4722,168.5484 232.7033,166.9698 231.9018,165.1785 231.0675,163.1745 230.2004,160.9579 229.3007,158.5286 228.3683,155.8867 227.4031,153.0321 226.4052,149.9648 225.3746,146.6849 224.3113,143.1923 223.2153,139.487 222.0865,135.5691 220.925,131.4385 219.7308,127.0953 218.5039,122.5394"/>
    <polyline points="227.3622,163.878 227.0309,163.3177 226.6588,162.5693 226.2457,161.6327 225.7918,160.508 225.2969,159.1953 224.7612,157.6943 224.1845,156.0053 223.567,154.1281 222.9085,152.0628 222.2092,149.8094 221.469,147.3679 220.6878,144.7382 219.8658,141.9204 219.0029,138.9145 218.0991,135.7204 217.1543,132.3383 216.1687,128.768 215.1422,125.0095 214.0748,121.063"/>
    <line x1="217.0276" x2="208.1693" y1="159.4488" y2="159.4488"/>
    <line x1="224.4094" x2="208.1693" y1="165.3543" y2="150.5906"/>
    <line x1="224.4094" x2="217.0276" y1="162.4016" y2="150.5906"/>
    <polyline points="228.8386,162.4016 228.5237,161.0929 228.2006,159.6533 227.8693,158.0829 227.5299,156.3816 227.1823,154.5494 226.8265,152.5863 226.4625,150.4924 226.0903,148.2676 225.71,145.9119 225.3214,143.4254 224.9247,140.808 224.5199,138.0597 224.1068,135.1806 223.6856,132.1706 223.2562,129.0297 222.8186,125.758 222.3728,122.3553 221.9188,118.8218 221.4567,115.1575"/>
    <polyline points="233.2677,149.1142 233.9957,148.8647 234.6255,148.4271 235.1572,147.8014 235.5907,146.9875 235.926,145.9856 236.1632,144.7955 236.3023,143.4172 236.3432,141.8509 236.2859,140.0964 236.1305,138.1538 235.8769,136.0231 235.5252,133.7042 235.0754,131.1972 234.5273,128.5021 233.8812,125.6189 233.1368,122.5475 232.2944,119.2881 231.3537,115.8405 230.315,112.2047"/>
    <line x1="248.0315" x2="250.9843" y1="141.7323" y2="141.7323"/>
    <line x1="245.0787" x2="250.9843" y1="156.4961" y2="286.4173"/>
    <polyline points="245.0787,230.315 245.6349,236.3841 246.0603,241.5371 246.3547,245.774 246.5183,249.0948 246.551,251.4996 246.4529,252.9882 246.2239,253.5608 245.864,253.2172 245.3732,251.9576 244.7516,249.7819 243.9991,246.6901 243.1157,242.6822 242.1014,237.7582 240.9563,231.9181 239.6803,225.162 238.2735,217.4897 236.7358,208.9013 235.0672,199.3969 233.2677,188.9764"/>
    <polyline points="253.937,295.2756 254.3337,295.2756 254.5914,294.654 254.71,293.4107 254.6895,291.5458 254.53,289.0593 254.2315,285.9511 253.7939,282.2213 253.2172,277.8699 252.5015,272.8968 251.6468,267.3021 250.653,261.0858 249.5201,254.2478 248.2482,246.7882 246.8373,238.707 245.2873,230.0041 243.5983,220.6797 241.7702,210.7335 239.803,200.1658 237.6969,188.9764"/>
    <line x1="264.2717" x2="273.1299" y1="298.2283" y2="298.2283"/>
    <line x1="256.8898" x2="273.1299" y1="236.2205" y2="307.0866"/>
    <line x1="256.8898" x2="264.2717" y1="239.1732" y2="307.0866"/>
    <polyline points="252.4606,239.1732 252.841,245.8231 253.0495,251.475 253.0864,256.1291 252.9514,259.7853 252.6447,262.4436 252.1662,264.104 251.5159,264.7665 250.6939,264.4312 249.7001,263.0979 248.5345,260.7668 247.1972,257.4378 245.6881,253.1109 244.0072,247.7861 242.1546,241.4635 240.1302,234.1429 237.9341,225.8245 235.5661,216.5082 233.0264,206.194 230.315,194.8819"/>
    <polyline points="249.5079,310.0394 248.694,309.8758 247.8066,309.0742 246.8455,307.6346 245.8108,305.5571 244.7025,302.8415 243.5206,299.488 242.265,295.4964 240.9359,290.8669 239.5331,285.5994 238.0567,279.6939 236.5068,273.1504 234.8831,265.9689 233.1859,258.1494 231.4151,249.6919 229.5706,240.5964 227.6526,230.863 225.6609,220.4915 223.5956,209.4821 221.4567,197.8346"/>
    <line x1="233.2677" x2="230.315" y1="315.9449" y2="315.9449"/>
    <line x1="236.2205" x2="230.315" y1="245.0787" y2="284.9409"/>
    <polyline points="236.2205,228.8386 234.8218,235.9587 233.4231,242.0892 232.0245,247.2299 230.6258,251.381 229.2271,254.5423 227.8284,256.7139 226.4298,257.8958 225.0311,258.088 223.6324,257.2906 222.2337,255.5034 220.8351,252.7265 219.4364,248.9599 218.0377,244.2035 216.639,238.4575 215.2404,231.7218 213.8417,223.9964 212.443,215.2813 211.0443,205.5764 209.6457,194.8819"/>
    <polyline points="208.1693,310.0394 206.652,310.4688 205.2084,310.203 203.8383,309.2419 202.5419,307.5856 201.3191,305.234 200.1699,302.1872 199.0943,298.4451 198.0923,294.0078 197.1639,288.8752 196.3092,283.0474 195.5281,276.5244 194.8205,269.3061 194.1866,261.3925 193.6264,252.7837 193.1397,243.4797 192.7266,233.4804 192.3872,222.7858 192.1213,211.3961 191.9291,199.311"/>
    <polyline points="174.2126,317.4213 171.8569,317.0736 169.763,316.0308 167.9308,314.2926 166.3604,311.8593 165.0517,308.7307 164.0047,304.9068 163.2195,300.3877 162.696,295.1733 162.4343,289.2637 162.4343,282.6589 162.696,275.3588 163.2195,267.3635 164.0047,258.6729 165.0517,249.287 166.3604,239.2059 167.9308,228.4296 169.763,216.958 171.8569,204.7912 174.2126,191.9291"/>
    <polyline points="138.7795,304.1339 137.6835,302.4407 136.8819,300.1587 136.3748,297.2877 136.1621,293.8278 136.2439,289.779 136.6202,285.1413 137.2909,279.9147 138.256,274.0992 139.5157,267.6947 141.0698,260.7014 142.9183,253.1191 145.0613,244.9479 147.4987,236.1878 150.2307,226.8387 153.257,216.9008 156.5779,206.3739 160.1931,195.2581 164.1029,183.5534 168.3071,171.2598"/>
    <line x1="126.9685" x2="126.9685" y1="261.3189" y2="172.7362"/>
    <polyline points="183.0709,172.7362 177.4353,172.0083 172.3395,171.0676 167.7836,169.9143 163.7675,168.5484 160.2913,166.9698 157.3549,165.1785 154.9583,163.1745 153.1016,160.9579 151.7847,158.5286 151.0077,155.8867 150.7705,153.0321 151.0731,149.9648 151.9156,146.6849 153.2979,143.1923 155.2201,139.487 157.6821,135.5691 160.6839,131.4385 164.2256,127.0953 168.3071,122.5394"/>
    <polyline points="124.0157,163.878 123.8276,163.3177 123.8849,162.5693 124.1875,161.6327 124.7355,160.508 125.5289,159.1953 126.5677,157.6943 127.8519,156.0053 129.3814,154.1281 131.1563,152.0628 133.1767,149.8094 135.4423,147.3679 137.9534,144.7382 140.7099,141.9204 143.7117,138.9145 146.9589,135.7204 150.4515,132.3383 154.1895,128.768 158.1728,125.0095 162.4016,121.063"/>
    <line x1="113.6811" x2="104.8228" y1="159.4488" y2="159.4488"/>
    <line x1="172.7362" x2="104.8228" y1="165.3543" y2="150.5906"/>
    <line x1="172.7362" x2="113.6811" y1="162.4016" y2="150.5906"/>
    <polyline points="177.1654,162.4016 171.7015,161.0929 166.8103,159.6533 162.4915,158.0829 158.7454,156.3816 155.5718,154.5494 152.9708,152.5863 150.9423,150.4924 149.4863,148.2676 148.603,145.9119 148.2921,143.4254 148.5539,140.808 149.3882,138.0597 150.795,135.1806 152.7744,132.1706 155.3264,129.0297 158.4509,125.758 162.148,122.3553 166.4177,118.8218 171.2598,115.1575"/>
    <polyline points="129.9213,149.1142 130.7883,148.8647 131.8352,148.4271 133.0621,147.8014 134.469,146.9875 136.0558,145.9856 137.8225,144.7955 139.7692,143.4172 141.8959,141.8509 144.2025,140.0964 146.689,138.1538 149.3555,136.0231 152.2019,133.7042 155.2283,131.1972 158.4346,128.5021 161.8208,125.6189 165.387,122.5475 169.1332,119.2881 173.0593,115.8405 177.1654,112.2047"/>
    <line x1="144.685" x2="147.6378" y1="141.7323" y2="141.7323"/>
    <line x1="194.8819" x2="147.6378" y1="156.4961" y2="264.2717"/>
    <polyline points="194.8819,218.5039 190.1378,225.0434 185.8519,230.6749 182.0239,235.3984 178.654,239.2141 175.7421,242.1219 173.2883,244.1218 171.2926,245.2137 169.7548,245.3977 168.6752,244.6739 168.0535,243.0421 167.8899,240.5024 168.1844,237.0548 168.9369,232.6992 170.1474,227.4358 171.816,221.2645 173.9427,214.1852 176.5274,206.1981 179.5701,197.303 183.0709,187.5"/>
    <polyline points="156.4961,293.7992 157.4899,294.4004 158.6063,294.3391 159.8455,293.6152 161.2074,292.2288 162.6919,290.1798 164.2992,287.4684 166.0291,284.0944 167.8818,280.0579 169.8571,275.3588 171.9551,269.9972 174.1758,263.9731 176.5192,257.2865 178.9853,249.9373 181.574,241.9256 184.2855,233.2514 187.1197,223.9146 190.0765,213.9153 193.156,203.2535 196.3583,191.9291"/>
  </g>
  <g fill="none" id="layer3" inkscape:groupmode="layer" inkscape:label="3" stroke="#ff0000" style="display:inline">
    <polyline points="181.5945,302.6575 183.443,302.6329 185.2589,302.5593 187.042,302.4366 188.7923,302.2649 190.51,302.044 192.195,301.7741 193.8472,301.4551 195.4667,301.087 197.0535,300.6699 198.6076,300.2037 200.129,299.6884 201.6176,299.124 203.0735,298.5105 204.4968,297.848 205.8872,297.1364 207.245,296.3757 208.5701,295.566 209.8624,294.7071 211.122,293.7992"/>
    <polyline points="211.122,293.7992 212.5003,292.8381 213.8376,291.8198 215.134,290.7442 216.3896,289.6114 217.6042,288.4213 218.7779,287.1739 219.9108,285.8693 221.0027,284.5074 222.0538,283.0883 223.0639,281.6119 224.0332,280.0783 224.9616,278.4874 225.849,276.8393 226.6956,275.1339 227.5013,273.3712 228.266,271.5513 228.9899,269.6741 229.6729,267.7397 230.315,265.748"/>
    <line x1="230.315" x2="230.315" y1="265.748" y2="172.7362"/>
    <polyline points="230.315,172.7362 230.3068,172.1228 230.2822,171.5257 230.2413,170.9449 230.1841,170.3806 230.1105,169.8325 230.0205,169.3009 229.9142,168.7856 229.7915,168.2866 229.6524,167.8041 229.497,167.3378 229.3253,166.888 229.1371,166.4545 228.9326,166.0373 228.7118,165.6365 228.4746,165.2521 228.221,164.884 227.9511,164.5323 227.6648,164.1969 227.3622,163.878"/>
    <polyline points="227.3622,163.878 227.0391,163.424 226.6915,162.9946 226.3193,162.5897 225.9226,162.2094 225.5014,161.8536 225.0556,161.5223 224.5853,161.2156 224.0905,160.9334 223.5711,160.6757 223.0271,160.4426 222.4587,160.234 221.8657,160.05 221.2481,159.8905 220.606,159.7555 219.9394,159.6451 219.2483,159.5592 218.5326,159.4979 217.7923,159.4611 217.0276,159.4488"/>
    <line x1="217.0276" x2="208.1693" y1="159.4488" y2="159.4488"/>
    <line x1="208.1693" x2="208.1693" y1="159.4488" y2="150.5906"/>
    <line x1="208.1693" x2="217.0276" y1="150.5906" y2="150.5906"/>
    <polyline points="217.0276,150.5906 217.9559,150.5865 218.8761,150.5742 219.7881,150.5537 220.6919,150.5251 221.5876,150.4883 222.475,150.4433 223.3543,150.3902 224.2254,150.3288 225.0883,150.2593 225.9431,150.1816 226.7896,150.0957 227.628,150.0016 228.4582,149.8994 229.2803,149.789 230.0941,149.6704 230.8998,149.5436 231.6973,149.4086 232.4866,149.2655 233.2677,149.1142"/>
    <polyline points="233.2677,149.1142 234.0448,148.9465 234.8218,148.7543 235.5988,148.5375 236.3759,148.2962 237.1529,148.0304 237.93,147.74 238.707,147.4251 239.484,147.0857 240.2611,146.7217 241.0381,146.3332 241.8152,145.9201 242.5922,145.4825 243.3692,145.0204 244.1463,144.5337 244.9233,144.0225 245.7004,143.4868 246.4774,142.9265 247.2545,142.3416 248.0315,141.7323"/>
    <line x1="248.0315" x2="250.9843" y1="141.7323" y2="141.7323"/>
    <line x1="250.9843" x2="250.9843" y1="141.7323" y2="286.4173"/>
    <polyline points="250.9843,286.4173 250.9924,287.0308 251.017,287.6279 251.0579,288.2086 251.1151,288.773 251.1887,289.321 251.2787,289.8527 251.385,290.368 251.5077,290.8669 251.6468,291.3495 251.8022,291.8157 251.974,292.2656 252.1621,292.6991 252.3666,293.1162 252.5874,293.517 252.8246,293.9015 253.0782,294.2695 253.3481,294.6212 253.6344,294.9566 253.937,295.2756"/>
    <polyline points="253.937,295.2756 254.4073,295.5782 254.8858,295.8645 255.3725,296.1344 255.8673,296.388 256.3704,296.6252 256.8816,296.846 257.401,297.0505 257.9285,297.2386 258.4643,297.4104 259.0082,297.5658 259.5603,297.7049 260.1206,297.8276 260.6891,297.9339 261.2657,298.0239 261.8506,298.0975 262.4436,298.1547 263.0447,298.1956 263.6541,298.2202 264.2717,298.2283"/>
    <line x1="264.2717" x2="273.1299" y1="298.2283" y2="298.2283"/>
    <line x1="273.1299" x2="273.1299" y1="298.2283" y2="307.0866"/>
    <line x1="273.1299" x2="264.2717" y1="307.0866" y2="307.0866"/>
    <polyline points="264.2717,307.0866 263.4946,307.0948 262.7176,307.1193 261.9405,307.1602 261.1635,307.2175 260.3864,307.2911 259.6094,307.3811 258.8324,307.4874 258.0553,307.6101 257.2783,307.7491 256.5012,307.9046 255.7242,308.0763 254.9472,308.2644 254.1701,308.4689 253.3931,308.6898 252.616,308.927 251.839,309.1805 251.062,309.4505 250.2849,309.7367 249.5079,310.0394"/>
    <polyline points="249.5079,310.0394 248.7267,310.203 247.9374,310.3829 247.1399,310.5792 246.3343,310.7919 245.5204,311.0209 244.6984,311.2663 243.8682,311.528 243.0298,311.8061 242.1832,312.1006 241.3285,312.4114 240.4656,312.7386 239.5945,313.0821 238.7152,313.442 237.8277,313.8182 236.9321,314.2109 236.0283,314.6198 235.1163,315.0452 234.1961,315.4868 233.2677,315.9449"/>
    <line x1="233.2677" x2="230.315" y1="315.9449" y2="315.9449"/>
    <line x1="230.315" x2="230.315" y1="315.9449" y2="284.9409"/>
    <polyline points="230.315,284.9409 229.5175,286.63 228.6791,288.2781 227.7998,289.8854 226.8796,291.4517 225.9185,292.9772 224.9166,294.4617 223.8737,295.9054 222.7899,297.3082 221.6653,298.67 220.4997,299.991 219.2932,301.2711 218.0459,302.5103 216.7576,303.7085 215.4285,304.8659 214.0584,305.9824 212.6475,307.058 211.1957,308.0927 209.7029,309.0865 208.1693,310.0394"/>
    <polyline points="208.1693,310.0394 206.6029,310.796 205.0121,311.5117 203.3966,312.1865 201.7567,312.8204 200.0922,313.4134 198.4031,313.9655 196.6895,314.4767 194.9514,314.947 193.1888,315.3764 191.4016,315.7649 189.5898,316.1126 187.7536,316.4193 185.8928,316.6851 184.0074,316.91 182.0975,317.0941 180.1631,317.2372 178.2041,317.3395 176.2206,317.4008 174.2126,317.4213"/>
    <polyline points="174.2126,317.4213 171.7588,317.3845 169.3704,317.274 167.0475,317.09 164.79,316.8323 162.5979,316.5011 160.4712,316.0962 158.41,315.6177 156.4143,315.0656 154.4839,314.4399 152.619,313.7405 150.8196,312.9676 149.0855,312.121 147.417,311.2008 145.8138,310.207 144.2761,309.1396 142.8038,307.9986 141.3969,306.784 140.0555,305.4957 138.7795,304.1339"/>
    <polyline points="138.7795,304.1339 137.569,302.6902 136.4239,301.1566 135.3442,299.533 134.3299,297.8194 133.3811,296.0158 132.4978,294.1223 131.6798,292.1388 130.9273,290.0653 130.2403,287.9019 129.6186,285.6485 129.0624,283.3051 128.5717,280.8717 128.1463,278.3484 127.7864,275.7351 127.492,273.0318 127.263,270.2385 127.0994,267.3553 127.0012,264.3821 126.9685,261.3189"/>
    <line x1="126.9685" x2="126.9685" y1="261.3189" y2="172.7362"/>
    <polyline points="126.9685,172.7362 126.9603,172.1228 126.9358,171.5257 126.8949,170.9449 126.8376,170.3806 126.764,169.8325 126.674,169.3009 126.5677,168.7856 126.445,168.2866 126.306,167.8041 126.1506,167.3378 125.9788,166.888 125.7907,166.4545 125.5862,166.0373 125.3653,165.6365 125.1281,165.2521 124.8746,164.884 124.6047,164.5323 124.3184,164.1969 124.0157,163.878"/>
    <polyline points="124.0157,163.878 123.6927,163.424 123.345,162.9946 122.9729,162.5897 122.5762,162.2094 122.1549,161.8536 121.7092,161.5223 121.2388,161.2156 120.744,160.9334 120.2246,160.6757 119.6807,160.4426 119.1122,160.234 118.5192,160.05 117.9017,159.8905 117.2596,159.7555 116.593,159.6451 115.9018,159.5592 115.1861,159.4979 114.4459,159.4611 113.6811,159.4488"/>
    <line x1="113.6811" x2="104.8228" y1="159.4488" y2="159.4488"/>
    <line x1="104.8228" x2="104.8228" y1="159.4488" y2="150.5906"/>
    <line x1="104.8228" x2="113.6811" y1="150.5906" y2="150.5906"/>
    <polyline points="113.6811,150.5906 114.6095,150.5865 115.5296,150.5742 116.4416,150.5537 117.3455,150.5251 118.2411,150.4883 119.1286,150.4433 120.0079,150.3902 120.879,150.3288 121.7419,150.2593 122.5966,150.1816 123.4432,150.0957 124.2816,150.0016 125.1118,149.8994 125.9338,149.789 126.7477,149.6704 127.5533,149.5436 128.3508,149.4086 129.1401,149.2655 129.9213,149.1142"/>
    <polyline points="129.9213,149.1142 130.6983,148.9465 131.4753,148.7543 132.2524,148.5375 133.0294,148.2962 133.8065,148.0304 134.5835,147.74 135.3605,147.4251 136.1376,147.0857 136.9146,146.7217 137.6917,146.3332 138.4687,145.9201 139.2458,145.4825 140.0228,145.0204 140.7998,144.5337 141.5769,144.0225 142.3539,143.4868 143.131,142.9265 143.908,142.3416 144.685,141.7323"/>
    <line x1="144.685" x2="147.6378" y1="141.7323" y2="141.7323"/>
    <line x1="147.6378" x2="147.6378" y1="141.7323" y2="264.2717"/>
    <polyline points="147.6378,264.2717 147.6623,266.4147 147.7359,268.4922 147.8586,270.5043 148.0304,272.451 148.2512,274.3323 148.5212,276.1481 148.8402,277.8985 149.2082,279.5835 149.6254,281.203 150.0916,282.7571 150.6069,284.2457 151.1713,285.6689 151.7847,287.0267 152.4473,288.319 153.1589,289.5459 153.9196,290.7074 154.7293,291.8034 155.5882,292.834 156.4961,293.7992"/>
    <polyline points="156.4961,293.7992 157.449,294.7071 158.4428,295.566 159.4774,296.3757 160.553,297.1364 161.6695,297.848 162.8269,298.5105 164.0252,299.124 165.2644,299.6884 166.5444,300.2037 167.8654,300.6699 169.2273,301.087 170.63,301.4551 172.0737,301.7741 173.5582,302.044 175.0837,302.2649 176.6501,302.4366 178.2573,302.5593 179.9054,302.6329 181.5945,302.6575"/>
  </g>
</svg>
