<?xml version="1.0" encoding="utf-8" ?>
<svg xmlns="http://www.w3.org/2000/svg" xmlns:cc="http://creativecommons.org/ns" xmlns:dc="http://purl.org/dc/elements/1.1/" xmlns:ev="http://www.w3.org/2001/xml-events" xmlns:inkscape="http://www.inkscape.org/namespaces/inkscape" xmlns:rdf="http://www.w3.org/1999/02/22-rdf-syntax-ns" xmlns:sodipodi="http://sodipodi.sourceforge.net/DTD/sodipodi-0.dtd" xmlns:xlink="http://www.w3.org/1999/xlink" baseProfile="tiny" height="10.0cm" version="1.2" viewBox="0 0 377.9527559055118 377.9527559055118" width="10.0cm">
  <metadata>
    <rdf:RDF>
      <cc:Work>
        <dc:format>image/svg+xml</dc:format>
        <dc:source>Generated with vsketch</dc:source>
        <dc:date>2023-04-30T18:40:00.484483</dc:date>
      </cc:Work>
    </rdf:RDF>
  </metadata>
  <defs/>
  <g fill="none" id="layer1" inkscape:groupmode="layer" inkscape:label="1" stroke="#0000ff" style="display:inline">
    <line x1="310.0394" x2="329.2323" y1="43.9233" y2="58.687"/>
    <line x1="329.2323" x2="315.9449" y1="58.687" y2="73.4508"/>
    <line x1="315.9449" x2="304.1339" y1="73.4508" y2="224.0414"/>
    <line x1="304.1339" x2="318.8976" y1="224.0414" y2="235.8524"/>
    <line x1="318.8976" x2="191.9291" y1="235.8524" y2="246.187"/>
    <polyline points="191.9291,246.187 191.9169,248.6041 191.8801,250.882 191.8187,253.0209 191.7328,255.0208 191.6224,256.8816 191.4874,258.6033 191.3279,260.1861 191.1439,261.6297 190.9353,262.9343 190.7022,264.0999 190.4446,265.1264 190.1624,266.0139 189.8557,266.7623 189.5244,267.3716 189.1686,267.842 188.7883,268.1732 188.3834,268.3654 187.954,268.4186 187.5,268.3327"/>
    <line x1="187.5" x2="172.7362" y1="268.3327" y2="247.6634"/>
    <polyline points="172.7362,247.6634 173.3374,246.5347 173.8977,245.3241 174.4171,244.0318 174.8956,242.6576 175.3332,241.2017 175.7299,239.664 176.0857,238.0445 176.4006,236.3432 176.6746,234.5601 176.9077,232.6952 177.0999,230.7485 177.2512,228.72 177.3617,226.6097 177.4312,224.4176 177.4598,222.1438 177.4475,219.7881 177.3944,217.3506 177.3003,214.8314 177.1654,212.2304"/>
    <line x1="177.1654" x2="174.2126" y1="212.2304" y2="97.0729"/>
    <polyline points="174.2126,97.0729 174.2003,94.435 174.1635,91.8054 174.1022,89.1839 174.0163,86.5705 173.9059,83.9654 173.7709,81.3685 173.6114,78.7797 173.4274,76.1991 173.2188,73.6267 172.9857,71.0624 172.728,68.5064 172.4459,65.9585 172.1391,63.4188 171.8079,60.8873 171.4521,58.364 171.0717,55.8488 170.6668,53.3418 170.2374,50.843 169.7835,48.3524"/>
    <line x1="169.7835" x2="175.689" y1="48.3524" y2="45.3996"/>
    <line x1="175.689" x2="186.0236" y1="45.3996" y2="73.4508"/>
    <line x1="186.0236" x2="301.1811" y1="73.4508" y2="61.6398"/>
    <line x1="301.1811" x2="310.0394" y1="61.6398" y2="43.9233"/>
    <polyline points="190.4528,151.6989 198.1904,150.6314 205.5519,149.6049 212.5371,148.6193 219.146,147.6746 225.3787,146.7708 231.2351,145.9079 236.7153,145.0858 241.8193,144.3047 246.5469,143.5645 250.8984,142.8651 254.8735,142.2067 258.4725,141.5891 261.6951,141.0125 264.5416,140.4767 267.0117,139.9819 269.1057,139.5279 270.8233,139.1149 272.1648,138.7427 273.1299,138.4115"/>
    <line x1="273.1299" x2="289.3701" y1="138.4115" y2="154.6516"/>
    <polyline points="289.3701,154.6516 285.7098,154.9788 281.8778,155.3387 277.874,155.7313 273.6984,156.1566 269.351,156.6147 264.8319,157.1054 260.1411,157.6289 255.2784,158.1851 250.244,158.774 245.0378,159.3957 239.6599,160.05 234.1102,160.7371 228.3887,161.4569 222.4955,162.2094 216.4305,162.9946 210.1937,163.8125 203.7851,164.6632 197.2048,165.5465 190.4528,166.4626"/>
    <line x1="190.4528" x2="191.9291" y1="166.4626" y2="232.8996"/>
    <line x1="191.9291" x2="289.3701" y1="232.8996" y2="224.0414"/>
    <line x1="289.3701" x2="301.1811" y1="224.0414" y2="76.4036"/>
    <line x1="301.1811" x2="188.9764" y1="76.4036" y2="88.2146"/>
    <line x1="188.9764" x2="190.4528" y1="88.2146" y2="151.6989"/>
    <polyline points="100.3937,122.1713 97.126,126.9562 93.8502,131.6757 90.5662,136.3298 87.274,140.9184 83.9736,145.4416 80.665,149.8994 77.3483,154.2917 74.0234,158.6186 70.6903,162.8801 67.349,167.0761 63.9996,171.2067 60.6419,175.2718 57.2761,179.2715 53.9021,183.2058 50.5199,187.0747 47.1296,190.8781 43.7311,194.6161 40.3243,198.2886 36.9094,201.8957"/>
    <line x1="36.9094" x2="32.4803" y1="201.8957" y2="197.4666"/>
    <polyline points="32.4803,197.4666 36.5046,192.1582 40.4961,186.8007 44.4549,181.3941 48.381,175.9384 52.2744,170.4337 56.1351,164.8799 59.963,159.2771 63.7583,153.6251 67.5208,147.9241 71.2506,142.174 74.9477,136.3748 78.612,130.5265 82.2437,124.6292 85.8426,118.6828 89.4088,112.6873 92.9423,106.6427 96.4431,100.5491 99.9111,94.4064 103.3465,88.2146"/>
    <polyline points="103.3465,88.2146 106.6509,82.1332 109.7264,76.3218 112.5728,70.7803 115.1902,65.5086 117.5786,60.507 119.7379,55.7752 121.6683,51.3133 123.3696,47.1214 124.8419,43.1994 126.0851,39.5473 127.0994,36.1651 127.8846,33.0529 128.4408,30.2105 128.768,27.6381 128.8661,25.3356 128.7352,23.3031 128.3754,21.5404 127.7864,20.0477 126.9685,18.8248"/>
    <line x1="126.9685" x2="131.3976" y1="18.8248" y2="15.8721"/>
    <line x1="131.3976" x2="150.5906" y1="15.8721" y2="45.3996"/>
    <polyline points="150.5906,45.3996 149.9566,45.1461 149.2982,45.007 148.6152,44.9825 147.9077,45.0725 147.1757,45.277 146.4191,45.5959 145.6379,46.0295 144.8323,46.5775 144.0021,47.24 143.1473,48.017 142.268,48.9086 141.3642,49.9147 140.4359,51.0352 139.483,52.2703 138.5055,53.6199 137.5035,55.084 136.477,56.6626 135.426,58.3558 134.3504,60.1634"/>
    <polyline points="134.3504,60.1634 133.2625,62.0365 132.1747,63.9259 131.0868,65.8317 129.999,67.7539 128.9111,69.6924 127.8232,71.6473 126.7354,73.6185 125.6475,75.6061 124.5597,77.61 123.4718,79.6303 122.384,81.667 121.2961,83.72 120.2082,85.7894 119.1204,87.8752 118.0325,89.9773 116.9447,92.0957 115.8568,94.2305 114.769,96.3817 113.6811,98.5493"/>
    <line x1="113.6811" x2="110.7283" y1="98.5493" y2="340.6752"/>
    <polyline points="110.7283,340.6752 110.712,343.5257 110.6629,346.1718 110.5811,348.6133 110.4666,350.8504 110.3194,352.883 110.1394,354.711 109.9268,356.3347 109.6814,357.7538 109.4033,358.9684 109.0925,359.9786 108.7489,360.7842 108.3727,361.3854 107.9637,361.7821 107.522,361.9743 107.0476,361.9621 106.5405,361.7453 106.0007,361.3241 105.4281,360.6984 104.8228,359.8681"/>
    <line x1="104.8228" x2="90.0591" y1="359.8681" y2="331.817"/>
    <polyline points="90.0591,331.817 90.8156,331.4489 91.5313,330.9663 92.2061,330.3692 92.84,329.6576 93.433,328.8315 93.9852,327.8909 94.4964,326.8357 94.9667,325.6661 95.3961,324.3819 95.7846,322.9832 96.1322,321.4701 96.439,319.8424 96.7048,318.1001 96.9297,316.2434 97.1138,314.2722 97.2569,312.1865 97.3592,309.9862 97.4205,307.6714 97.4409,305.2422"/>
    <line x1="97.4409" x2="100.3937" y1="305.2422" y2="122.1713"/>
    <polyline points="355.8071,318.5296 353.4473,318.3987 350.7195,318.3169 347.6236,318.2842 344.1597,318.3005 340.3276,318.366 336.1275,318.4805 331.5593,318.6441 326.6231,318.8567 321.3187,319.1185 315.6463,319.4293 309.6059,319.7892 303.1973,320.1982 296.4207,320.6562 289.276,321.1633 281.7633,321.7195 273.8824,322.3248 265.6335,322.9791 257.0165,323.6826 248.0315,324.4351"/>
    <polyline points="248.0315,324.4351 239.0546,325.0485 230.4622,325.6456 222.2542,326.2264 214.4306,326.7907 206.9915,327.3388 199.9367,327.8704 193.2665,328.3857 186.9806,328.8847 181.0792,329.3672 175.5622,329.8335 170.4296,330.2833 165.6815,330.7168 161.3178,331.134 157.3385,331.5348 153.7437,331.9192 150.5333,332.2873 147.7073,332.639 145.2658,332.9743 143.2087,333.2933"/>
    <line x1="143.2087" x2="125.4921" y1="333.2933" y2="318.5296"/>
    <polyline points="125.4921,318.5296 127.721,318.6604 130.367,318.7422 133.4302,318.7749 136.9105,318.7586 140.808,318.6932 145.1226,318.5786 149.8544,318.4151 155.0033,318.2024 160.5694,317.9407 166.5526,317.6298 172.953,317.2699 179.7705,316.861 187.0051,316.4029 194.657,315.8958 202.7259,315.3396 211.212,314.7343 220.1153,314.08 229.4357,313.3766 239.1732,312.6241"/>
    <polyline points="239.1732,312.6241 249.013,311.708 258.3293,310.8246 267.1222,309.9739 275.3915,309.156 283.1374,308.3708 290.3598,307.6183 297.0587,306.8985 303.2341,306.2114 308.8861,305.5571 314.0145,304.9354 318.6195,304.3465 322.701,303.7903 326.2591,303.2668 329.2936,302.7761 331.8047,302.318 333.7923,301.8927 335.2564,301.5001 336.197,301.1402 336.6142,300.813"/>
    <line x1="336.6142" x2="355.8071" y1="300.813" y2="318.5296"/>
  </g>
  <g fill="none" id="layer2" inkscape:groupmode="layer" inkscape:label="2" stroke="#008800" style="display:inline">
    <polyline points="245.0787,346.5807 245.2014,348.7483 245.5695,350.5886 246.183,352.1018 247.0418,353.2878 248.146,354.1467 249.4956,354.6783 251.0906,354.8828 252.9309,354.7601 255.0167,354.3103 257.3478,353.5332 259.9243,352.429 262.7462,350.9976 265.8135,349.239 269.1261,347.1533 272.6841,344.7404 276.4876,342.0003 280.5363,338.933 284.8305,335.5386 289.3701,331.817"/>
    <line x1="240.6496" x2="224.4094" y1="364.2973" y2="342.1516"/>
    <polyline points="118.1102,330.3406 130.0521,331.0195 141.6341,331.5021 152.8562,331.7883 163.7185,331.8783 174.2208,331.772 184.3632,331.4693 194.1457,330.9704 203.5684,330.2752 212.6311,329.3836 221.334,328.2957 229.677,327.0116 237.66,325.5311 245.2832,323.8543 252.5465,321.9813 259.4499,319.9119 265.9934,317.6462 272.177,315.1842 278.0007,312.5259 283.4646,309.6713"/>
    <line x1="231.7913" x2="231.7913" y1="318.5296" y2="271.2855"/>
    <line x1="122.5394" x2="159.4488" y1="294.9075" y2="277.191"/>
    <polyline points="85.6299,297.8603 90.055,302.5184 94.6272,306.8576 99.3467,310.8778 104.2135,314.5789 109.2274,317.9611 114.3886,321.0243 119.697,323.7685 125.1527,326.1936 130.7556,328.2998 136.5057,330.087 142.403,331.5552 148.4476,332.7044 154.6393,333.5346 160.9784,334.0458 167.4646,334.2381 174.0981,334.1113 180.8788,333.6655 187.8067,332.9007 194.8819,331.817"/>
    <line x1="53.1496" x2="48.7205" y1="364.2973" y2="358.3918"/>
    <polyline points="31.0039,337.7225 39.8254,337.882 48.8841,337.7388 58.1799,337.2931 67.713,336.5446 77.4833,335.4936 87.4907,334.1399 97.7354,332.4836 108.2173,330.5246 118.9364,328.263 129.8926,325.6988 141.0861,322.8319 152.5168,319.6624 164.1847,316.1903 176.0898,312.4155 188.2321,308.3381 200.6115,303.958 213.2282,299.2753 226.0821,294.29 239.1732,289.002"/>
    <polyline points="143.2087,277.191 135.5487,277.8249 129.042,278.4833 123.6886,279.1663 119.4885,279.8738 116.4416,280.6059 114.5481,281.3625 113.8079,282.1436 114.2209,282.9493 115.7873,283.7795 118.5069,284.6342 122.3799,285.5135 127.4061,286.4173 133.5856,287.3457 140.9184,288.2986 149.4045,289.276 159.0439,290.278 169.8366,291.3045 181.7826,292.3556 194.8819,293.4311"/>
    <line x1="51.6732" x2="31.0039" y1="286.0493" y2="272.7618"/>
    <polyline points="22.1457,296.3839 26.8774,293.9914 32.3699,291.7871 38.623,289.7709 45.6368,287.9428 53.4113,286.3028 61.9465,284.851 71.2424,283.5873 81.2989,282.5117 92.1162,281.6242 103.6941,280.9249 116.0327,280.4137 129.1319,280.0906 142.9919,279.9556 157.6125,280.0088 172.9939,280.2501 189.1359,280.6795 206.0386,281.297 223.7019,282.1027 242.126,283.0965"/>
    <polyline points="147.6378,265.38 148.6398,263.0284 150.0916,260.9467 151.9933,259.135 154.3449,257.5932 157.1463,256.3213 160.3976,255.3193 164.0988,254.5873 168.2498,254.1251 172.8507,253.9329 177.9015,254.0106 183.4021,254.3582 189.3526,254.9758 195.753,255.8633 202.6032,257.0206 209.9033,258.4479 217.6533,260.1452 225.8531,262.1123 234.5028,264.3494 243.6024,266.8563"/>
    <line x1="150.5906" x2="134.3504" y1="234.376" y2="235.8524"/>
    <polyline points="73.8189,277.191 80.297,274.8353 86.9877,272.7414 93.8911,270.9092 101.0072,269.3388 108.3359,268.0301 115.8773,266.9831 123.6313,266.1979 131.598,265.6744 139.7774,265.4127 148.1695,265.4127 156.7742,265.6744 165.5915,266.1979 174.6216,266.9831 183.8643,268.0301 193.3196,269.3388 202.9877,270.9092 212.8683,272.7414 222.9617,274.8353 233.2677,277.191"/>
    <polyline points="131.3976,253.5689 131.3649,253.6057 131.8884,253.7162 132.9681,253.9002 134.604,254.1579 136.796,254.4891 139.5443,254.894 142.8488,255.3725 146.7094,255.9246 151.1263,256.5503 156.0994,257.2497 161.6286,258.0226 167.7141,258.8692 174.3557,259.7894 181.5536,260.7831 189.3076,261.8506 197.6179,262.9916 206.4843,264.2062 215.907,265.4945 225.8858,266.8563"/>
    <polyline points="115.1575,232.8996 116.0613,232.233 117.5295,231.7872 119.5621,231.5623 122.159,231.5582 125.3204,231.775 129.0461,232.2126 133.3362,232.871 138.1906,233.7503 143.6095,234.8504 149.5927,236.1714 156.1403,237.7132 163.2522,239.4759 170.9286,241.4594 179.1693,243.6637 187.9744,246.0889 197.3439,248.7349 207.2777,251.6018 217.776,254.6895 228.8386,257.9981"/>
    <line x1="121.063" x2="119.5866" y1="213.7067" y2="151.6989"/>
    <polyline points="66.437,234.376 72.1748,224.299 78.199,215.2036 84.5093,207.0896 91.106,199.9572 97.989,193.8063 105.1582,188.6369 112.6137,184.4491 120.3555,181.2428 128.3835,179.018 136.6979,177.7747 145.2985,177.513 154.1854,178.2328 163.3586,179.9341 172.818,182.6169 182.5637,186.2813 192.5958,190.9272 202.914,196.5546 213.5186,203.1635 224.4094,210.754"/>
    <line x1="113.6811" x2="118.1102" y1="120.6949" y2="117.7422"/>
    <line x1="64.9606" x2="132.874" y1="218.1359" y2="132.5059"/>
    <line x1="73.8189" x2="252.4606" y1="225.5178" y2="119.2185"/>
    <line x1="132.874" x2="265.748" y1="219.6122" y2="105.9311"/>
    <line x1="138.7795" x2="284.9409" y1="212.2304" y2="125.1241"/>
    <line x1="149.1142" x2="273.1299" y1="222.565" y2="132.5059"/>
    <line x1="143.2087" x2="267.2244" y1="225.5178" y2="209.2776"/>
    <line x1="140.2559" x2="277.5591" y1="263.9036" y2="222.565"/>
    <line x1="144.685" x2="233.2677" y1="269.8091" y2="226.9941"/>
    <line x1="124.0157" x2="250.9843" y1="272.7618" y2="238.8052"/>
    <polyline points="132.874,278.6674 144.501,275.4242 155.7599,272.5328 166.6508,269.9931 177.1735,267.8051 187.3282,265.9689 197.1149,264.4843 206.5334,263.3515 215.5839,262.5703 224.2663,262.1409 232.5806,262.0632 240.5269,262.3372 248.1051,262.963 255.3152,263.9404 262.1573,265.2695 268.6313,266.9504 274.7372,268.983 280.475,271.3673 285.8448,274.1033 290.8465,277.191"/>
    <line x1="245.0787" x2="245.0787" y1="253.5689" y2="257.9981"/>
    <polyline points="129.9213,287.5256 149.7808,283.804 168.6424,280.4096 186.5062,277.3423 203.3721,274.6022 219.2401,272.1893 234.1102,270.1036 247.9824,268.345 260.8568,266.9136 272.7332,265.8094 283.6118,265.0323 293.4925,264.5825 302.3753,264.4598 310.2602,264.6643 317.1473,265.1959 323.0364,266.0548 327.9277,267.2408 331.8211,268.754 334.7166,270.5943 336.6142,272.7618"/>
    <line x1="336.6142" x2="354.3307" y1="244.7107" y2="260.9508"/>
    <polyline points="183.0709,290.4784 198.0923,287.5174 212.0749,284.851 225.0188,282.479 236.9239,280.4014 247.7902,278.6183 257.6177,277.1296 266.4065,275.9354 274.1564,275.0357 280.8676,274.4304 286.54,274.1196 291.1736,274.1033 294.7685,274.3814 297.3245,274.9539 298.8418,275.8209 299.3203,276.9824 298.76,278.4383 297.1609,280.1887 294.5231,282.2336 290.8465,284.5729"/>
    <line x1="245.0787" x2="245.0787" y1="269.8091" y2="346.5807"/>
    <polyline points="132.874,164.9863 142.1208,164.1233 151.2122,163.7103 160.1482,163.7471 168.9287,164.2338 177.5539,165.1703 186.0236,166.5567 194.338,168.393 202.4969,170.6791 210.5004,173.4151 218.3485,176.601 226.0412,180.2367 233.5785,184.3223 240.9604,188.8578 248.1869,193.8431 255.258,199.2783 262.1736,205.1634 268.9339,211.4983 275.5387,218.2831 281.9882,225.5178"/>
    <line x1="227.3622" x2="245.0787" y1="151.6989" y2="163.5099"/>
    <polyline points="129.9213,240.2815 139.1926,232.7688 148.0468,226.0821 156.4838,220.2216 164.5037,215.1872 172.1064,210.9789 179.292,207.5967 186.0604,205.0407 192.4117,203.3107 198.3459,202.4069 203.8628,202.3292 208.9627,203.0776 213.6454,204.6522 217.9109,207.0528 221.7593,210.2796 225.1906,214.3325 228.2047,219.2115 230.8016,224.9166 232.9814,231.4478 234.7441,238.8052"/>
    <line x1="132.874" x2="132.874" y1="176.7973" y2="194.5138"/>
    <polyline points="73.8189,256.5217 89.1184,249.1153 103.9354,242.4368 118.2697,236.4863 132.1215,231.2638 145.4907,226.7692 158.3773,223.0026 170.7813,219.964 182.7028,217.6533 194.1417,216.0706 205.0979,215.2158 215.5716,215.089 225.5627,215.6902 235.0713,217.0194 244.0972,219.0765 252.6406,221.8616 260.7014,225.3746 268.2795,229.6156 275.3752,234.5846 281.9882,240.2815"/>
    <line x1="227.3622" x2="245.0787" y1="181.2264" y2="193.0374"/>
    <polyline points="129.9213,255.0453 139.6384,249.0008 148.8974,243.6105 157.6984,238.8747 166.0414,234.7932 173.9263,231.366 181.3532,228.5932 188.322,226.4747 194.8328,225.0106 200.8856,224.2009 206.4802,224.0455 211.6169,224.5444 216.2955,225.6977 220.5161,227.5053 224.2786,229.9673 227.583,233.0837 230.4295,236.8544 232.8179,241.2794 234.7482,246.3588 236.2205,252.0926"/>
    <line x1="134.3504" x2="134.3504" y1="204.8485" y2="224.0414"/>
    <line x1="73.8189" x2="252.4606" y1="271.2855" y2="213.7067"/>
    <line x1="132.874" x2="259.8425" y1="266.8563" y2="131.0296"/>
    <line x1="135.8268" x2="132.874" y1="225.5178" y2="144.317"/>
    <line x1="73.8189" x2="132.874" y1="231.4233" y2="164.9863"/>
    <polyline points="296.752,120.6949 295.8809,119.4148 295.1325,118.6828 294.5067,118.4988 294.0037,118.8627 293.6234,119.7747 293.3657,121.2348 293.2307,123.2428 293.2185,125.7989 293.3289,128.9029 293.562,132.555 293.9178,136.7551 294.3963,141.5033 294.9975,146.7994 295.7214,152.6436 296.5679,159.0358 297.5372,165.976 298.6291,173.4642 299.8438,181.5004 301.1811,190.0847"/>
    <line x1="267.2244" x2="224.4094" y1="77.88" y2="82.3091"/>
    <polyline points="118.1102,200.4193 127.9378,190.4364 137.5281,181.6231 146.8812,173.9795 155.9971,167.5055 164.8758,162.2012 173.5174,158.0665 181.9217,155.1015 190.0888,153.3061 198.0187,152.6804 205.7114,153.2243 213.1669,154.9379 220.3852,157.8211 227.3663,161.874 234.1102,167.0965 240.6169,173.4887 246.8864,181.0506 252.9187,189.782 258.7138,199.6832 264.2717,210.754"/>
    <line x1="191.9291" x2="186.0236" y1="120.6949" y2="117.7422"/>
    <polyline points="100.3937,218.1359 111.9348,204.7748 123.2469,192.6653 134.3299,181.8072 145.184,172.2005 155.809,163.8452 166.205,156.7414 176.372,150.8891 186.3099,146.2882 196.0188,142.9387 205.4987,140.8407 214.7496,139.9942 223.7715,140.399 232.5643,142.0554 241.1281,144.9631 249.4629,149.1224 257.5687,154.533 265.4454,161.1951 273.0931,169.1087 280.5118,178.2737"/>
    <polyline points="225.8858,55.7343 227.5299,53.0719 229.3539,51.3011 231.3578,50.4218 233.5417,50.4341 235.9056,51.3379 238.4494,53.1332 241.1731,55.8202 244.0768,59.3987 247.1604,63.8687 250.424,69.2303 253.8675,75.4834 257.4909,82.6281 261.2944,90.6643 265.2777,99.5921 269.441,109.4115 273.7843,120.1224 278.3075,131.7248 283.0106,144.2188 287.8937,157.6044"/>
    <line x1="239.1732" x2="243.6024" y1="15.8721" y2="14.3957"/>
    <line x1="128.4449" x2="259.8425" y1="166.4626" y2="36.5414"/>
    <polyline points="135.8268,178.2737 147.8914,164.2747 159.5306,151.8052 170.7445,140.8653 181.5331,131.4549 191.8964,123.5741 201.8344,117.2228 211.347,112.401 220.4343,109.1088 229.0962,107.3462 237.3329,107.1131 245.1442,108.4095 252.5302,111.2355 259.4908,115.591 266.0261,121.4761 272.1361,128.8907 277.8208,137.8348 283.0801,148.3085 287.9141,160.3117 292.3228,173.8445"/>
    <polyline points="246.5551,46.876 246.2157,48.1438 246.1298,50.0823 246.2975,52.6916 246.7187,55.9715 247.3935,59.9221 248.3219,64.5435 249.5038,69.8355 250.9393,75.7983 252.6283,82.4318 254.5709,89.736 256.7671,97.7109 259.2168,106.3565 261.9201,115.6728 264.8769,125.6598 268.0873,136.3175 271.5513,147.646 275.2688,159.6451 279.2399,172.315 283.4646,185.6555"/>
    <polyline points="230.315,70.4981 239.435,69.6188 248.146,69.4675 256.4481,70.0441 264.3412,71.3487 271.8253,73.3813 278.9005,76.1418 285.5667,79.6303 291.8239,83.8468 297.6721,88.7913 303.1114,94.4637 308.1418,100.864 312.7631,107.9923 316.9755,115.8486 320.7789,124.4329 324.1733,133.7451 327.1588,143.7853 329.7353,154.5535 331.9029,166.0496 333.6614,178.2737"/>
    <line x1="329.2323" x2="348.4252" y1="54.2579" y2="67.5453"/>
    <polyline points="180.1181,193.0374 195.3399,180.6579 209.613,169.6281 222.9372,159.9478 235.3126,151.6171 246.7392,144.636 257.2169,139.0045 266.7459,134.7226 275.3261,131.7902 282.9574,130.2075 289.64,129.9744 295.3737,131.0909 300.1587,133.557 303.9948,137.3727 306.8821,142.538 308.8206,149.0528 309.8103,156.9173 309.8512,166.1314 308.9433,176.695 307.0866,188.6083"/>
    <polyline points="276.0827,76.4036 278.1234,78.0722 280.2051,80.2806 282.3276,83.0289 284.4911,86.317 286.6954,90.1449 288.9407,94.5127 291.2268,99.4204 293.5538,104.8678 295.9218,110.8551 298.3306,117.3823 300.7803,124.4493 303.2709,132.0561 305.8025,140.2027 308.3749,148.8892 310.9882,158.1156 313.6424,167.8818 316.3375,178.1878 319.0735,189.0336 321.8504,200.4193"/>
    <polyline points="305.6102,100.0256 305.3444,101.363 305.1685,103.1992 305.0827,105.5344 305.0868,108.3686 305.1808,111.7017 305.3649,115.5337 305.6389,119.8647 306.0028,124.6946 306.4568,130.0235 307.0007,135.8513 307.6346,142.1781 308.3585,149.0038 309.1724,156.3284 310.0762,164.152 311.07,172.4745 312.1537,181.2959 313.3275,190.6163 314.5912,200.4357 315.9449,210.754"/>
    <polyline points="166.8307,101.502 166.9084,103.1379 167.4523,105.2482 168.4625,107.8328 169.9389,110.8919 171.8815,114.4254 174.2903,118.4333 177.1654,122.9156 180.5066,127.8723 184.3141,133.3034 188.5879,139.2089 193.3278,145.5889 198.534,152.4432 204.2064,159.7719 210.345,167.575 216.9499,175.8526 224.0209,184.6045 231.5582,193.8308 239.5617,203.5316 248.0315,213.7067"/>
    <polyline points="160.9252,125.1241 160.2504,123.9871 160.0909,123.3737 160.4467,123.2837 161.3178,123.7172 162.7042,124.6742 164.6059,126.1547 167.0229,128.1586 169.9552,130.686 173.4028,133.7369 177.3657,137.3113 181.844,141.4092 186.8375,146.0305 192.3463,151.1754 198.3704,156.8437 204.9098,163.0355 211.9645,169.7507 219.5345,176.9895 227.6199,184.7517 236.2205,193.0374"/>
    <line x1="135.8268" x2="110.7283" y1="85.2618" y2="86.7382"/>
    <polyline points="62.0079,201.8957 65.6191,192.9802 69.6147,185.1934 73.9948,178.5354 78.7592,173.0061 83.9082,168.6056 89.4415,165.3339 95.3593,163.1909 101.6615,162.1766 108.3481,162.2912 115.4192,163.5344 122.8747,165.9064 130.7147,169.4072 138.939,174.0367 147.5478,179.795 156.541,186.6821 165.9187,194.6979 175.6808,203.8424 185.8273,214.1157 196.3583,225.5178"/>
    <line x1="56.1024" x2="51.6732" y1="148.7461" y2="145.7933"/>
    <polyline points="32.4803,231.4233 39.0484,218.0336 46.009,205.8382 53.3623,194.8369 61.1081,185.0298 69.2466,176.4169 77.7777,168.9982 86.7014,162.7737 96.0177,157.7434 105.7267,153.9073 115.8282,151.2653 126.3223,149.8176 137.2091,149.564 148.4885,150.5047 160.1604,152.6395 172.225,155.9685 184.6822,160.4917 197.532,166.2091 210.7744,173.1207 224.4094,181.2264"/>
    <polyline points="110.7283,61.6398 112.9777,58.2249 115.6851,55.7506 118.8505,54.217 122.4739,53.624 126.5554,53.9716 131.095,55.2599 136.0926,57.4888 141.5482,60.6583 147.4619,64.7684 153.8337,69.8192 160.6635,75.8106 167.9513,82.7426 175.6972,90.6153 183.9011,99.4285 192.563,109.1824 201.683,119.877 211.2611,131.5121 221.2972,144.0879 231.7913,157.6044"/>
    <line x1="126.9685" x2="131.3976" y1="14.3957" y2="12.9193"/>
    <line x1="72.3425" x2="146.1614" y1="166.4626" y2="39.4941"/>
    <polyline points="79.7244,178.2737 86.043,164.5732 92.566,152.3777 99.2936,141.6873 106.2256,132.5019 113.3621,124.8214 120.7031,118.646 128.2486,113.9756 135.9985,110.8101 143.953,109.1497 152.1119,108.9943 160.4753,110.3439 169.0432,113.1985 177.8156,117.5581 186.7925,123.4227 195.9738,130.7924 205.3597,139.667 214.95,150.0466 224.7448,161.9313 234.7441,175.3209"/>
    <polyline points="132.874,51.3052 132.5468,52.5689 132.8086,54.4951 133.6592,57.0839 135.0988,60.3352 137.1273,64.249 139.7447,68.8254 142.951,74.0643 146.7462,79.9657 151.1304,86.5297 156.1035,93.7561 161.6654,101.6451 167.8163,110.1967 174.5561,119.4108 181.8849,129.2874 189.8025,139.8265 198.309,151.0281 207.4045,162.8923 217.0889,175.4191 227.3622,188.6083"/>
    <polyline points="116.6339,76.4036 124.1139,75.6633 131.6348,75.6184 139.1967,76.2686 146.7994,77.6141 154.443,79.6549 162.1276,82.3909 169.853,85.8221 177.6193,89.9486 185.4265,94.7704 193.2746,100.2874 201.1637,106.4996 209.0936,113.4071 217.0644,121.0098 225.0761,129.3078 233.1287,138.301 241.2222,147.9895 249.3566,158.3732 257.5318,169.4522 265.748,181.2264"/>
    <line x1="194.8819" x2="211.122" y1="61.6398" y2="74.9272"/>
    <polyline points="112.2047,195.9902 120.8053,184.0565 129.2015,173.4315 137.3931,164.1152 145.3803,156.1075 153.163,149.4086 160.7412,144.0184 168.1149,139.9369 175.2841,137.1641 182.2488,135.7 189.0091,135.5446 195.5649,136.6979 201.9162,139.1599 208.063,142.9306 214.0053,148.01 219.7431,154.3981 225.2765,162.0948 230.6053,171.1003 235.7297,181.4145 240.6496,193.0374"/>
    <polyline points="144.685,83.7855 146.4518,85.1432 148.6439,87.0409 151.2613,89.4783 154.304,92.4556 157.772,95.9727 161.6654,100.0297 165.9841,104.6265 170.7282,109.7632 175.8976,115.4397 181.4922,121.656 187.5123,128.4122 193.9576,135.7082 200.8283,143.544 208.1243,151.9197 215.8456,160.8352 223.9923,170.2906 232.5643,180.2858 241.5616,190.8208 250.9843,201.8957"/>
    <polyline points="171.2598,247.6634 170.8877,248.3505 171.0145,249.1684 171.6402,250.1172 172.7648,251.1969 174.3885,252.4075 176.511,253.7489 179.1325,255.2212 182.2529,256.8243 185.8723,258.5584 189.9906,260.4233 194.6079,262.419 199.7241,264.5457 205.3392,266.8032 211.4533,269.1916 218.0663,271.7108 225.1783,274.3609 232.7892,277.1419 240.8991,280.0538 249.5079,283.0965"/>
    <line x1="162.4016" x2="231.7913" y1="265.38" y2="259.4744"/>
    <line x1="122.5394" x2="231.7913" y1="289.002" y2="247.6634"/>
    <polyline points="122.5394,283.0965 133.5774,278.332 144.3129,273.9847 154.7457,270.0545 164.8758,266.5414 174.7034,263.4455 184.2282,260.7668 193.4505,258.5052 202.3701,256.6607 210.9871,255.2334 219.3014,254.2233 227.3131,253.6303 235.0222,253.4544 242.4286,253.6957 249.5324,254.3542 256.3336,255.4297 262.8321,256.9225 269.028,258.8324 274.9212,261.1594 280.5118,263.9036"/>
    <line x1="225.8858" x2="160.9252" y1="226.9941" y2="232.8996"/>
    <line x1="87.1063" x2="171.2598" y1="275.7146" y2="247.6634"/>
  </g>
  <g fill="none" id="layer3" inkscape:groupmode="layer" inkscape:label="3" stroke="#ff0000" style="display:inline">
    <polyline points="245.0787,346.5807 245.0665,348.8383 245.0297,350.9485 244.9683,352.9116 244.8824,354.7274 244.772,356.396 244.6371,357.9174 244.4776,359.2915 244.2935,360.5184 244.0849,361.5981 243.8518,362.5305 243.5942,363.3158 243.312,363.9537 243.0053,364.4445 242.674,364.788 242.3182,364.9844 241.9379,365.0334 241.533,364.9353 241.1036,364.6899 240.6496,364.2973"/>
    <line x1="240.6496" x2="224.4094" y1="364.2973" y2="342.1516"/>
    <polyline points="224.4094,342.1516 225.3133,341.6445 226.1598,341.0556 226.9491,340.3849 227.6812,339.6324 228.356,338.7981 228.9735,337.882 229.5338,336.8841 230.0369,335.8044 230.4826,334.6429 230.8712,333.3997 231.2024,332.0746 231.4764,330.6678 231.6932,329.1791 231.8527,327.6087 231.9549,325.9564 231.9999,324.2224 231.9876,322.4066 231.9181,320.509 231.7913,318.5296"/>
    <line x1="231.7913" x2="231.7913" y1="318.5296" y2="271.2855"/>
    <line x1="231.7913" x2="159.4488" y1="271.2855" y2="277.191"/>
    <polyline points="159.4488,277.191 155.9153,284.0576 152.1528,290.6706 148.1613,297.0301 143.9407,303.136 139.4911,308.9883 134.8125,314.5871 129.9049,319.9323 124.7683,325.024 119.4026,329.8621 113.8079,334.4466 107.9842,338.7776 101.9314,342.855 95.6497,346.6789 89.1389,350.2492 82.3991,353.5659 75.4302,356.6291 68.2324,359.4387 60.8055,361.9948 53.1496,364.2973"/>
    <line x1="53.1496" x2="48.7205" y1="364.2973" y2="358.3918"/>
    <polyline points="48.7205,358.3918 55.4603,356.4001 62.0038,354.1549 68.351,351.6561 74.5019,348.9037 80.4565,345.8978 86.2147,342.6383 91.7767,339.1252 97.1424,335.3586 102.3118,331.3385 107.2848,327.0647 112.0616,322.5375 116.642,317.7566 121.0262,312.7222 125.214,307.4342 129.2056,301.8927 133.0008,296.0976 136.5997,290.049 140.0023,283.7468 143.2087,277.191"/>
    <polyline points="143.2087,277.191 135.152,277.8044 127.4552,278.4015 120.1183,278.9823 113.1413,279.5466 106.5241,280.0947 100.2669,280.6263 94.3696,281.1416 88.8321,281.6406 83.6546,282.1231 78.8369,282.5894 74.3792,283.0392 70.2813,283.4727 66.5433,283.8899 63.1653,284.2907 60.1471,284.6751 57.4888,285.0432 55.1904,285.3949 53.2518,285.7303 51.6732,286.0493"/>
    <line x1="51.6732" x2="31.0039" y1="286.0493" y2="272.7618"/>
    <polyline points="31.0039,272.7618 34.5661,272.7414 38.4145,272.6801 42.5491,272.5778 46.9701,272.4347 51.6773,272.2506 56.6708,272.0257 61.9506,271.7599 67.5167,271.4531 73.369,271.1055 79.5077,270.717 85.9326,270.2876 92.6437,269.8173 99.6412,269.3061 106.9249,268.754 114.495,268.1609 122.3512,267.527 130.4938,266.8522 138.9227,266.1366 147.6378,265.38"/>
    <polyline points="147.6378,265.38 148.3821,262.9384 149.061,260.5868 149.6745,258.3252 150.2225,256.1536 150.7051,254.072 151.1222,252.0803 151.4739,250.1786 151.7602,248.3669 151.981,246.6451 152.1365,245.0133 152.2264,243.4715 152.251,242.0197 152.2101,240.6578 152.1037,239.3859 151.932,238.204 151.6948,237.112 151.3921,236.1101 151.0241,235.1981 150.5906,234.376"/>
    <line x1="150.5906" x2="134.3504" y1="234.376" y2="235.8524"/>
    <polyline points="134.3504,235.8524 134.3422,237.6682 134.3177,239.3859 134.2768,241.0054 134.2195,242.5268 134.1459,243.95 134.0559,245.275 133.9496,246.502 133.8269,247.6307 133.6879,248.6613 133.5325,249.5938 133.3607,250.4281 133.1726,251.1642 132.9681,251.8022 132.7472,252.342 132.51,252.7837 132.2565,253.1272 131.9866,253.3726 131.7003,253.5199 131.3976,253.5689"/>
    <polyline points="131.3976,253.5689 131.0582,253.5117 130.6615,253.3399 130.2075,253.0536 129.6963,252.6528 129.1279,252.1375 128.5021,251.5077 127.8192,250.7634 127.0789,249.9046 126.2814,248.9312 125.4267,247.8434 124.5147,246.641 123.5454,245.3241 122.5189,243.8927 121.4352,242.3468 120.2941,240.6864 119.0959,238.9115 117.8403,237.0221 116.5275,235.0181 115.1575,232.8996"/>
    <polyline points="115.1575,232.8996 115.7628,232.1103 116.3353,231.2965 116.8751,230.4581 117.3823,229.5952 117.8567,228.7077 118.2984,227.7957 118.7073,226.8592 119.0836,225.8981 119.4271,224.9125 119.7379,223.9023 120.016,222.8676 120.2614,221.8084 120.4741,220.7246 120.654,219.6163 120.8013,218.4835 120.9158,217.3261 120.9976,216.1442 121.0466,214.9377 121.063,213.7067"/>
    <line x1="121.063" x2="119.5866" y1="213.7067" y2="151.6989"/>
    <polyline points="119.5866,151.6989 119.5703,149.8462 119.5212,148.0181 119.4394,146.2146 119.3249,144.4356 119.1776,142.6811 118.9977,140.9512 118.785,139.2458 118.5397,137.5649 118.2616,135.9086 117.9507,134.2768 117.6072,132.6695 117.231,131.0868 116.822,129.5286 116.3803,127.995 115.9059,126.4859 115.3988,125.0014 114.8589,123.5413 114.2864,122.1059 113.6811,120.6949"/>
    <line x1="113.6811" x2="118.1102" y1="120.6949" y2="117.7422"/>
    <line x1="118.1102" x2="132.874" y1="117.7422" y2="132.5059"/>
    <line x1="132.874" x2="252.4606" y1="132.5059" y2="119.2185"/>
    <line x1="252.4606" x2="265.748" y1="119.2185" y2="105.9311"/>
    <line x1="265.748" x2="284.9409" y1="105.9311" y2="125.1241"/>
    <line x1="284.9409" x2="273.1299" y1="125.1241" y2="132.5059"/>
    <line x1="273.1299" x2="267.2244" y1="132.5059" y2="209.2776"/>
    <line x1="267.2244" x2="277.5591" y1="209.2776" y2="222.565"/>
    <line x1="277.5591" x2="233.2677" y1="222.565" y2="226.9941"/>
    <line x1="233.2677" x2="250.9843" y1="226.9941" y2="238.8052"/>
    <polyline points="250.9843,238.8052 250.379,239.5822 249.8064,240.3592 249.2666,241.1363 248.7595,241.9133 248.2851,242.6904 247.8434,243.4674 247.4344,244.2444 247.0581,245.0215 246.7146,245.7985 246.4038,246.5756 246.1257,247.3526 245.8803,248.1296 245.6677,248.9067 245.4877,249.6837 245.3405,250.4608 245.226,251.2378 245.1442,252.0149 245.0951,252.7919 245.0787,253.5689"/>
    <line x1="245.0787" x2="245.0787" y1="253.5689" y2="257.9981"/>
    <polyline points="245.0787,257.9981 253.1354,257.2251 260.8322,256.4603 268.1691,255.7038 275.1461,254.9553 281.7633,254.2151 288.0205,253.4831 293.9178,252.7592 299.4553,252.0435 304.6328,251.336 309.4505,250.6366 313.9082,249.9455 318.0061,249.2625 321.7441,248.5877 325.1221,247.9211 328.1403,247.2626 330.7986,246.6124 333.097,245.9703 335.0356,245.3364 336.6142,244.7107"/>
    <line x1="336.6142" x2="354.3307" y1="244.7107" y2="260.9508"/>
    <polyline points="354.3307,260.9508 351.6724,260.9754 348.6706,261.049 345.3252,261.1717 341.6363,261.3434 337.6039,261.5643 333.2279,261.8342 328.5084,262.1532 323.4454,262.5213 318.0388,262.9384 312.2887,263.4046 306.1951,263.9199 299.7579,264.4843 292.9772,265.0978 285.8529,265.7603 278.3852,266.4719 270.5739,267.2326 262.419,268.0423 253.9206,268.9012 245.0787,269.8091"/>
    <line x1="245.0787" x2="245.0787" y1="269.8091" y2="346.5807"/>
    <polyline points="132.874,164.9863 141.9695,163.9188 150.6069,162.8923 158.7863,161.9067 166.5076,160.962 173.7709,160.0582 180.5762,159.1953 186.9234,158.3732 192.8125,157.5921 198.2436,156.8519 203.2167,156.1525 207.7317,155.4941 211.7887,154.8765 215.3876,154.2999 218.5285,153.7642 221.2113,153.2693 223.4361,152.8153 225.2028,152.4023 226.5115,152.0301 227.3622,151.6989"/>
    <line x1="227.3622" x2="245.0787" y1="151.6989" y2="163.5099"/>
    <polyline points="245.0787,163.5099 242.265,163.6939 239.1078,163.9352 235.607,164.2338 231.7627,164.5896 227.5749,165.0026 223.0435,165.4729 218.1686,166.0005 212.9501,166.5853 207.3882,167.2274 201.4826,167.9267 195.2336,168.6833 188.641,169.4972 181.7049,170.3683 174.4253,171.2966 166.8021,172.2823 158.8354,173.3251 150.5251,174.4253 141.8713,175.5826 132.874,176.7973"/>
    <line x1="132.874" x2="132.874" y1="176.7973" y2="194.5138"/>
    <polyline points="132.874,194.5138 141.9695,193.2992 150.6069,192.1418 158.7863,191.0417 166.5076,189.9988 173.7709,189.0132 180.5762,188.0848 186.9234,187.2137 192.8125,186.3999 198.2436,185.6433 203.2167,184.9439 207.7317,184.3019 211.7887,183.717 215.3876,183.1895 218.5285,182.7192 221.2113,182.3061 223.4361,181.9503 225.2028,181.6517 226.5115,181.4105 227.3622,181.2264"/>
    <line x1="227.3622" x2="245.0787" y1="181.2264" y2="193.0374"/>
    <polyline points="245.0787,193.0374 242.7108,193.2174 239.9584,193.4464 236.8217,193.7245 233.3004,194.0517 229.3948,194.4279 225.1047,194.8533 220.4302,195.3277 215.3712,195.8511 209.9279,196.4237 204.1001,197.0453 197.8878,197.716 191.2911,198.4358 184.31,199.2047 176.9445,200.0226 169.1945,200.8896 161.0602,201.8057 152.5413,202.7709 143.6381,203.7851 134.3504,204.8485"/>
    <line x1="134.3504" x2="134.3504" y1="204.8485" y2="224.0414"/>
    <line x1="134.3504" x2="252.4606" y1="224.0414" y2="213.7067"/>
    <line x1="252.4606" x2="259.8425" y1="213.7067" y2="131.0296"/>
    <line x1="259.8425" x2="132.874" y1="131.0296" y2="144.317"/>
    <line x1="132.874" x2="132.874" y1="144.317" y2="164.9863"/>
    <polyline points="296.752,120.6949 295.7868,119.104 294.7562,117.4395 293.6602,115.7014 292.4987,113.8897 291.2718,112.0043 289.9794,110.0454 288.6217,108.0128 287.1985,105.9066 285.7098,103.7268 284.1557,101.4734 282.5362,99.1463 280.8513,96.7457 279.1009,94.2714 277.285,91.7236 275.4038,89.1021 273.4571,86.407 271.445,83.6382 269.3674,80.7959 267.2244,77.88"/>
    <line x1="267.2244" x2="224.4094" y1="77.88" y2="82.3091"/>
    <polyline points="224.4094,82.3091 223.1416,84.1822 221.8248,86.0716 220.4588,87.9774 219.0438,89.8996 217.5797,91.8381 216.0665,93.7929 214.5042,95.7642 212.8929,97.7518 211.2325,99.7557 209.523,101.776 207.7644,103.8127 205.9568,105.8657 204.1001,107.9351 202.1943,110.0208 200.2394,112.1229 198.2354,114.2414 196.1824,116.3762 194.0803,118.5274 191.9291,120.6949"/>
    <line x1="191.9291" x2="186.0236" y1="120.6949" y2="117.7422"/>
    <polyline points="186.0236,117.7422 188.6369,114.3314 191.193,110.9369 193.6918,107.5588 196.1333,104.1971 198.5176,100.8517 200.8447,97.5227 203.1144,94.2101 205.327,90.9138 207.4822,87.6339 209.5802,84.3703 211.621,81.1231 213.6045,77.8922 215.5307,74.6777 217.3997,71.4796 219.2115,68.2978 220.9659,65.1324 222.6632,61.9833 224.3031,58.8506 225.8858,55.7343"/>
    <polyline points="225.8858,55.7343 227.3949,52.6793 228.814,49.7306 230.1432,46.8883 231.3824,44.1523 232.5316,41.5226 233.5908,38.9993 234.5601,36.5823 235.4393,34.2716 236.2287,32.0673 236.928,29.9692 237.5374,27.9776 238.0567,26.0922 238.4862,24.3132 238.8256,22.6405 239.0751,21.0742 239.2346,19.6142 239.3041,18.2605 239.2836,17.0131 239.1732,15.8721"/>
    <line x1="239.1732" x2="243.6024" y1="15.8721" y2="14.3957"/>
    <line x1="243.6024" x2="259.8425" y1="14.3957" y2="36.5414"/>
    <polyline points="259.8425,36.5414 259.0696,36.7172 258.3048,36.934 257.5482,37.1916 256.7998,37.4902 256.0596,37.8296 255.3275,38.21 254.6036,38.6312 253.8879,39.0933 253.1804,39.5964 252.4811,40.1403 251.7899,40.7251 251.1069,41.3509 250.4321,42.0175 249.7655,42.725 249.1071,43.4734 248.4568,44.2627 247.8147,45.0929 247.1808,45.964 246.5551,46.876"/>
    <polyline points="246.5551,46.876 246.0684,47.8248 245.5409,48.8064 244.9724,49.8206 244.363,50.8676 243.7128,51.9472 243.0216,53.0596 242.2896,54.2047 241.5166,55.3826 240.7028,56.5931 239.848,57.8364 238.9524,59.1124 238.0158,60.4211 237.0384,61.7625 236.0201,63.1366 234.9608,64.5435 233.8607,65.9831 232.7197,67.4553 231.5378,68.9603 230.315,70.4981"/>
    <polyline points="230.315,70.4981 239.4227,69.2753 248.0969,68.0933 256.3377,66.9523 264.1449,65.8522 271.5186,64.793 278.4588,63.7746 284.9655,62.7972 291.0387,61.8606 296.6784,60.965 301.8845,60.1103 306.6572,59.2964 310.9964,58.5235 314.902,57.7914 318.3742,57.1002 321.4128,56.45 324.0179,55.8406 326.1896,55.2722 327.9277,54.7446 329.2323,54.2579"/>
    <line x1="329.2323" x2="348.4252" y1="54.2579" y2="67.5453"/>
    <polyline points="348.4252,67.5453 346.3108,67.7171 344.0083,67.9216 341.5177,68.1588 338.839,68.4287 335.9721,68.7313 332.9171,69.0667 329.674,69.4348 326.2427,69.8355 322.6233,70.269 318.8158,70.7353 314.8202,71.2342 310.6365,71.7659 306.2646,72.3303 301.7046,72.9273 296.9565,73.5572 292.0202,74.2197 286.8958,74.9149 281.5833,75.6429 276.0827,76.4036"/>
    <polyline points="276.0827,76.4036 278.0784,77.7941 280.0251,79.1682 281.9228,80.526 283.7713,81.8674 285.5708,83.1925 287.3211,84.5012 289.0225,85.7935 290.6747,87.0695 292.2778,88.3291 293.8319,89.5724 295.3369,90.7993 296.7929,92.0098 298.1997,93.204 299.5575,94.3819 300.8662,95.5433 302.1258,96.6884 303.3364,97.8172 304.4978,98.9296 305.6102,100.0256"/>
    <polyline points="305.6102,100.0256 305.2912,101.1135 304.9559,102.2013 304.6042,103.2892 304.2361,104.3771 303.8517,105.4649 303.4509,106.5528 303.0337,107.6406 302.6002,108.7285 302.1504,109.8163 301.6841,110.9042 301.2016,111.9921 300.7026,113.0799 300.1873,114.1678 299.6556,115.2556 299.1076,116.3435 298.5433,117.4313 297.9625,118.5192 297.3654,119.6071 296.752,120.6949"/>
    <polyline points="166.8307,101.502 166.6671,102.8925 166.4872,104.2666 166.2909,105.6244 166.0782,106.9658 165.8492,108.2909 165.6038,109.5996 165.3421,110.8919 165.064,112.1679 164.7695,113.4275 164.4587,114.6708 164.1315,115.8977 163.788,117.1083 163.4281,118.3025 163.0518,119.4803 162.6592,120.6418 162.2503,121.7869 161.8249,122.9156 161.3832,124.028 160.9252,125.1241"/>
    <polyline points="160.9252,125.1241 159.9723,123.6886 158.9785,122.1795 157.9438,120.5968 156.8682,118.9404 155.7517,117.2105 154.5944,115.407 153.3961,113.5298 152.1569,111.579 150.8768,109.5546 149.5559,107.4566 148.194,105.285 146.7912,103.0397 145.3476,100.7209 143.863,98.3284 142.3376,95.8623 140.7712,93.3226 139.164,90.7093 137.5158,88.0224 135.8268,85.2618"/>
    <line x1="135.8268" x2="110.7283" y1="85.2618" y2="86.7382"/>
    <polyline points="110.7283,86.7382 108.9575,89.4129 107.064,92.153 105.0478,94.9585 102.9089,97.8295 100.6473,100.7659 98.263,103.7677 95.756,106.835 93.1263,109.9677 90.374,113.1658 87.4989,116.4294 84.5012,119.7584 81.3807,123.1528 78.1376,126.6127 74.7718,130.138 71.2833,133.7288 67.6721,137.3849 63.9382,141.1066 60.0816,144.8936 56.1024,148.7461"/>
    <line x1="56.1024" x2="51.6732" y1="148.7461" y2="145.7933"/>
    <polyline points="51.6732,145.7933 55.9592,140.8489 60.1143,135.9617 64.1386,131.1318 68.032,126.3591 71.7945,121.6437 75.4261,116.9856 78.9269,112.3847 82.2968,107.841 85.5359,103.3546 88.644,98.9255 91.6213,94.5536 94.4677,90.239 97.1833,85.9816 99.768,81.7815 102.2218,77.6387 104.5447,73.5531 106.7368,69.5247 108.798,65.5536 110.7283,61.6398"/>
    <polyline points="110.7283,61.6398 112.6873,57.8282 114.5236,54.1638 116.2372,50.6467 117.828,47.2768 119.2962,44.0541 120.6418,40.9787 121.8646,38.0505 122.9647,35.2695 123.9421,32.6357 124.7969,30.1492 125.5289,27.8099 126.1383,25.6178 126.625,23.573 126.989,21.6754 127.2302,19.925 127.3488,18.3218 127.3448,16.8659 127.218,15.5572 126.9685,14.3957"/>
    <line x1="126.9685" x2="131.3976" y1="14.3957" y2="12.9193"/>
    <line x1="131.3976" x2="146.1614" y1="12.9193" y2="39.4941"/>
    <polyline points="146.1614,39.4941 145.3885,39.6741 144.6237,39.9031 143.8671,40.1812 143.1187,40.5084 142.3785,40.8846 141.6464,41.31 140.9225,41.7844 140.2068,42.3078 139.4993,42.8804 138.8,43.502 138.1088,44.1727 137.4258,44.8925 136.751,45.6614 136.0844,46.4793 135.426,47.3463 134.7757,48.2624 134.1336,49.2276 133.4997,50.2418 132.874,51.3052"/>
    <polyline points="132.874,51.3052 132.2401,52.2581 131.5817,53.2518 130.8987,54.2865 130.1912,55.3621 129.4591,56.4786 128.7025,57.636 127.9214,58.8343 127.1157,60.0735 126.2855,61.3535 125.4308,62.6745 124.5515,64.0364 123.6477,65.4391 122.7193,66.8828 121.7664,68.3673 120.789,69.8928 119.787,71.4591 118.7605,73.0664 117.7094,74.7145 116.6339,76.4036"/>
    <polyline points="116.6339,76.4036 123.9176,75.3321 130.8496,74.2933 137.4299,73.2872 143.6585,72.3139 149.5354,71.3733 155.0606,70.4654 160.234,69.5902 165.0558,68.7477 169.5258,67.9379 173.6441,67.1609 177.4107,66.4166 180.8256,65.705 183.8888,65.0261 186.6003,64.3799 188.96,63.7664 190.9681,63.1857 192.6244,62.6377 193.929,62.1224 194.8819,61.6398"/>
    <line x1="194.8819" x2="211.122" y1="61.6398" y2="74.9272"/>
    <polyline points="211.122,74.9272 209.3185,75.099 207.3268,75.3035 205.147,75.5407 202.7791,75.8106 200.223,76.1132 197.4788,76.4486 194.5465,76.8166 191.4261,77.2174 188.1175,77.6509 184.6209,78.1172 180.936,78.6161 177.0631,79.1478 173.0021,79.7121 168.7529,80.3092 164.3155,80.939 159.6901,81.6016 154.8765,82.2968 149.8749,83.0248 144.685,83.7855"/>
    <polyline points="144.685,83.7855 146.2187,84.8651 147.7114,85.9285 149.1632,86.9754 150.5742,88.006 151.9442,89.0203 153.2734,90.0182 154.5616,90.9997 155.809,91.9649 157.0155,92.9137 158.181,93.8461 159.3057,94.7622 160.3894,95.6619 161.4323,96.5453 162.4343,97.4123 163.3954,98.263 164.3155,99.0973 165.1948,99.9152 166.0332,100.7168 166.8307,101.502"/>
    <polyline points="171.2598,247.6634 170.6464,248.3014 170.0493,248.9721 169.4686,249.6756 168.9042,250.4117 168.3562,251.1806 167.8245,251.9821 167.3092,252.8164 166.8103,253.6834 166.3277,254.5832 165.8615,255.5156 165.4116,256.4808 164.9781,257.4787 164.5609,258.5093 164.1601,259.5726 163.7757,260.6686 163.4076,261.7974 163.0559,262.9589 162.7206,264.1531 162.4016,265.38"/>
    <line x1="162.4016" x2="231.7913" y1="265.38" y2="259.4744"/>
    <line x1="231.7913" x2="231.7913" y1="259.4744" y2="247.6634"/>
    <polyline points="231.7913,247.6634 231.4805,246.4283 231.1697,245.2096 230.8589,244.0072 230.5481,242.8212 230.2373,241.6516 229.9264,240.4983 229.6156,239.3614 229.3048,238.2408 228.994,237.1366 228.6832,236.0487 228.3724,234.9772 228.0615,233.9221 227.7507,232.8833 227.4399,231.8609 227.1291,230.8548 226.8183,229.8651 226.5075,228.8917 226.1966,227.9348 225.8858,226.9941"/>
    <line x1="225.8858" x2="160.9252" y1="226.9941" y2="232.8996"/>
    <line x1="160.9252" x2="171.2598" y1="232.8996" y2="247.6634"/>
  </g>
</svg>
