<?xml version="1.0" encoding="utf-8" ?>
<svg xmlns="http://www.w3.org/2000/svg" xmlns:cc="http://creativecommons.org/ns" xmlns:dc="http://purl.org/dc/elements/1.1/" xmlns:ev="http://www.w3.org/2001/xml-events" xmlns:inkscape="http://www.inkscape.org/namespaces/inkscape" xmlns:rdf="http://www.w3.org/1999/02/22-rdf-syntax-ns" xmlns:sodipodi="http://sodipodi.sourceforge.net/DTD/sodipodi-0.dtd" xmlns:xlink="http://www.w3.org/1999/xlink" baseProfile="tiny" height="10.0cm" version="1.2" viewBox="0 0 377.9527559055118 377.9527559055118" width="10.0cm">
  <metadata>
    <rdf:RDF>
      <cc:Work>
        <dc:format>image/svg+xml</dc:format>
        <dc:source>Generated with vsketch</dc:source>
        <dc:date>2023-04-30T18:38:58.514411</dc:date>
      </cc:Work>
    </rdf:RDF>
  </metadata>
  <defs/>
  <g fill="none" id="layer1" inkscape:groupmode="layer" inkscape:label="1" stroke="#0000ff" style="display:inline">
    <polyline points="240.6496,346.5807 240.6373,348.8383 240.6005,350.9485 240.5392,352.9116 240.4533,354.7274 240.3429,356.396 240.2079,357.9174 240.0484,359.2915 239.8644,360.5184 239.6558,361.5981 239.4227,362.5305 239.165,363.3158 238.8829,363.9537 238.5761,364.4445 238.2449,364.788 237.8891,364.9844 237.5087,365.0334 237.1038,364.9353 236.6744,364.6899 236.2205,364.2973"/>
    <line x1="236.2205" x2="219.9803" y1="364.2973" y2="342.1516"/>
    <polyline points="219.9803,342.1516 220.8841,341.6445 221.7307,341.0556 222.52,340.3849 223.2521,339.6324 223.9269,338.7981 224.5444,337.882 225.1047,336.8841 225.6077,335.8044 226.0535,334.6429 226.442,333.3997 226.7733,332.0746 227.0473,330.6678 227.2641,329.1791 227.4236,327.6087 227.5258,325.9564 227.5708,324.2224 227.5585,322.4066 227.489,320.509 227.3622,318.5296"/>
    <line x1="227.3622" x2="227.3622" y1="318.5296" y2="271.2855"/>
    <line x1="227.3622" x2="155.0197" y1="271.2855" y2="277.191"/>
    <polyline points="155.0197,277.191 151.4862,284.0576 147.7237,290.6706 143.7321,297.0301 139.5116,303.136 135.062,308.9883 130.3834,314.5871 125.4758,319.9323 120.3391,325.024 114.9734,329.8621 109.3787,334.4466 103.555,338.7776 97.5023,342.855 91.2205,346.6789 84.7097,350.2492 77.9699,353.5659 71.0011,356.6291 63.8032,359.4387 56.3764,361.9948 48.7205,364.2973"/>
    <line x1="48.7205" x2="44.2913" y1="364.2973" y2="358.3918"/>
    <polyline points="44.2913,358.3918 51.0311,356.4001 57.5747,354.1549 63.9218,351.6561 70.0727,348.9037 76.0273,345.8978 81.7856,342.6383 87.3476,339.1252 92.7133,335.3586 97.8826,331.3385 102.8557,327.0647 107.6325,322.5375 112.2129,317.7566 116.5971,312.7222 120.7849,307.4342 124.7764,301.8927 128.5717,296.0976 132.1706,290.049 135.5732,283.7468 138.7795,277.191"/>
    <polyline points="138.7795,277.191 130.7228,277.8044 123.026,278.4015 115.6891,278.9823 108.7121,279.5466 102.095,280.0947 95.8378,280.6263 89.9405,281.1416 84.403,281.6406 79.2255,282.1231 74.4078,282.5894 69.9501,283.0392 65.8522,283.4727 62.1142,283.8899 58.7361,284.2907 55.7179,284.6751 53.0596,285.0432 50.7612,285.3949 48.8227,285.7303 47.2441,286.0493"/>
    <line x1="47.2441" x2="26.5748" y1="286.0493" y2="272.7618"/>
    <polyline points="26.5748,272.7618 30.1369,272.7414 33.9853,272.6801 38.12,272.5778 42.541,272.4347 47.2482,272.2506 52.2417,272.0257 57.5215,271.7599 63.0876,271.4531 68.9399,271.1055 75.0785,270.717 81.5034,270.2876 88.2146,269.8173 95.2121,269.3061 102.4958,268.754 110.0658,268.1609 117.9221,267.527 126.0647,266.8522 134.4935,266.1366 143.2087,265.38"/>
    <polyline points="143.2087,265.38 143.953,262.9384 144.6319,260.5868 145.2453,258.3252 145.7933,256.1536 146.2759,254.072 146.6931,252.0803 147.0448,250.1786 147.3311,248.3669 147.5519,246.6451 147.7073,245.0133 147.7973,243.4715 147.8218,242.0197 147.7809,240.6578 147.6746,239.3859 147.5028,238.204 147.2656,237.112 146.963,236.1101 146.5949,235.1981 146.1614,234.376"/>
    <line x1="146.1614" x2="129.9213" y1="234.376" y2="235.8524"/>
    <polyline points="129.9213,235.8524 129.9131,237.6682 129.8885,239.3859 129.8476,241.0054 129.7904,242.5268 129.7168,243.95 129.6268,245.275 129.5205,246.502 129.3978,247.6307 129.2587,248.6613 129.1033,249.5938 128.9316,250.4281 128.7434,251.1642 128.5389,251.8022 128.3181,252.342 128.0809,252.7837 127.8273,253.1272 127.5574,253.3726 127.2711,253.5199 126.9685,253.5689"/>
    <polyline points="126.9685,253.5689 126.6291,253.5117 126.2324,253.3399 125.7784,253.0536 125.2672,252.6528 124.6987,252.1375 124.073,251.5077 123.39,250.7634 122.6498,249.9046 121.8523,248.9312 120.9976,247.8434 120.0856,246.641 119.1163,245.3241 118.0898,243.8927 117.006,242.3468 115.865,240.6864 114.6667,238.9115 113.4112,237.0221 112.0984,235.0181 110.7283,232.8996"/>
    <polyline points="110.7283,232.8996 111.3336,232.1103 111.9062,231.2965 112.446,230.4581 112.9531,229.5952 113.4275,228.7077 113.8692,227.7957 114.2782,226.8592 114.6544,225.8981 114.998,224.9125 115.3088,223.9023 115.5869,222.8676 115.8323,221.8084 116.0449,220.7246 116.2249,219.6163 116.3721,218.4835 116.4866,217.3261 116.5684,216.1442 116.6175,214.9377 116.6339,213.7067"/>
    <line x1="116.6339" x2="115.1575" y1="213.7067" y2="151.6989"/>
    <polyline points="115.1575,151.6989 115.1411,149.8462 115.092,148.0181 115.0103,146.2146 114.8957,144.4356 114.7485,142.6811 114.5686,140.9512 114.3559,139.2458 114.1105,137.5649 113.8324,135.9086 113.5216,134.2768 113.1781,132.6695 112.8018,131.0868 112.3929,129.5286 111.9512,127.995 111.4768,126.4859 110.9696,125.0014 110.4298,123.5413 109.8572,122.1059 109.252,120.6949"/>
    <line x1="109.252" x2="113.6811" y1="120.6949" y2="117.7422"/>
    <line x1="113.6811" x2="128.4449" y1="117.7422" y2="132.5059"/>
    <line x1="128.4449" x2="248.0315" y1="132.5059" y2="119.2185"/>
    <line x1="248.0315" x2="261.3189" y1="119.2185" y2="105.9311"/>
    <line x1="261.3189" x2="280.5118" y1="105.9311" y2="125.1241"/>
    <line x1="280.5118" x2="268.7008" y1="125.1241" y2="132.5059"/>
    <line x1="268.7008" x2="262.7953" y1="132.5059" y2="209.2776"/>
    <line x1="262.7953" x2="273.1299" y1="209.2776" y2="222.565"/>
    <line x1="273.1299" x2="228.8386" y1="222.565" y2="226.9941"/>
    <line x1="228.8386" x2="246.5551" y1="226.9941" y2="238.8052"/>
    <polyline points="246.5551,238.8052 245.9498,239.5822 245.3773,240.3592 244.8374,241.1363 244.3303,241.9133 243.8559,242.6904 243.4142,243.4674 243.0053,244.2444 242.629,245.0215 242.2855,245.7985 241.9747,246.5756 241.6966,247.3526 241.4512,248.1296 241.2385,248.9067 241.0586,249.6837 240.9113,250.4608 240.7968,251.2378 240.715,252.0149 240.666,252.7919 240.6496,253.5689"/>
    <line x1="240.6496" x2="240.6496" y1="253.5689" y2="257.9981"/>
    <polyline points="240.6496,257.9981 248.7063,257.2251 256.4031,256.4603 263.74,255.7038 270.717,254.9553 277.3341,254.2151 283.5913,253.4831 289.4887,252.7592 295.0261,252.0435 300.2037,251.336 305.0213,250.6366 309.4791,249.9455 313.577,249.2625 317.3149,248.5877 320.693,247.9211 323.7112,247.2626 326.3695,246.6124 328.6679,245.9703 330.6064,245.3364 332.185,244.7107"/>
    <line x1="332.185" x2="349.9016" y1="244.7107" y2="260.9508"/>
    <polyline points="349.9016,260.9508 347.2433,260.9754 344.2414,261.049 340.8961,261.1717 337.2072,261.3434 333.1747,261.5643 328.7988,261.8342 324.0793,262.1532 319.0162,262.5213 313.6097,262.9384 307.8596,263.4046 301.7659,263.9199 295.3288,264.4843 288.5481,265.0978 281.4238,265.7603 273.956,266.4719 266.1447,267.2326 257.9899,268.0423 249.4915,268.9012 240.6496,269.8091"/>
    <line x1="240.6496" x2="240.6496" y1="269.8091" y2="346.5807"/>
    <polyline points="128.4449,164.9863 137.5404,163.9188 146.1778,162.8923 154.3572,161.9067 162.0785,160.962 169.3418,160.0582 176.147,159.1953 182.4942,158.3732 188.3834,157.5921 193.8145,156.8519 198.7875,156.1525 203.3026,155.4941 207.3595,154.8765 210.9585,154.2999 214.0993,153.7642 216.7822,153.2693 219.007,152.8153 220.7737,152.4023 222.0824,152.0301 222.9331,151.6989"/>
    <line x1="222.9331" x2="240.6496" y1="151.6989" y2="163.5099"/>
    <polyline points="240.6496,163.5099 237.8359,163.6939 234.6787,163.9352 231.1779,164.2338 227.3336,164.5896 223.1457,165.0026 218.6144,165.4729 213.7394,166.0005 208.521,166.5853 202.959,167.2274 197.0535,167.9267 190.8045,168.6833 184.2119,169.4972 177.2758,170.3683 169.9961,171.2966 162.3729,172.2823 154.4062,173.3251 146.096,174.4253 137.4422,175.5826 128.4449,176.7973"/>
    <line x1="128.4449" x2="128.4449" y1="176.7973" y2="194.5138"/>
    <polyline points="128.4449,194.5138 137.5404,193.2992 146.1778,192.1418 154.3572,191.0417 162.0785,189.9988 169.3418,189.0132 176.147,188.0848 182.4942,187.2137 188.3834,186.3999 193.8145,185.6433 198.7875,184.9439 203.3026,184.3019 207.3595,183.717 210.9585,183.1895 214.0993,182.7192 216.7822,182.3061 219.007,181.9503 220.7737,181.6517 222.0824,181.4105 222.9331,181.2264"/>
    <line x1="222.9331" x2="240.6496" y1="181.2264" y2="193.0374"/>
    <polyline points="240.6496,193.0374 238.2817,193.2174 235.5293,193.4464 232.3925,193.7245 228.8713,194.0517 224.9656,194.4279 220.6756,194.8533 216.001,195.3277 210.9421,195.8511 205.4987,196.4237 199.6709,197.0453 193.4587,197.716 186.862,198.4358 179.8809,199.2047 172.5154,200.0226 164.7654,200.8896 156.631,201.8057 148.1122,202.7709 139.2089,203.7851 129.9213,204.8485"/>
    <line x1="129.9213" x2="129.9213" y1="204.8485" y2="224.0414"/>
    <line x1="129.9213" x2="248.0315" y1="224.0414" y2="213.7067"/>
    <line x1="248.0315" x2="255.4134" y1="213.7067" y2="131.0296"/>
    <line x1="255.4134" x2="128.4449" y1="131.0296" y2="144.317"/>
    <line x1="128.4449" x2="128.4449" y1="144.317" y2="164.9863"/>
    <polyline points="292.3228,120.6949 291.3577,119.104 290.3271,117.4395 289.231,115.7014 288.0696,113.8897 286.8427,112.0043 285.5503,110.0454 284.1925,108.0128 282.7693,105.9066 281.2807,103.7268 279.7266,101.4734 278.1071,99.1463 276.4221,96.7457 274.6717,94.2714 272.8559,91.7236 270.9747,89.1021 269.028,86.407 267.0158,83.6382 264.9383,80.7959 262.7953,77.88"/>
    <line x1="262.7953" x2="219.9803" y1="77.88" y2="82.3091"/>
    <polyline points="219.9803,82.3091 218.7125,84.1822 217.3956,86.0716 216.0297,87.9774 214.6146,89.8996 213.1505,91.8381 211.6373,93.7929 210.0751,95.7642 208.4637,97.7518 206.8033,99.7557 205.0938,101.776 203.3353,103.8127 201.5276,105.8657 199.6709,107.9351 197.7651,110.0208 195.8102,112.1229 193.8063,114.2414 191.7533,116.3762 189.6512,118.5274 187.5,120.6949"/>
    <line x1="187.5" x2="181.5945" y1="120.6949" y2="117.7422"/>
    <polyline points="181.5945,117.7422 184.2078,114.3314 186.7639,110.9369 189.2627,107.5588 191.7042,104.1971 194.0885,100.8517 196.4155,97.5227 198.6853,94.2101 200.8978,90.9138 203.0531,87.6339 205.1511,84.3703 207.1919,81.1231 209.1754,77.8922 211.1016,74.6777 212.9706,71.4796 214.7823,68.2978 216.5368,65.1324 218.234,61.9833 219.874,58.8506 221.4567,55.7343"/>
    <polyline points="221.4567,55.7343 222.9658,52.6793 224.3849,49.7306 225.7141,46.8883 226.9532,44.1523 228.1024,41.5226 229.1617,38.9993 230.1309,36.5823 231.0102,34.2716 231.7995,32.0673 232.4989,29.9692 233.1082,27.9776 233.6276,26.0922 234.057,24.3132 234.3965,22.6405 234.6459,21.0742 234.8054,19.6142 234.875,18.2605 234.8545,17.0131 234.7441,15.8721"/>
    <line x1="234.7441" x2="239.1732" y1="15.8721" y2="14.3957"/>
    <line x1="239.1732" x2="255.4134" y1="14.3957" y2="36.5414"/>
    <polyline points="255.4134,36.5414 254.6404,36.7172 253.8757,36.934 253.1191,37.1916 252.3707,37.4902 251.6304,37.8296 250.8984,38.21 250.1745,38.6312 249.4588,39.0933 248.7513,39.5964 248.0519,40.1403 247.3608,40.7251 246.6778,41.3509 246.003,42.0175 245.3364,42.725 244.678,43.4734 244.0277,44.2627 243.3856,45.0929 242.7517,45.964 242.126,46.876"/>
    <polyline points="242.126,46.876 241.6393,47.8248 241.1117,48.8064 240.5433,49.8206 239.9339,50.8676 239.2836,51.9472 238.5925,53.0596 237.8604,54.2047 237.0875,55.3826 236.2736,56.5931 235.4189,57.8364 234.5233,59.1124 233.5867,60.4211 232.6093,61.7625 231.5909,63.1366 230.5317,64.5435 229.4316,65.9831 228.2906,67.4553 227.1086,68.9603 225.8858,70.4981"/>
    <polyline points="225.8858,70.4981 234.9936,69.2753 243.6678,68.0933 251.9085,66.9523 259.7157,65.8522 267.0894,64.793 274.0297,63.7746 280.5363,62.7972 286.6095,61.8606 292.2492,60.965 297.4554,60.1103 302.2281,59.2964 306.5672,58.5235 310.4729,57.7914 313.945,57.1002 316.9837,56.45 319.5888,55.8406 321.7604,55.2722 323.4985,54.7446 324.8031,54.2579"/>
    <line x1="324.8031" x2="343.9961" y1="54.2579" y2="67.5453"/>
    <polyline points="343.9961,67.5453 341.8817,67.7171 339.5792,67.9216 337.0886,68.1588 334.4098,68.4287 331.543,68.7313 328.488,69.0667 325.2448,69.4348 321.8136,69.8355 318.1942,70.269 314.3867,70.7353 310.3911,71.2342 306.2073,71.7659 301.8355,72.3303 297.2754,72.9273 292.5273,73.5572 287.5911,74.2197 282.4667,74.9149 277.1542,75.6429 271.6535,76.4036"/>
    <polyline points="271.6535,76.4036 273.6493,77.7941 275.596,79.1682 277.4936,80.526 279.3422,81.8674 281.1416,83.1925 282.892,84.5012 284.5933,85.7935 286.2456,87.0695 287.8487,88.3291 289.4028,89.5724 290.9078,90.7993 292.3637,92.0098 293.7706,93.204 295.1284,94.3819 296.4371,95.5433 297.6967,96.6884 298.9072,97.8172 300.0687,98.9296 301.1811,100.0256"/>
    <polyline points="301.1811,100.0256 300.8621,101.1135 300.5268,102.2013 300.175,103.2892 299.807,104.3771 299.4225,105.4649 299.0217,106.5528 298.6046,107.6406 298.1711,108.7285 297.7212,109.8163 297.255,110.9042 296.7724,111.9921 296.2735,113.0799 295.7582,114.1678 295.2265,115.2556 294.6785,116.3435 294.1141,117.4313 293.5334,118.5192 292.9363,119.6071 292.3228,120.6949"/>
    <polyline points="162.4016,101.502 162.238,102.8925 162.058,104.2666 161.8617,105.6244 161.6491,106.9658 161.42,108.2909 161.1747,109.5996 160.9129,110.8919 160.6348,112.1679 160.3404,113.4275 160.0296,114.6708 159.7024,115.8977 159.3588,117.1083 158.999,118.3025 158.6227,119.4803 158.2301,120.6418 157.8211,121.7869 157.3958,122.9156 156.9541,124.028 156.4961,125.1241"/>
    <polyline points="156.4961,125.1241 155.5432,123.6886 154.5494,122.1795 153.5147,120.5968 152.4391,118.9404 151.3226,117.2105 150.1652,115.407 148.9669,113.5298 147.7278,111.579 146.4477,109.5546 145.1267,107.4566 143.7649,105.285 142.3621,103.0397 140.9184,100.7209 139.4339,98.3284 137.9084,95.8623 136.3421,93.3226 134.7348,90.7093 133.0867,88.0224 131.3976,85.2618"/>
    <line x1="131.3976" x2="106.2992" y1="85.2618" y2="86.7382"/>
    <polyline points="106.2992,86.7382 104.5284,89.4129 102.6349,92.153 100.6186,94.9585 98.4797,97.8295 96.2181,100.7659 93.8338,103.7677 91.3269,106.835 88.6972,109.9677 85.9448,113.1658 83.0698,116.4294 80.072,119.7584 76.9516,123.1528 73.7085,126.6127 70.3427,130.138 66.8542,133.7288 63.243,137.3849 59.5091,141.1066 55.6525,144.8936 51.6732,148.7461"/>
    <line x1="51.6732" x2="47.2441" y1="148.7461" y2="145.7933"/>
    <polyline points="47.2441,145.7933 51.5301,140.8489 55.6852,135.9617 59.7095,131.1318 63.6029,126.3591 67.3654,121.6437 70.997,116.9856 74.4978,112.3847 77.8677,107.841 81.1067,103.3546 84.2149,98.9255 87.1922,94.5536 90.0386,90.239 92.7542,85.9816 95.3388,81.7815 97.7927,77.6387 100.1156,73.5531 102.3077,69.5247 104.3689,65.5536 106.2992,61.6398"/>
    <polyline points="106.2992,61.6398 108.2582,57.8282 110.0944,54.1638 111.808,50.6467 113.3989,47.2768 114.8671,44.0541 116.2126,40.9787 117.4354,38.0505 118.5356,35.2695 119.513,32.6357 120.3677,30.1492 121.0998,27.8099 121.7092,25.6178 122.1958,23.573 122.5598,21.6754 122.8011,19.925 122.9197,18.3218 122.9156,16.8659 122.7888,15.5572 122.5394,14.3957"/>
    <line x1="122.5394" x2="126.9685" y1="14.3957" y2="12.9193"/>
    <line x1="126.9685" x2="141.7323" y1="12.9193" y2="39.4941"/>
    <polyline points="141.7323,39.4941 140.9593,39.6741 140.1946,39.9031 139.438,40.1812 138.6896,40.5084 137.9493,40.8846 137.2173,41.31 136.4934,41.7844 135.7777,42.3078 135.0702,42.8804 134.3708,43.502 133.6797,44.1727 132.9967,44.8925 132.3219,45.6614 131.6553,46.4793 130.9968,47.3463 130.3466,48.2624 129.7045,49.2276 129.0706,50.2418 128.4449,51.3052"/>
    <polyline points="128.4449,51.3052 127.811,52.2581 127.1525,53.2518 126.4696,54.2865 125.762,55.3621 125.03,56.4786 124.2734,57.636 123.4923,58.8343 122.6866,60.0735 121.8564,61.3535 121.0016,62.6745 120.1224,64.0364 119.2185,65.4391 118.2902,66.8828 117.3373,68.3673 116.3598,69.8928 115.3579,71.4591 114.3314,73.0664 113.2803,74.7145 112.2047,76.4036"/>
    <polyline points="112.2047,76.4036 119.4885,75.3321 126.4205,74.2933 133.0008,73.2872 139.2294,72.3139 145.1063,71.3733 150.6314,70.4654 155.8049,69.5902 160.6266,68.7477 165.0967,67.9379 169.215,67.1609 172.9816,66.4166 176.3965,65.705 179.4597,65.0261 182.1711,64.3799 184.5309,63.7664 186.5389,63.1857 188.1952,62.6377 189.4999,62.1224 190.4528,61.6398"/>
    <line x1="190.4528" x2="206.6929" y1="61.6398" y2="74.9272"/>
    <polyline points="206.6929,74.9272 204.8894,75.099 202.8977,75.3035 200.7179,75.5407 198.3499,75.8106 195.7939,76.1132 193.0497,76.4486 190.1174,76.8166 186.997,77.2174 183.6884,77.6509 180.1917,78.1172 176.5069,78.6161 172.634,79.1478 168.5729,79.7121 164.3237,80.3092 159.8864,80.939 155.261,81.6016 150.4474,82.2968 145.4457,83.0248 140.2559,83.7855"/>
    <polyline points="140.2559,83.7855 141.7895,84.8651 143.2823,85.9285 144.7341,86.9754 146.1451,88.006 147.5151,89.0203 148.8443,90.0182 150.1325,90.9997 151.3799,91.9649 152.5863,92.9137 153.7519,93.8461 154.8765,94.7622 155.9603,95.6619 157.0032,96.5453 158.0052,97.4123 158.9662,98.263 159.8864,99.0973 160.7657,99.9152 161.6041,100.7168 162.4016,101.502"/>
    <polyline points="166.8307,247.6634 166.2173,248.3014 165.6202,248.9721 165.0394,249.6756 164.475,250.4117 163.927,251.1806 163.3954,251.9821 162.8801,252.8164 162.3811,253.6834 161.8985,254.5832 161.4323,255.5156 160.9825,256.4808 160.5489,257.4787 160.1318,258.5093 159.731,259.5726 159.3466,260.6686 158.9785,261.7974 158.6268,262.9589 158.2914,264.1531 157.9724,265.38"/>
    <line x1="157.9724" x2="227.3622" y1="265.38" y2="259.4744"/>
    <line x1="227.3622" x2="227.3622" y1="259.4744" y2="247.6634"/>
    <polyline points="227.3622,247.6634 227.0514,246.4283 226.7406,245.2096 226.4298,244.0072 226.1189,242.8212 225.8081,241.6516 225.4973,240.4983 225.1865,239.3614 224.8757,238.2408 224.5649,237.1366 224.254,236.0487 223.9432,234.9772 223.6324,233.9221 223.3216,232.8833 223.0108,231.8609 222.7,230.8548 222.3891,229.8651 222.0783,228.8917 221.7675,227.9348 221.4567,226.9941"/>
    <line x1="221.4567" x2="156.4961" y1="226.9941" y2="232.8996"/>
    <line x1="156.4961" x2="166.8307" y1="232.8996" y2="247.6634"/>
  </g>
  <g fill="none" id="layer2" inkscape:groupmode="layer" inkscape:label="2" stroke="#008800" style="display:inline">
    <line x1="305.6102" x2="324.8031" y1="43.9233" y2="58.687"/>
    <line x1="202.2638" x2="311.5157" y1="153.1752" y2="73.4508"/>
    <line x1="196.3583" x2="299.7047" y1="160.5571" y2="224.0414"/>
    <line x1="190.4528" x2="314.4685" y1="235.8524" y2="235.8524"/>
    <line x1="196.3583" x2="187.5" y1="241.7579" y2="246.187"/>
    <polyline points="134.3504,246.187 139.8388,248.5468 145.1145,250.653 150.1775,252.5056 155.0279,254.1047 159.6656,255.4502 164.0906,256.5421 168.303,257.3805 172.3027,257.9654 176.0898,258.2966 179.6642,258.3743 183.0259,258.1985 186.1749,257.769 189.1113,257.0861 191.8351,256.1495 194.3461,254.9594 196.6445,253.5158 198.7303,251.8185 200.6034,249.8678 202.2638,247.6634"/>
    <line x1="183.0709" x2="168.3071" y1="268.3327" y2="247.6634"/>
    <polyline points="124.0157,247.6634 129.2219,246.5551 134.2727,245.4059 139.168,244.2158 143.908,242.9848 148.4925,241.7129 152.9217,240.4001 157.1954,239.0464 161.3137,237.6519 165.2766,236.2164 169.0841,234.74 172.7362,233.2227 176.2329,231.6646 179.5742,230.0655 182.76,228.4255 185.7905,226.7447 188.6656,225.0229 191.3852,223.2602 193.9494,221.4567 196.3583,219.6122"/>
    <line x1="172.7362" x2="169.7835" y1="212.2304" y2="97.0729"/>
    <polyline points="125.4921,172.3681 130.0971,162.2584 134.5876,153.0648 138.9636,144.7873 143.225,137.4258 147.372,130.9805 151.4044,125.4512 155.3223,120.8381 159.1257,117.141 162.8146,114.36 166.389,112.4951 169.8489,111.5463 173.1943,111.5136 176.4251,112.3969 179.5415,114.1964 182.5433,116.912 185.4306,120.5436 188.2034,125.0913 190.8617,130.5552 193.4055,136.9351"/>
    <line x1="165.3543" x2="171.2598" y1="48.3524" y2="45.3996"/>
    <line x1="125.4921" x2="181.5945" y1="145.7933" y2="73.4508"/>
    <line x1="131.3976" x2="296.752" y1="160.5571" y2="61.6398"/>
    <line x1="187.5" x2="305.6102" y1="154.6516" y2="43.9233"/>
    <polyline points="186.0236,151.6989 193.6959,150.7541 200.861,150.0957 207.519,149.7235 213.6699,149.6377 219.3137,149.838 224.4503,150.3247 229.0799,151.0977 233.2023,152.1569 236.8176,153.5024 239.9257,155.1342 242.5268,157.0523 244.6207,159.2566 246.2075,161.7472 247.2872,164.5241 247.8597,167.5873 247.9252,170.9368 247.4835,174.5725 246.5347,178.4945 245.0787,182.7028"/>
    <line x1="268.7008" x2="284.9409" y1="138.4115" y2="154.6516"/>
    <polyline points="181.5945,201.8957 188.5756,197.4625 194.9105,193.4873 200.5993,189.9702 205.6419,186.9111 210.0383,184.31 213.7885,182.167 216.8926,180.4821 219.3505,179.2552 221.1622,178.4863 222.3278,178.1755 222.8472,178.3227 222.7204,178.928 221.9475,179.9913 220.5283,181.5127 218.463,183.4921 215.7516,185.9296 212.3939,188.8251 208.3901,192.1786 203.7402,195.9902"/>
    <line x1="186.0236" x2="187.5" y1="166.4626" y2="232.8996"/>
    <line x1="134.3504" x2="284.9409" y1="240.2815" y2="224.0414"/>
    <line x1="181.5945" x2="296.752" y1="235.8524" y2="76.4036"/>
    <line x1="187.5" x2="184.5472" y1="162.0335" y2="88.2146"/>
    <line x1="131.3976" x2="186.0236" y1="167.939" y2="151.6989"/>
    <polyline points="95.9646,122.1713 92.9586,126.989 90.468,131.8066 88.4927,136.6243 87.0327,141.4419 86.088,146.2596 85.6585,151.0772 85.7444,155.8949 86.3456,160.7125 87.4621,165.5302 89.0939,170.3478 91.241,175.1655 93.9034,179.9832 97.0811,184.8008 100.774,189.6185 104.9823,194.4361 109.7059,199.2538 114.9448,204.0714 120.699,208.8891 126.9685,213.7067"/>
    <line x1="32.4803" x2="28.0512" y1="201.8957" y2="197.4666"/>
    <polyline points="54.626,222.565 56.0983,214.8764 58.0286,207.6622 60.417,200.9224 63.2634,194.657 66.5679,188.866 70.3304,183.5494 74.551,178.7072 79.2296,174.3394 84.3662,170.446 89.9609,167.027 96.0136,164.0824 102.5244,161.6123 109.4933,159.6165 116.9201,158.0951 124.8051,157.0482 133.148,156.4756 141.949,156.3775 151.2081,156.7537 160.9252,157.6044"/>
    <polyline points="98.9173,88.2146 102.3608,82.4195 105.8534,77.4669 109.3951,73.3568 112.9859,70.0891 116.6257,67.6639 120.3146,66.0812 124.0526,65.341 127.8396,65.4432 131.6757,66.3879 135.5609,68.1751 139.4952,70.8048 143.4786,74.2769 147.511,78.5916 151.5925,83.7487 155.7231,89.7482 159.9028,96.5903 164.1315,104.2748 168.4093,112.8018 172.7362,122.1713"/>
    <line x1="122.5394" x2="126.9685" y1="18.8248" y2="15.8721"/>
    <line x1="103.3465" x2="146.1614" y1="131.0296" y2="45.3996"/>
    <polyline points="113.6811,145.7933 116.503,135.4791 119.374,126.2937 122.294,118.237 125.2631,111.3091 128.2813,105.5099 131.3486,100.8395 134.4649,97.2978 137.6303,94.8849 140.8448,93.6007 144.1084,93.4453 147.421,94.4187 150.7828,96.5208 154.1936,99.7516 157.6534,104.1112 161.1624,109.5996 164.7204,116.2167 168.3275,123.9626 171.9837,132.8372 175.689,142.8406"/>
    <polyline points="129.9213,60.1634 128.9888,62.2164 128.3672,64.6457 128.0564,67.4513 128.0564,70.633 128.3672,74.1911 128.9888,78.1253 129.9213,82.4359 131.1645,87.1227 132.7186,92.1857 134.5835,97.625 136.7592,103.4405 139.2458,109.6323 142.0431,116.2004 145.1513,123.1446 148.5702,130.4652 152.3,138.162 156.3407,146.235 160.6921,154.6843 165.3543,163.5099"/>
    <line x1="109.252" x2="106.2992" y1="98.5493" y2="340.6752"/>
    <polyline points="93.0118,293.4311 94.525,300.9398 96.2672,307.6142 98.2384,313.4543 100.4387,318.46 102.868,322.6315 105.5263,325.9687 108.4136,328.4716 111.5299,330.1402 114.8753,330.9745 118.4497,330.9745 122.2531,330.1402 126.2855,328.4716 130.547,325.9687 135.0375,322.6315 139.757,318.46 144.7055,313.4543 149.883,307.6142 155.2896,300.9398 160.9252,293.4311"/>
    <line x1="100.3937" x2="85.6299" y1="359.8681" y2="331.817"/>
    <polyline points="82.6772,290.4784 83.9163,294.2409 85.4582,297.4472 87.3026,300.0973 89.4497,302.1913 91.8994,303.729 94.6518,304.7105 97.7068,305.1358 101.0644,305.005 104.7247,304.3179 108.6876,303.0746 112.9531,301.2752 117.5213,298.9195 122.3921,296.0076 127.5656,292.5396 133.0417,288.5153 138.8204,283.9349 144.9018,278.7982 151.2858,273.1054 157.9724,266.8563"/>
    <line x1="93.0118" x2="95.9646" y1="305.2422" y2="122.1713"/>
    <polyline points="351.378,318.5296 348.9855,318.2637 346.1595,317.7771 342.9,317.0695 339.207,316.1412 335.0805,314.992 330.5205,313.6219 325.527,312.031 320.1,310.2193 314.2395,308.1867 307.9454,305.9333 301.2179,303.4591 294.0569,300.764 286.4623,297.848 278.4342,294.7112 269.9727,291.3536 261.0776,287.7751 251.749,283.9758 241.9869,279.9556 231.7913,275.7146"/>
    <polyline points="243.6024,324.4351 234.74,324.9013 226.4911,325.0567 218.8557,324.9013 211.8337,324.4351 205.4251,323.658 199.63,322.5702 194.4484,321.1715 189.8802,319.462 185.9255,317.4417 182.5842,315.1106 179.8564,312.4686 177.742,309.5159 176.2411,306.2523 175.3536,302.6779 175.0796,298.7927 175.4191,294.5967 176.372,290.0899 177.9383,285.2722 180.1181,280.1437"/>
    <line x1="138.7795" x2="121.063" y1="333.2933" y2="318.5296"/>
    <polyline points="100.3937,283.0965 104.7247,286.7404 109.3256,289.9017 114.1964,292.5805 119.3371,294.7766 124.7478,296.4902 130.4284,297.7212 136.3789,298.4696 142.5993,298.7355 149.0896,298.5187 155.8499,297.8194 162.8801,296.6375 170.1802,294.973 177.7502,292.8259 185.5901,290.1962 193.7,287.0839 202.0797,283.4891 210.7294,279.4117 219.6491,274.8517 228.8386,269.8091"/>
    <polyline points="234.7441,312.6241 244.4285,311.6057 253.2786,310.4156 261.2944,309.0538 268.4759,307.5201 274.8231,305.8147 280.336,303.9376 285.0146,301.8886 288.8589,299.6679 291.8689,297.2754 294.0446,294.7112 295.386,291.9752 295.8931,289.0674 295.566,285.9879 294.4045,282.7366 292.4087,279.3135 289.5787,275.7187 285.9143,271.9521 281.4156,268.0137 276.0827,263.9036"/>
    <line x1="332.185" x2="351.378" y1="300.813" y2="318.5296"/>
  </g>
  <g fill="none" id="layer3" inkscape:groupmode="layer" inkscape:label="3" stroke="#ff0000" style="display:inline">
    <line x1="305.6102" x2="324.8031" y1="43.9233" y2="58.687"/>
    <line x1="324.8031" x2="311.5157" y1="58.687" y2="73.4508"/>
    <line x1="311.5157" x2="299.7047" y1="73.4508" y2="224.0414"/>
    <line x1="299.7047" x2="314.4685" y1="224.0414" y2="235.8524"/>
    <line x1="314.4685" x2="187.5" y1="235.8524" y2="246.187"/>
    <polyline points="187.5,246.187 187.4877,248.6041 187.4509,250.882 187.3896,253.0209 187.3037,255.0208 187.1933,256.8816 187.0583,258.6033 186.8988,260.1861 186.7148,261.6297 186.5062,262.9343 186.2731,264.0999 186.0154,265.1264 185.7333,266.0139 185.4265,266.7623 185.0953,267.3716 184.7395,267.842 184.3591,268.1732 183.9542,268.3654 183.5248,268.4186 183.0709,268.3327"/>
    <line x1="183.0709" x2="168.3071" y1="268.3327" y2="247.6634"/>
    <polyline points="168.3071,247.6634 168.9083,246.5347 169.4686,245.3241 169.9879,244.0318 170.4664,242.6576 170.904,241.2017 171.3007,239.664 171.6565,238.0445 171.9714,236.3432 172.2455,234.5601 172.4786,232.6952 172.6708,230.7485 172.8221,228.72 172.9325,226.6097 173.0021,224.4176 173.0307,222.1438 173.0184,219.7881 172.9652,217.3506 172.8712,214.8314 172.7362,212.2304"/>
    <line x1="172.7362" x2="169.7835" y1="212.2304" y2="97.0729"/>
    <polyline points="169.7835,97.0729 169.7712,94.435 169.7344,91.8054 169.673,89.1839 169.5872,86.5705 169.4767,83.9654 169.3418,81.3685 169.1823,78.7797 168.9982,76.1991 168.7897,73.6267 168.5566,71.0624 168.2989,68.5064 168.0167,65.9585 167.71,63.4188 167.3787,60.8873 167.0229,58.364 166.6426,55.8488 166.2377,53.3418 165.8083,50.843 165.3543,48.3524"/>
    <line x1="165.3543" x2="171.2598" y1="48.3524" y2="45.3996"/>
    <line x1="171.2598" x2="181.5945" y1="45.3996" y2="73.4508"/>
    <line x1="181.5945" x2="296.752" y1="73.4508" y2="61.6398"/>
    <line x1="296.752" x2="305.6102" y1="61.6398" y2="43.9233"/>
    <polyline points="186.0236,151.6989 193.7613,150.6314 201.1228,149.6049 208.1079,148.6193 214.7169,147.6746 220.9496,146.7708 226.806,145.9079 232.2862,145.0858 237.3901,144.3047 242.1178,143.5645 246.4692,142.8651 250.4444,142.2067 254.0433,141.5891 257.266,141.0125 260.1124,140.4767 262.5826,139.9819 264.6765,139.5279 266.3942,139.1149 267.7356,138.7427 268.7008,138.4115"/>
    <line x1="268.7008" x2="284.9409" y1="138.4115" y2="154.6516"/>
    <polyline points="284.9409,154.6516 281.2807,154.9788 277.4486,155.3387 273.4448,155.7313 269.2693,156.1566 264.9219,156.6147 260.4028,157.1054 255.7119,157.6289 250.8493,158.1851 245.8149,158.774 240.6087,159.3957 235.2308,160.05 229.6811,160.7371 223.9596,161.4569 218.0663,162.2094 212.0013,162.9946 205.7646,163.8125 199.356,164.6632 192.7757,165.5465 186.0236,166.4626"/>
    <line x1="186.0236" x2="187.5" y1="166.4626" y2="232.8996"/>
    <line x1="187.5" x2="284.9409" y1="232.8996" y2="224.0414"/>
    <line x1="284.9409" x2="296.752" y1="224.0414" y2="76.4036"/>
    <line x1="296.752" x2="184.5472" y1="76.4036" y2="88.2146"/>
    <line x1="184.5472" x2="186.0236" y1="88.2146" y2="151.6989"/>
    <polyline points="95.9646,122.1713 92.6969,126.9562 89.4211,131.6757 86.137,136.3298 82.8448,140.9184 79.5445,145.4416 76.2359,149.8994 72.9192,154.2917 69.5942,158.6186 66.2612,162.8801 62.9199,167.0761 59.5704,171.2067 56.2128,175.2718 52.847,179.2715 49.473,183.2058 46.0908,187.0747 42.7004,190.8781 39.3019,194.6161 35.8952,198.2886 32.4803,201.8957"/>
    <line x1="32.4803" x2="28.0512" y1="201.8957" y2="197.4666"/>
    <polyline points="28.0512,197.4666 32.0754,192.1582 36.067,186.8007 40.0258,181.3941 43.9519,175.9384 47.8453,170.4337 51.7059,164.8799 55.5339,159.2771 59.3291,153.6251 63.0916,147.9241 66.8214,142.174 70.5185,136.3748 74.1829,130.5265 77.8145,124.6292 81.4135,118.6828 84.9797,112.6873 88.5132,106.6427 92.0139,100.5491 95.482,94.4064 98.9173,88.2146"/>
    <polyline points="98.9173,88.2146 102.2218,82.1332 105.2972,76.3218 108.1437,70.7803 110.7611,65.5086 113.1494,60.507 115.3088,55.7752 117.2391,51.3133 118.9404,47.1214 120.4127,43.1994 121.656,39.5473 122.6702,36.1651 123.4555,33.0529 124.0117,30.2105 124.3388,27.6381 124.437,25.3356 124.3061,23.3031 123.9462,21.5404 123.3573,20.0477 122.5394,18.8248"/>
    <line x1="122.5394" x2="126.9685" y1="18.8248" y2="15.8721"/>
    <line x1="126.9685" x2="146.1614" y1="15.8721" y2="45.3996"/>
    <polyline points="146.1614,45.3996 145.5275,45.1461 144.8691,45.007 144.1861,44.9825 143.4786,45.0725 142.7465,45.277 141.9899,45.5959 141.2088,46.0295 140.4031,46.5775 139.5729,47.24 138.7182,48.017 137.8389,48.9086 136.9351,49.9147 136.0067,51.0352 135.0538,52.2703 134.0764,53.6199 133.0744,55.084 132.0479,56.6626 130.9968,58.3558 129.9213,60.1634"/>
    <polyline points="129.9213,60.1634 128.8334,62.0365 127.7455,63.9259 126.6577,65.8317 125.5698,67.7539 124.482,69.6924 123.3941,71.6473 122.3063,73.6185 121.2184,75.6061 120.1305,77.61 119.0427,79.6303 117.9548,81.667 116.867,83.72 115.7791,85.7894 114.6913,87.8752 113.6034,89.9773 112.5155,92.0957 111.4277,94.2305 110.3398,96.3817 109.252,98.5493"/>
    <line x1="109.252" x2="106.2992" y1="98.5493" y2="340.6752"/>
    <polyline points="106.2992,340.6752 106.2829,343.5257 106.2338,346.1718 106.152,348.6133 106.0375,350.8504 105.8902,352.883 105.7103,354.711 105.4976,356.3347 105.2523,357.7538 104.9742,358.9684 104.6633,359.9786 104.3198,360.7842 103.9436,361.3854 103.5346,361.7821 103.0929,361.9743 102.6185,361.9621 102.1114,361.7453 101.5715,361.3241 100.999,360.6984 100.3937,359.8681"/>
    <line x1="100.3937" x2="85.6299" y1="359.8681" y2="331.817"/>
    <polyline points="85.6299,331.817 86.3865,331.4489 87.1022,330.9663 87.777,330.3692 88.4109,329.6576 89.0039,328.8315 89.556,327.8909 90.0672,326.8357 90.5375,325.6661 90.967,324.3819 91.3555,322.9832 91.7031,321.4701 92.0098,319.8424 92.2757,318.1001 92.5006,316.2434 92.6846,314.2722 92.8278,312.1865 92.93,309.9862 92.9914,307.6714 93.0118,305.2422"/>
    <line x1="93.0118" x2="95.9646" y1="305.2422" y2="122.1713"/>
    <polyline points="351.378,318.5296 349.0182,318.3987 346.2904,318.3169 343.1945,318.2842 339.7305,318.3005 335.8985,318.366 331.6984,318.4805 327.1302,318.6441 322.1939,318.8567 316.8896,319.1185 311.2172,319.4293 305.1767,319.7892 298.7682,320.1982 291.9916,320.6562 284.8469,321.1633 277.3341,321.7195 269.4533,322.3248 261.2044,322.9791 252.5874,323.6826 243.6024,324.4351"/>
    <polyline points="243.6024,324.4351 234.6255,325.0485 226.0331,325.6456 217.825,326.2264 210.0015,326.7907 202.5623,327.3388 195.5076,327.8704 188.8373,328.3857 182.5515,328.8847 176.6501,329.3672 171.1331,329.8335 166.0005,330.2833 161.2524,330.7168 156.8887,331.134 152.9094,331.5348 149.3146,331.9192 146.1042,332.2873 143.2782,332.639 140.8366,332.9743 138.7795,333.2933"/>
    <line x1="138.7795" x2="121.063" y1="333.2933" y2="318.5296"/>
    <polyline points="121.063,318.5296 123.2919,318.6604 125.9379,318.7422 129.0011,318.7749 132.4814,318.7586 136.3789,318.6932 140.6935,318.5786 145.4253,318.4151 150.5742,318.2024 156.1403,317.9407 162.1235,317.6298 168.5238,317.2699 175.3414,316.861 182.576,316.4029 190.2278,315.8958 198.2968,315.3396 206.7829,314.7343 215.6861,314.08 225.0065,313.3766 234.7441,312.6241"/>
    <polyline points="234.7441,312.6241 244.5839,311.708 253.9002,310.8246 262.693,309.9739 270.9624,309.156 278.7083,308.3708 285.9306,307.6183 292.6296,306.8985 298.805,306.2114 304.4569,305.5571 309.5854,304.9354 314.1904,304.3465 318.2719,303.7903 321.8299,303.2668 324.8645,302.7761 327.3756,302.318 329.3632,301.8927 330.8273,301.5001 331.7679,301.1402 332.185,300.813"/>
    <line x1="332.185" x2="351.378" y1="300.813" y2="318.5296"/>
  </g>
</svg>
