<?xml version="1.0" encoding="utf-8"?>
<!-- Generator: Adobe Illustrator 27.2.0, SVG Export Plug-In . SVG Version: 6.00 Build 0)  -->
<svg version="1.1"
	 id="Layer_1" xmlns:dc="http://purl.org/dc/elements/1.1/" xmlns:ev="http://www.w3.org/2001/xml-events" xmlns:rdf="http://www.w3.org/1999/02/22-rdf-syntax-ns" xmlns:sodipodi="http://sodipodi.sourceforge.net/DTD/sodipodi-0.dtd" xmlns:inkscape="http://www.inkscape.org/namespaces/inkscape" xmlns:cc="http://creativecommons.org/ns"
	 xmlns="http://www.w3.org/2000/svg" xmlns:xlink="http://www.w3.org/1999/xlink" x="0px" y="0px" viewBox="0 0 283.5 283.5"
	 style="enable-background:new 0 0 283.5 283.5;" xml:space="preserve">
<style type="text/css">
	.st0{display:none;}
	.st1{display:inline;fill:none;stroke:#0000FF;stroke-width:0.75;stroke-miterlimit:3;}
	.st2{fill:none;stroke:#008800;stroke-width:0.75;stroke-miterlimit:3;}
	.st3{display:inline;fill:none;stroke:#FF0000;stroke-width:0.75;stroke-miterlimit:3;}
</style>
<g id="layer1" inkscape:groupmode="layer" inkscape:label="1" class="st0">
	<polyline class="st1" points="79.7,259.1 79.5,260.6 79.3,261.9 79,263.2 78.8,264.4 78.6,265.5 78.3,266.4 78.1,267.3 77.9,268.1 
		77.6,268.8 77.4,269.3 77.2,269.8 76.9,270.2 76.7,270.5 76.5,270.7 76.2,270.8 76,270.8 75.8,270.7 75.5,270.5 75.3,270.2 	"/>
	<line class="st1" x1="75.3" y1="270.2" x2="64.2" y2="252.5"/>
	<polyline class="st1" points="64.2,252.5 64.9,251.9 65.5,251.2 66.1,250.5 66.7,249.8 67.2,249 67.6,248.2 68.1,247.3 68.4,246.4 
		68.8,245.5 69.1,244.5 69.3,243.5 69.5,242.4 69.7,241.3 69.8,240.1 69.9,238.9 69.9,237.6 69.9,236.3 69.9,235 69.8,233.6 	"/>
	<line class="st1" x1="69.8" y1="233.6" x2="72" y2="99.7"/>
	<polyline class="st1" points="72,99.7 70.2,102.2 68.3,104.9 66.4,107.5 64.4,110.3 62.3,113 60.2,115.8 57.9,118.7 55.6,121.5 
		53.3,124.5 50.8,127.4 48.3,130.5 45.7,133.5 43,136.6 40.3,139.8 37.5,143 34.6,146.2 31.6,149.5 28.6,152.8 25.5,156.1 	"/>
	<line class="st1" x1="25.5" y1="156.1" x2="22.1" y2="151.7"/>
	<polyline class="st1" points="22.1,151.7 25.6,147.4 29,143.1 32.4,138.7 35.6,134.4 38.9,130.1 42,125.7 45.1,121.4 48.2,117 
		51.1,112.6 54,108.3 56.9,103.9 59.7,99.5 62.4,95.1 65.1,90.7 67.7,86.3 70.2,81.9 72.7,77.5 75.1,73.1 77.5,68.7 	"/>
	<polyline class="st1" points="77.5,68.7 79.9,64.2 82.1,59.9 84.2,55.8 86.1,51.9 87.8,48.1 89.4,44.6 90.9,41.2 92.2,38 
		93.3,34.9 94.3,32.1 95.2,29.4 95.8,26.9 96.4,24.6 96.7,22.4 97,20.5 97,18.7 97,17.1 96.7,15.6 96.3,14.4 	"/>
	<line class="st1" x1="96.3" y1="14.4" x2="99.7" y2="13.3"/>
	<line class="st1" x1="99.7" y1="13.3" x2="112.9" y2="34.3"/>
	<polyline class="st1" points="112.9,34.3 112.5,34.4 112,34.5 111.5,34.7 110.9,34.9 110.4,35.2 109.8,35.7 109.2,36.1 108.6,36.7 
		108,37.3 107.4,38 106.7,38.8 106,39.6 105.3,40.5 104.6,41.5 103.9,42.6 103.1,43.7 102.4,45 101.6,46.3 100.8,47.6 	"/>
	<polyline class="st1" points="100.8,47.6 100,48.9 99.3,50.3 98.5,51.7 97.7,53.2 96.9,54.7 96,56.3 95.1,57.9 94.2,59.6 
		93.2,61.4 92.2,63.2 91.2,65.1 90.2,67 89.1,68.9 88,71 86.8,73.1 85.6,75.2 84.4,77.4 83.2,79.6 81.9,81.9 	"/>
	<line class="st1" x1="81.9" y1="81.9" x2="79.7" y2="259.1"/>
	<polyline class="st1" points="184.9,234.7 185,237.3 185.1,239.7 185,242.2 185,244.5 184.9,246.8 184.7,249 184.5,251.2 
		184.3,253.3 184,255.3 183.6,257.3 183.2,259.2 182.8,261.1 182.3,262.9 181.7,264.6 181.1,266.3 180.5,267.9 179.8,269.5 
		179.1,271 178.3,272.4 	"/>
	<polyline class="st1" points="178.3,272.4 177.4,271.2 176.4,269.9 175.2,268.5 174,267 172.6,265.5 171.1,263.9 169.4,262.1 
		167.6,260.3 165.7,258.4 163.7,256.4 161.5,254.4 159.2,252.2 156.8,250 154.2,247.7 151.5,245.2 148.7,242.7 145.8,240.2 
		142.7,237.5 139.5,234.7 	"/>
	<line class="st1" x1="139.5" y1="234.7" x2="141.7" y2="231.4"/>
	<line class="st1" x1="141.7" y1="231.4" x2="172.7" y2="249.1"/>
	<polyline class="st1" points="172.7,249.1 173.1,248 173.4,246.8 173.7,245.6 173.9,244.4 174.2,243.2 174.4,242 174.6,240.8 
		174.7,239.6 174.9,238.4 175,237.2 175.1,235.9 175.2,234.7 175.2,233.5 175.2,232.2 175.2,231 175.2,229.7 175.1,228.4 
		175.1,227.2 175,225.9 	"/>
	<line class="st1" x1="175" y1="225.9" x2="175" y2="137.3"/>
	<polyline class="st1" points="175,137.3 175,135.3 175.1,133.4 175.1,131.6 175,129.8 174.8,128 174.7,126.3 174.4,124.6 
		174.1,123 173.8,121.5 173.4,119.9 172.9,118.5 172.4,117.1 171.8,115.7 171.2,114.4 170.5,113.1 169.7,111.9 169,110.7 
		168.1,109.6 167.2,108.5 	"/>
	<line class="st1" x1="167.2" y1="108.5" x2="170.5" y2="105.2"/>
	<line class="st1" x1="170.5" y1="105.2" x2="190.5" y2="119.6"/>
	<polyline class="st1" points="190.5,119.6 189.8,120 189.1,120.5 188.5,121.1 188,121.8 187.5,122.6 187,123.5 186.6,124.4 
		186.2,125.5 185.9,126.7 185.6,128 185.4,129.4 185.2,130.8 185,132.4 184.9,134.1 184.8,135.9 184.8,137.7 184.8,139.7 
		184.8,141.8 184.9,143.9 	"/>
	<line class="st1" x1="184.9" y1="143.9" x2="184.9" y2="234.7"/>
	<polyline class="st1" points="140.6,90.8 139,94 137.3,97.3 135.6,100.4 134,103.6 132.2,106.7 130.5,109.8 128.8,112.9 127,115.9 
		125.2,118.9 123.4,121.9 121.6,124.8 119.7,127.8 117.9,130.6 116,133.5 114.1,136.3 112.2,139.1 110.2,141.8 108.3,144.6 
		106.3,147.3 	"/>
	<line class="st1" x1="106.3" y1="147.3" x2="100.8" y2="145.1"/>
	<polyline class="st1" points="100.8,145.1 103.6,140.3 106.4,135.6 109.2,130.9 111.8,126.2 114.4,121.5 116.9,116.9 119.4,112.4 
		121.7,107.8 124,103.3 126.2,98.8 128.4,94.3 130.4,89.9 132.4,85.5 134.3,81.2 136.2,76.8 138,72.5 139.7,68.2 141.3,64 
		142.8,59.8 	"/>
	<polyline class="st1" points="142.8,59.8 144.3,55.6 145.6,51.5 146.9,47.7 148,44.1 149,40.6 149.8,37.3 150.6,34.3 151.2,31.4 
		151.8,28.7 152.2,26.2 152.5,23.9 152.6,21.7 152.7,19.8 152.6,18.1 152.5,16.5 152.2,15.1 151.8,14 151.2,13 150.6,12.2 	"/>
	<line class="st1" x1="150.6" y1="12.2" x2="153.9" y2="10"/>
	<line class="st1" x1="153.9" y1="10" x2="170.5" y2="29.9"/>
	<polyline class="st1" points="170.5,29.9 170.1,29.7 169.6,29.6 169.1,29.6 168.6,29.7 168.1,29.9 167.6,30.2 167.1,30.5 166.6,31 
		166.1,31.5 165.6,32.2 165,32.9 164.5,33.7 163.9,34.6 163.4,35.7 162.8,36.8 162.3,37.9 161.7,39.2 161.1,40.6 160.6,42.1 	"/>
	<polyline class="st1" points="160.6,42.1 160,43.6 159.3,45.3 158.6,47 157.9,48.8 157.2,50.6 156.4,52.6 155.6,54.6 154.7,56.8 
		153.8,58.9 152.9,61.2 151.9,63.6 150.9,66 149.9,68.5 148.8,71.1 147.7,73.8 146.5,76.5 145.3,79.4 144.1,82.3 142.8,85.3 	"/>
	<line class="st1" x1="142.8" y1="85.3" x2="229.2" y2="74.2"/>
	<line class="st1" x1="229.2" y1="74.2" x2="237" y2="64.2"/>
	<line class="st1" x1="237" y1="64.2" x2="251.4" y2="80.8"/>
	<polyline class="st1" points="251.4,80.8 250.6,81 249.9,81.2 249.2,81.5 248.4,81.8 247.6,82.2 246.8,82.6 246,83.2 245.2,83.7 
		244.3,84.4 243.4,85.1 242.5,85.8 241.6,86.6 240.7,87.5 239.8,88.5 238.8,89.5 237.8,90.5 236.8,91.7 235.8,92.9 234.7,94.1 	"/>
	<polyline class="st1" points="234.7,94.1 233.8,95.4 232.9,96.7 231.9,98 231,99.3 230.1,100.7 229.1,102 228.2,103.4 227.3,104.8 
		226.4,106.2 225.4,107.6 224.5,109 223.6,110.4 222.6,111.8 221.7,113.3 220.8,114.7 219.8,116.2 218.9,117.7 218,119.2 217,120.7 
			"/>
	<line class="st1" x1="217" y1="120.7" x2="211.5" y2="118.5"/>
	<line class="st1" x1="211.5" y1="118.5" x2="228.1" y2="85.3"/>
	<polyline class="st1" points="228.1,85.3 220.5,86.5 213.2,87.7 206.4,88.9 199.9,90 193.8,91.1 188.1,92.1 182.8,93 177.8,93.9 
		173.2,94.8 169,95.6 165.2,96.4 161.8,97.1 158.7,97.8 156,98.4 153.7,99 151.8,99.5 150.3,100 149.1,100.4 148.4,100.8 	"/>
	<line class="st1" x1="148.4" y1="100.8" x2="140.6" y2="90.8"/>
	<polyline class="st1" points="97.4,223.7 99,221.9 100.5,220.1 102,218.2 103.6,216.3 105.1,214.3 106.6,212.3 108.2,210.2 
		109.8,208.1 111.3,205.9 112.9,203.7 114.5,201.5 116.1,199.2 117.7,196.8 119.3,194.4 120.9,191.9 122.5,189.4 124.1,186.9 
		125.7,184.3 127.3,181.6 	"/>
	<polyline class="st1" points="127.3,181.6 129,178.8 130.6,176.2 132.1,173.6 133.4,171.1 134.7,168.8 135.8,166.5 136.9,164.3 
		137.8,162.2 138.6,160.1 139.3,158.2 139.9,156.4 140.4,154.7 140.7,153 141,151.4 141.1,150 141.2,148.6 141.1,147.3 140.9,146.1 
		140.6,145.1 	"/>
	<line class="st1" x1="140.6" y1="145.1" x2="143.9" y2="142.8"/>
	<line class="st1" x1="143.9" y1="142.8" x2="157.2" y2="165"/>
	<polyline class="st1" points="157.2,165 156.6,165 155.9,165.2 155.2,165.5 154.4,166 153.6,166.5 152.6,167.2 151.7,168 
		150.6,168.9 149.5,170 148.3,171.1 147.1,172.4 145.8,173.8 144.5,175.4 143.1,177 141.6,178.8 140.1,180.7 138.5,182.7 
		136.8,184.9 135.1,187.1 	"/>
	<polyline class="st1" points="135.1,187.1 133.4,189.5 131.8,191.8 130.1,194.1 128.4,196.4 126.7,198.6 125,200.9 123.2,203.1 
		121.4,205.4 119.7,207.6 117.9,209.8 116,212 114.2,214.2 112.3,216.4 110.4,218.6 108.5,220.7 106.6,222.9 104.7,225 102.7,227.1 
		100.8,229.2 	"/>
	<line class="st1" x1="100.8" y1="229.2" x2="97.4" y2="223.7"/>
	<polyline class="st1" points="252.5,215.9 251.3,213.8 250.1,211.4 248.7,209 247.1,206.4 245.4,203.7 243.5,200.8 241.5,197.8 
		239.4,194.6 237.1,191.3 234.6,187.9 232,184.3 229.3,180.6 226.4,176.7 223.3,172.7 220.2,168.6 216.8,164.3 213.4,159.9 
		209.7,155.3 206,150.6 	"/>
	<line class="st1" x1="206" y1="150.6" x2="209.3" y2="147.3"/>
	<polyline class="st1" points="209.3,147.3 212.8,150.6 216.3,153.8 219.7,157 222.9,160.1 226.1,163 229.2,165.9 232.2,168.7 
		235,171.4 237.8,174 240.5,176.5 243.1,178.9 245.6,181.2 248,183.4 250.2,185.6 252.4,187.6 254.5,189.6 256.5,191.4 258.4,193.2 
		260.2,194.9 	"/>
	<polyline class="st1" points="260.2,194.9 259.9,196.3 259.5,197.6 259.1,198.9 258.8,200.2 258.4,201.5 258,202.7 257.6,203.9 
		257.2,205.1 256.8,206.2 256.4,207.3 256,208.4 255.6,209.5 255.1,210.5 254.7,211.5 254.3,212.4 253.8,213.3 253.4,214.2 
		252.9,215.1 252.5,215.9 	"/>
</g>
<g id="layer2" inkscape:groupmode="layer" inkscape:label="2">
	<line class="st2" x1="109.6" y1="155" x2="145.1" y2="143.9"/>
	<line class="st2" x1="122.9" y1="146.2" x2="147.3" y2="148.4"/>
	<line class="st2" x1="122.9" y1="148.4" x2="109.6" y2="165"/>
	<line class="st2" x1="105.2" y1="156.1" x2="108.5" y2="237"/>
	<polyline class="st2" points="104.1,192.7 104.7,199.4 105.7,205.8 107,211.6 108.7,217.1 110.7,222 113.1,226.6 115.8,230.6 
		118.8,234.3 122.2,237.5 125.9,240.2 130,242.5 134.4,244.3 139.2,245.7 144.3,246.7 149.7,247.2 155.5,247.2 161.7,246.8 
		168.1,246 175,244.7 	"/>
	<polyline class="st2" points="97.4,273.5 96.7,271.9 96.4,270.2 96.6,268.4 97.1,266.5 98.1,264.5 99.6,262.3 101.4,260 
		103.7,257.6 106.4,255.1 109.6,252.5 113.2,249.8 117.2,246.9 121.6,244 126.5,240.9 131.8,237.7 137.5,234.3 143.6,230.9 
		150.2,227.3 157.2,223.7 	"/>
	<line class="st2" x1="62" y1="232.5" x2="64.2" y2="229.2"/>
	<line class="st2" x1="81.9" y1="188.2" x2="94.1" y2="250.2"/>
	<polyline class="st2" points="96.3,199.3 96.7,203.6 97.4,207.5 98.6,211 100.2,214.2 102.2,217.1 104.7,219.6 107.5,221.7 
		110.8,223.6 114.5,225 118.7,226.1 123.2,226.9 128.2,227.3 133.6,227.3 139.4,227.1 145.7,226.4 152.4,225.4 159.5,224.1 
		167,222.4 175,220.3 	"/>
	<line class="st2" x1="97.4" y1="224.8" x2="99.7" y2="169.4"/>
	<polyline class="st2" points="99.7,158.3 95.5,161.4 92.1,164.5 89.5,167.4 87.6,170.3 86.5,173.1 86.2,175.8 86.6,178.4 87.8,181 
		89.8,183.4 92.5,185.8 96,188.1 100.3,190.4 105.4,192.5 111.2,194.6 117.7,196.6 125.1,198.5 133.2,200.3 142.1,202.1 
		151.7,203.7 	"/>
	<line class="st2" x1="50.9" y1="192.7" x2="32.1" y2="180.5"/>
	<polyline class="st2" points="65.3,163.9 63.2,165.6 62,167.3 61.6,168.9 62.1,170.5 63.6,172 65.8,173.5 69,174.9 73.1,176.3 
		78,177.6 83.9,178.9 90.6,180.1 98.2,181.3 106.6,182.5 116,183.5 126.2,184.6 137.4,185.6 149.4,186.5 162.3,187.4 176.1,188.2 	
		"/>
	<line class="st2" x1="99.7" y1="159.4" x2="99.7" y2="119.6"/>
	<polyline class="st2" points="99.7,132.9 95,132.3 91.2,132.1 88.2,132.1 86,132.4 84.6,133.1 84,134 84.3,135.2 85.3,136.7 
		87.1,138.5 89.7,140.6 93.1,143 97.4,145.7 102.4,148.7 108.2,151.9 114.9,155.5 122.3,159.4 130.6,163.5 139.6,168 149.5,172.7 	
		"/>
	<line class="st2" x1="47.6" y1="129.6" x2="32.1" y2="116.3"/>
	<polyline class="st2" points="65.3,131.8 64.4,130.2 64.3,129 64.9,128.1 66.2,127.6 68.3,127.5 71.1,127.7 74.7,128.2 79,129.2 
		84.1,130.4 89.9,132.1 96.5,134.1 103.8,136.4 111.9,139.1 120.7,142.2 130.3,145.6 140.6,149.3 151.7,153.5 163.5,157.9 
		176.1,162.8 	"/>
	<line class="st2" x1="99.7" y1="109.6" x2="99.7" y2="66.4"/>
	<polyline class="st2" points="99.7,106.3 97,103.6 95,101.4 93.5,99.7 92.7,98.7 92.4,98.2 92.7,98.3 93.5,98.9 95,100.1 97,101.9 
		99.7,104.2 102.9,107.1 106.6,110.6 111,114.6 116,119.2 121.5,124.3 127.6,130.1 134.3,136.3 141.6,143.2 149.5,150.6 	"/>
	<line class="st2" x1="45.4" y1="84.2" x2="44.3" y2="78.6"/>
	<polyline class="st2" points="72,112.9 71.6,109 71.9,105.7 72.8,102.9 74.3,100.8 76.5,99.2 79.4,98.1 82.9,97.7 87,97.8 
		91.8,98.5 97.2,99.8 103.3,101.7 110,104.1 117.3,107.1 125.3,110.7 133.9,114.9 143.2,119.6 153.2,124.9 163.7,130.8 175,137.3 	
		"/>
	<polyline class="st2" points="97.4,57.6 101,56.2 104.7,55.4 108.6,55.1 112.7,55.4 116.8,56.2 121.2,57.5 125.7,59.4 130.3,61.8 
		135.1,64.8 140.1,68.3 145.2,72.3 150.4,76.9 155.9,82 161.4,87.6 167.1,93.8 173,100.6 179,107.8 185.2,115.7 191.6,124 	"/>
	<line class="st2" x1="131.8" y1="33.2" x2="134" y2="32.1"/>
	<line class="st2" x1="116.3" y1="89.7" x2="143.9" y2="48.7"/>
	<polyline class="st2" points="121.8,97.4 123.6,92.8 125.6,88.9 127.7,85.8 129.9,83.5 132.3,81.9 134.8,81.1 137.5,81 140.3,81.7 
		143.3,83.1 146.3,85.4 149.6,88.3 152.9,92.1 156.5,96.6 160.1,101.8 163.9,107.8 167.8,114.6 171.9,122.2 176.1,130.5 
		180.5,139.5 	"/>
	<line class="st2" x1="109.6" y1="62" x2="109.6" y2="108.5"/>
	<line class="st2" x1="105.2" y1="128.4" x2="159.4" y2="101.9"/>
	<polyline class="st2" points="129.6,124 132.5,118.3 135.6,113.2 138.8,108.9 142.1,105.2 145.5,102.1 149,99.8 152.7,98.1 
		156.4,97.1 160.2,96.8 164.2,97.1 168.3,98.2 172.5,99.9 176.8,102.2 181.2,105.3 185.7,109 190.3,113.4 195,118.5 199.9,124.2 
		204.8,130.7 	"/>
	<polyline class="st2" points="157.2,44.3 157.4,42.2 157.7,40.7 158.3,39.9 159.1,39.7 160.2,40.2 161.5,41.3 163.1,43.1 
		164.9,45.5 166.9,48.6 169.2,52.3 171.7,56.7 174.5,61.7 177.5,67.4 180.7,73.7 184.1,80.7 187.9,88.4 191.8,96.6 196,105.6 
		200.4,115.2 	"/>
	<line class="st2" x1="149.5" y1="13.3" x2="151.7" y2="10"/>
	<line class="st2" x1="125.1" y1="78.6" x2="173.8" y2="26.6"/>
	<polyline class="st2" points="136.2,86.4 139.5,80.5 142.8,75.6 146.3,71.6 149.7,68.5 153.3,66.2 156.9,64.9 160.5,64.6 
		164.3,65.1 168.1,66.5 171.9,68.8 175.8,72.1 179.8,76.2 183.8,81.3 187.9,87.2 192.1,94.1 196.3,101.9 200.5,110.6 204.9,120.2 
		209.3,130.7 	"/>
	<polyline class="st2" points="167.2,46.5 167.3,48.8 167.7,51.5 168.3,54.6 169.2,58.1 170.3,62 171.6,66.3 173.2,71 175.1,76 
		177.1,81.5 179.5,87.4 182,93.7 184.9,100.4 187.9,107.5 191.2,115 194.8,122.8 198.6,131.1 202.7,139.8 207,148.9 211.5,158.3 	
		"/>
	<polyline class="st2" points="169.4,100.8 174.7,100.1 179.8,99.9 184.8,100 189.6,100.5 194.2,101.4 198.7,102.6 203,104.2 
		207.2,106.2 211.2,108.6 215.1,111.3 218.7,114.4 222.3,117.9 225.6,121.8 228.8,126 231.9,130.6 234.8,135.6 237.5,141 
		240.1,146.7 242.5,152.8 	"/>
	<line class="st2" x1="231.4" y1="89.7" x2="244.7" y2="104.1"/>
	<polyline class="st2" points="171.6,126.2 177.4,124 182.7,122.3 187.6,121 192.2,120.2 196.3,119.8 200,119.9 203.3,120.5 
		206.2,121.6 208.7,123.1 210.8,125.1 212.5,127.5 213.8,130.4 214.7,133.8 215.2,137.7 215.2,142 214.9,146.7 214.2,152 213,157.7 
		211.5,163.9 	"/>
	<polyline class="st2" points="170.5,110.7 171,114.4 171.7,118.1 172.6,122 173.7,125.9 175.1,129.9 176.7,134 178.5,138.1 
		180.6,142.4 182.9,146.7 185.4,151.2 188.1,155.7 191.1,160.3 194.2,165 197.7,169.7 201.3,174.6 205.2,179.5 209.3,184.6 
		213.6,189.7 218.1,194.9 	"/>
	<polyline class="st2" points="182.7,175 184.2,173.6 185.7,172.5 187.4,171.6 189.2,170.8 191.1,170.3 193.1,169.9 195.2,169.7 
		197.4,169.7 199.8,169.8 202.2,170.2 204.8,170.7 207.4,171.4 210.2,172.3 213.1,173.4 216.1,174.7 219.2,176.1 222.4,177.8 
		225.8,179.6 229.2,181.6 	"/>
	<polyline class="st2" points="206,146.2 207.1,144.7 208.3,143.5 209.6,142.6 210.9,142.1 212.2,141.8 213.5,141.9 214.9,142.3 
		216.3,142.9 217.7,143.9 219.1,145.2 220.6,146.8 222.1,148.7 223.7,150.9 225.3,153.4 226.9,156.2 228.5,159.3 230.2,162.7 
		231.9,166.5 233.6,170.5 	"/>
	<line class="st2" x1="213.7" y1="124" x2="217" y2="122.9"/>
	<line class="st2" x1="158.3" y1="135.1" x2="230.3" y2="143.9"/>
	<polyline class="st2" points="165,146.2 171.1,145.9 177,146 182.6,146.3 187.9,146.8 192.9,147.6 197.7,148.7 202.1,150 
		206.3,151.6 210.2,153.4 213.8,155.5 217.1,157.9 220.2,160.5 223,163.4 225.4,166.5 227.6,169.9 229.6,173.5 231.2,177.4 
		232.6,181.6 233.6,186 	"/>
	<polyline class="st2" points="213.7,156.1 212.6,157.6 211.7,159.1 210.9,160.8 210.3,162.5 209.8,164.3 209.5,166.3 209.3,168.3 
		209.3,170.5 209.4,172.7 209.7,175 210.2,177.5 210.8,180 211.5,182.6 212.4,185.3 213.5,188.1 214.7,191.1 216.1,194.1 
		217.6,197.2 219.2,200.4 	"/>
	<polyline class="st2" points="186,184.9 188.1,190 190.3,194.9 192.6,199.4 195.1,203.7 197.7,207.7 200.5,211.4 203.4,214.9 
		206.4,218 209.6,220.9 212.9,223.6 216.4,225.9 220,228 223.7,229.8 227.6,231.3 231.6,232.5 235.8,233.5 240.1,234.2 244.5,234.6 
		249.1,234.7 	"/>
	<line class="st2" x1="244.7" y1="252.5" x2="244.7" y2="201.5"/>
	<line class="st2" x1="171.6" y1="175" x2="250.2" y2="201.5"/>
	<polyline class="st2" points="175,175 183.1,183.2 190.9,190.9 198.2,198.2 205.1,204.9 211.5,211.1 217.6,216.8 223.2,222 
		228.3,226.7 233.1,230.9 237.4,234.6 241.3,237.7 244.7,240.4 247.8,242.5 250.4,244.2 252.5,245.3 254.3,245.9 255.6,246 
		256.4,245.6 256.9,244.7 	"/>
	<polyline class="st2" points="261.3,273.5 255.3,271.7 249.7,269.6 244.6,267.4 239.7,264.9 235.3,262.3 231.3,259.5 227.7,256.5 
		224.5,253.2 221.6,249.8 219.2,246.2 217.1,242.4 215.5,238.4 214.2,234.2 213.3,229.8 212.8,225.2 212.7,220.4 213,215.4 
		213.7,210.2 214.8,204.8 	"/>
	<polyline class="st2" points="177.2,193.8 174.5,196.1 172.3,198.3 170.3,200.4 168.8,202.5 167.5,204.4 166.7,206.3 166.2,208.1 
		166,209.9 166.2,211.5 166.7,213.1 167.5,214.6 168.8,216 170.3,217.3 172.3,218.6 174.5,219.8 177.2,220.9 180.1,221.9 
		183.5,222.8 187.1,223.7 	"/>
	<line class="st2" x1="121.8" y1="230.3" x2="118.5" y2="225.9"/>
	<polyline class="st2" points="109.6,186 113.6,188.3 117.7,190.3 121.9,192.2 126.4,194 131,195.5 135.8,196.9 140.8,198.1 
		145.9,199.2 151.2,200 156.7,200.7 162.3,201.3 168.1,201.6 174.1,201.8 180.3,201.8 186.6,201.7 193.1,201.3 199.8,200.8 
		206.7,200.2 213.7,199.3 	"/>
	<polyline class="st2" points="173.8,182.7 172.9,179.7 172.3,176.9 172,174.3 172,171.9 172.3,169.8 172.8,167.9 173.7,166.2 
		174.9,164.8 176.3,163.6 178.1,162.6 180.1,161.8 182.5,161.3 185.1,161 188,160.9 191.2,161 194.8,161.4 198.6,162 202.7,162.8 
		207.1,163.9 	"/>
	<line class="st2" x1="160.6" y1="111.8" x2="109.6" y2="118.5"/>
	<line class="st2" x1="105.2" y1="132.9" x2="109.6" y2="155"/>
	<polyline class="st2" points="184.9,33.2 187.7,35 190.5,37.3 193.3,39.9 196.1,42.9 198.9,46.4 201.7,50.2 204.5,54.4 207.3,59 
		210.1,64.1 212.9,69.5 215.7,75.3 218.5,81.5 221.3,88.1 224.1,95.1 226.9,102.6 229.7,110.4 232.5,118.6 235.3,127.2 238.1,136.2 
			"/>
	<polyline class="st2" points="223.7,56.5 223.6,57.7 223.6,59.4 223.7,61.4 223.8,63.8 224.1,66.6 224.4,69.8 224.8,73.4 
		225.3,77.4 225.9,81.8 226.5,86.6 227.2,91.8 228,97.3 228.9,103.3 229.9,109.6 230.9,116.4 232,123.5 233.2,131 234.5,139 
		235.9,147.3 	"/>
	<polyline class="st2" points="220.3,78.6 219.2,77.2 218.2,76.2 217.3,75.7 216.5,75.6 215.8,75.9 215.2,76.7 214.7,77.9 
		214.4,79.5 214.1,81.6 213.9,84.1 213.8,87 213.9,90.4 214,94.2 214.3,98.5 214.6,103.1 215,108.3 215.6,113.8 216.3,119.8 
		217,126.2 	"/>
	<line class="st2" x1="181.6" y1="36.5" x2="184.9" y2="33.2"/>
</g>
<g id="layer3" inkscape:groupmode="layer" inkscape:label="3" class="st0">
	<line class="st3" x1="109.6" y1="155" x2="145.1" y2="143.9"/>
	<line class="st3" x1="145.1" y1="143.9" x2="147.3" y2="148.4"/>
	<line class="st3" x1="147.3" y1="148.4" x2="109.6" y2="165"/>
	<line class="st3" x1="109.6" y1="165" x2="108.5" y2="237"/>
	<polyline class="st3" points="108.5,237 108.5,239.3 108.4,241.5 108.2,243.8 108,245.9 107.7,248.1 107.4,250.2 107,252.2 
		106.6,254.2 106,256.2 105.4,258.1 104.8,260 104.1,261.8 103.3,263.6 102.5,265.4 101.6,267.1 100.7,268.8 99.6,270.4 98.6,272 
		97.4,273.5 	"/>
	<polyline class="st3" points="97.4,273.5 96.5,272 95.4,270.3 94.2,268.6 92.9,266.9 91.6,265.1 90.1,263.2 88.5,261.2 86.8,259.2 
		85.1,257.1 83.2,255 81.2,252.7 79.2,250.5 77,248.1 74.8,245.7 72.4,243.2 70,240.6 67.4,238 64.8,235.3 62,232.5 	"/>
	<line class="st3" x1="62" y1="232.5" x2="64.2" y2="229.2"/>
	<line class="st3" x1="64.2" y1="229.2" x2="94.1" y2="250.2"/>
	<polyline class="st3" points="94.1,250.2 94.5,249.3 94.8,248.3 95.1,247.3 95.4,246.2 95.6,245 95.9,243.9 96.1,242.7 96.3,241.4 
		96.5,240.1 96.7,238.8 96.9,237.4 97,236 97.1,234.5 97.2,233 97.3,231.4 97.4,229.8 97.4,228.2 97.4,226.5 97.4,224.8 	"/>
	<line class="st3" x1="97.4" y1="224.8" x2="99.7" y2="169.4"/>
	<polyline class="st3" points="99.7,169.4 95.2,171.4 91,173.2 87,175 83.1,176.7 79.5,178.3 76.1,179.9 72.9,181.3 70,182.7 
		67.2,184 64.6,185.2 62.3,186.4 60.1,187.4 58.2,188.4 56.5,189.3 54.9,190.2 53.6,190.9 52.5,191.6 51.6,192.2 50.9,192.7 	"/>
	<line class="st3" x1="50.9" y1="192.7" x2="32.1" y2="180.5"/>
	<polyline class="st3" points="32.1,180.5 33.2,180.4 34.5,180.3 36.2,180 38,179.6 40.2,179 42.7,178.4 45.4,177.6 48.4,176.8 
		51.7,175.8 55.2,174.7 59.1,173.4 63.2,172.1 67.6,170.6 72.2,169.1 77.2,167.4 82.4,165.6 87.9,163.6 93.6,161.6 99.7,159.4 	"/>
	<line class="st3" x1="99.7" y1="159.4" x2="99.7" y2="119.6"/>
	<polyline class="st3" points="99.7,119.6 94.8,120.3 90.1,120.9 85.7,121.6 81.5,122.2 77.6,122.9 73.9,123.5 70.4,124 67.2,124.6 
		64.2,125.1 61.5,125.7 59,126.2 56.7,126.7 54.7,127.1 52.9,127.6 51.4,128 50.1,128.4 49,128.8 48.2,129.2 47.6,129.6 	"/>
	<line class="st3" x1="47.6" y1="129.6" x2="32.1" y2="116.3"/>
	<polyline class="st3" points="32.1,116.3 34.4,116.1 36.8,116 39.4,115.8 42.1,115.6 44.9,115.4 47.9,115.1 51.1,114.8 54.3,114.5 
		57.8,114.2 61.3,113.9 65,113.5 68.8,113.1 72.8,112.7 76.9,112.2 81.2,111.8 85.6,111.3 90.1,110.7 94.8,110.2 99.7,109.6 	"/>
	<line class="st3" x1="99.7" y1="109.6" x2="99.7" y2="66.4"/>
	<polyline class="st3" points="99.7,66.4 96.7,67.6 93.8,68.7 90.9,69.8 88,70.9 85.2,72 82.3,73 79.4,74 76.5,75 73.7,75.9 
		70.8,76.9 68,77.8 65.1,78.7 62.3,79.5 59.5,80.4 56.6,81.2 53.8,81.9 51,82.7 48.2,83.4 45.4,84.2 	"/>
	<line class="st3" x1="45.4" y1="84.2" x2="44.3" y2="78.6"/>
	<polyline class="st3" points="44.3,78.6 46.5,78 48.8,77.3 51.2,76.6 53.6,75.8 56.1,75 58.7,74.1 61.3,73.2 64,72.2 66.7,71.1 
		69.5,70 72.4,68.9 75.3,67.6 78.3,66.4 81.3,65 84.4,63.7 87.6,62.2 90.8,60.7 94.1,59.2 97.4,57.6 	"/>
	<polyline class="st3" points="97.4,57.6 100.8,56 104.1,54.4 107.1,52.8 110,51.3 112.7,49.9 115.2,48.5 117.6,47.1 119.7,45.7 
		121.7,44.4 123.5,43.1 125.1,41.9 126.6,40.6 127.9,39.5 129,38.3 129.9,37.2 130.6,36.2 131.2,35.2 131.6,34.2 131.8,33.2 	"/>
	<line class="st3" x1="131.8" y1="33.2" x2="134" y2="32.1"/>
	<line class="st3" x1="134" y1="32.1" x2="143.9" y2="48.7"/>
	<polyline class="st3" points="143.9,48.7 143.3,48.9 142.5,49.1 141.6,49.3 140.6,49.7 139.4,50.1 138.1,50.5 136.7,51 135.2,51.6 
		133.5,52.3 131.7,53 129.7,53.7 127.7,54.5 125.5,55.4 123.2,56.4 120.7,57.4 118.1,58.4 115.4,59.6 112.6,60.8 109.6,62 	"/>
	<line class="st3" x1="109.6" y1="62" x2="109.6" y2="108.5"/>
	<line class="st3" x1="109.6" y1="108.5" x2="159.4" y2="101.9"/>
	<polyline class="st3" points="159.4,101.9 159.2,98.2 159,94.6 158.8,91 158.6,87.5 158.4,84.1 158.3,80.8 158.1,77.6 158,74.4 
		157.8,71.3 157.7,68.3 157.6,65.3 157.5,62.4 157.5,59.6 157.4,56.9 157.3,54.2 157.3,51.6 157.3,49.1 157.2,46.7 157.2,44.3 	"/>
	<polyline class="st3" points="157.2,44.3 157.2,41.9 157.1,39.6 157,37.3 156.9,35.2 156.7,33.1 156.5,31.2 156.2,29.3 155.9,27.5 
		155.5,25.7 155.1,24.1 154.6,22.6 154.1,21.1 153.6,19.7 153,18.4 152.4,17.2 151.7,16.1 151,15.1 150.3,14.1 149.5,13.3 	"/>
	<line class="st3" x1="149.5" y1="13.3" x2="151.7" y2="10"/>
	<line class="st3" x1="151.7" y1="10" x2="173.8" y2="26.6"/>
	<polyline class="st3" points="173.8,26.6 173.2,26.6 172.5,26.8 171.9,27.1 171.3,27.5 170.8,28 170.3,28.6 169.8,29.3 169.4,30.1 
		169,31 168.7,32.1 168.4,33.3 168.1,34.5 167.9,35.9 167.7,37.4 167.5,39 167.4,40.7 167.3,42.5 167.2,44.5 167.2,46.5 	"/>
	<polyline class="st3" points="167.2,46.5 167.2,48.6 167.2,50.9 167.3,53.2 167.3,55.5 167.4,58 167.4,60.5 167.5,63.1 167.6,65.8 
		167.7,68.6 167.8,71.5 167.9,74.4 168.1,77.4 168.2,80.5 168.4,83.7 168.6,86.9 168.8,90.3 169,93.7 169.2,97.2 169.4,100.8 	"/>
	<polyline class="st3" points="169.4,100.8 174.7,100 179.7,99.2 184.5,98.4 189.1,97.7 193.5,97 197.6,96.3 201.5,95.7 205.2,95 
		208.7,94.4 212,93.8 215,93.3 217.9,92.7 220.5,92.2 222.8,91.7 225,91.3 226.9,90.8 228.6,90.4 230.1,90.1 231.4,89.7 	"/>
	<line class="st3" x1="231.4" y1="89.7" x2="244.7" y2="104.1"/>
	<polyline class="st3" points="244.7,104.1 242.8,104 240.8,103.9 238.4,104 235.9,104 233.1,104.1 230.1,104.3 226.9,104.5 
		223.5,104.7 219.8,105 215.9,105.4 211.7,105.8 207.4,106.2 202.8,106.7 198,107.3 192.9,107.9 187.7,108.5 182.2,109.2 
		176.5,109.9 170.5,110.7 	"/>
	<polyline class="st3" points="170.5,110.7 170.9,114.3 171.3,117.9 171.7,121.5 172.2,125 172.7,128.5 173.2,132 173.7,135.4 
		174.3,138.8 174.9,142.3 175.6,145.6 176.2,149 176.9,152.3 177.7,155.6 178.4,158.9 179.2,162.2 180,165.4 180.9,168.6 
		181.8,171.8 182.7,175 	"/>
	<polyline class="st3" points="182.7,175 184.1,173.5 185.5,172.1 186.8,170.7 188.1,169.3 189.5,167.8 190.8,166.3 192,164.9 
		193.3,163.4 194.5,161.9 195.8,160.4 197,158.8 198.2,157.3 199.3,155.7 200.5,154.2 201.6,152.6 202.7,151 203.8,149.4 
		204.9,147.8 206,146.2 	"/>
	<polyline class="st3" points="206,146.2 207.1,144.6 208.1,143 209.1,141.5 210,140 210.8,138.6 211.5,137.3 212.2,135.9 
		212.7,134.7 213.2,133.5 213.6,132.3 214,131.2 214.2,130.1 214.4,129.1 214.5,128.1 214.5,127.2 214.4,126.3 214.2,125.5 
		214,124.7 213.7,124 	"/>
	<line class="st3" x1="213.7" y1="124" x2="217" y2="122.9"/>
	<line class="st3" x1="217" y1="122.9" x2="230.3" y2="143.9"/>
	<polyline class="st3" points="230.3,143.9 229.7,143.9 229.1,143.9 228.4,144 227.7,144.1 227,144.4 226.3,144.7 225.5,145.1 
		224.7,145.6 223.8,146.1 223,146.8 222,147.5 221.1,148.3 220.1,149.2 219.2,150.1 218.1,151.2 217.1,152.3 216,153.5 214.9,154.8 
		213.7,156.1 	"/>
	<polyline class="st3" points="213.7,156.1 212.5,157.5 211.3,158.9 210.1,160.4 208.8,161.8 207.5,163.3 206.2,164.7 204.8,166.2 
		203.4,167.7 202,169.2 200.5,170.7 199,172.3 197.5,173.8 196,175.3 194.4,176.9 192.8,178.5 191.1,180.1 189.5,181.7 187.8,183.3 
		186,184.9 	"/>
	<polyline class="st3" points="186,184.9 188.1,190.1 190.2,195.1 192.5,199.9 194.9,204.5 197.4,208.9 200,213.2 202.7,217.3 
		205.6,221.2 208.6,224.9 211.7,228.5 214.9,231.8 218.2,235 221.6,238.1 225.2,240.9 228.9,243.6 232.6,246.1 236.6,248.4 
		240.6,250.5 244.7,252.5 	"/>
	<line class="st3" x1="244.7" y1="252.5" x2="244.7" y2="201.5"/>
	<line class="st3" x1="244.7" y1="201.5" x2="250.2" y2="201.5"/>
	<polyline class="st3" points="250.2,201.5 250.7,207.1 251.2,212.5 251.7,217.7 252.2,222.8 252.7,227.6 253.3,232.1 253.8,236.5 
		254.4,240.7 254.9,244.7 255.5,248.5 256.1,252.1 256.7,255.5 257.3,258.7 258,261.6 258.6,264.4 259.3,267 259.9,269.4 
		260.6,271.5 261.3,273.5 	"/>
	<polyline class="st3" points="261.3,273.5 255.2,271.6 249.3,269.5 243.6,267.1 238.1,264.4 232.7,261.5 227.6,258.4 222.6,254.9 
		217.8,251.3 213.2,247.3 208.7,243.1 204.5,238.7 200.4,234 196.6,229 192.9,223.8 189.4,218.3 186,212.5 182.9,206.5 179.9,200.3 
		177.2,193.8 	"/>
	<polyline class="st3" points="177.2,193.8 174.4,196.1 171.5,198.4 168.7,200.6 165.9,202.8 163,204.9 160.2,207 157.3,209 
		154.4,211 151.5,213 148.6,214.9 145.7,216.8 142.7,218.7 139.8,220.5 136.8,222.2 133.8,223.9 130.8,225.6 127.8,227.2 
		124.8,228.8 121.8,230.3 	"/>
	<line class="st3" x1="121.8" y1="230.3" x2="118.5" y2="225.9"/>
	<polyline class="st3" points="118.5,225.9 121.4,224 124.3,222.1 127.2,220.1 130.1,218.1 133,216 136,213.9 138.9,211.8 
		141.8,209.6 144.7,207.4 147.6,205.1 150.5,202.8 153.4,200.4 156.4,198 159.3,195.6 162.2,193.1 165.1,190.6 168,188 170.9,185.4 
		173.8,182.7 	"/>
	<polyline class="st3" points="173.8,182.7 172.8,179.5 171.8,176.3 170.9,173 169.9,169.6 169.1,166.2 168.2,162.7 167.4,159.2 
		166.6,155.6 165.9,151.9 165.2,148.2 164.5,144.4 163.9,140.5 163.3,136.6 162.8,132.6 162.2,128.6 161.8,124.5 161.3,120.3 
		160.9,116.1 160.6,111.8 	"/>
	<line class="st3" x1="160.6" y1="111.8" x2="109.6" y2="118.5"/>
	<line class="st3" x1="109.6" y1="118.5" x2="109.6" y2="155"/>
	<polyline class="st3" points="184.9,33.2 187.7,34.8 190.4,36.4 192.9,37.9 195.5,39.4 197.9,40.8 200.3,42.2 202.5,43.6 
		204.7,44.9 206.9,46.2 208.9,47.4 210.9,48.6 212.7,49.7 214.5,50.8 216.3,51.9 217.9,52.9 219.5,53.8 220.9,54.8 222.3,55.6 
		223.7,56.5 	"/>
	<polyline class="st3" points="223.7,56.5 223.6,57.5 223.4,58.6 223.3,59.7 223.2,60.8 223,61.9 222.9,63 222.7,64.1 222.5,65.3 
		222.4,66.4 222.2,67.6 222,68.8 221.8,69.9 221.6,71.1 221.4,72.4 221.2,73.6 221,74.8 220.8,76.1 220.6,77.3 220.3,78.6 	"/>
	<polyline class="st3" points="220.3,78.6 219.1,77 217.8,75.2 216.4,73.4 215,71.6 213.4,69.7 211.7,67.7 209.9,65.7 208.1,63.6 
		206.1,61.4 204.1,59.2 202,57 199.7,54.6 197.4,52.2 195,49.8 192.5,47.2 189.9,44.7 187.2,42 184.5,39.3 181.6,36.5 	"/>
	<line class="st3" x1="181.6" y1="36.5" x2="184.9" y2="33.2"/>
</g>
</svg>
